<svg width="20" height="20" viewBox="0 0 20 20" fill="none" xmlns="http://www.w3.org/2000/svg">
<path d="M10 2C7.238 2 5 4.23039 5 6.99312C5 11.7701 10 18 10 18C10 18 15 11.7691 15 6.99312C15 4.23139 12.762 2 10 2ZM10 9.75585C9.28392 9.75585 8.59716 9.47121 8.09081 8.96454C7.58446 8.45788 7.3 7.77069 7.3 7.05416C7.3 6.33763 7.58446 5.65044 8.09081 5.14378C8.59716 4.63711 9.28392 4.35247 10 4.35247C10.7161 4.35247 11.4028 4.63711 11.9092 5.14378C12.4155 5.65044 12.7 6.33763 12.7 7.05416C12.7 7.77069 12.4155 8.45788 11.9092 8.96454C11.4028 9.47121 10.7161 9.75585 10 9.75585Z" fill="#2E2E2E"/>
</svg>
