<svg width="26" height="26" viewBox="0 0 26 26" fill="none" xmlns="http://www.w3.org/2000/svg">
<path d="M13 0C5.82024 0 0 5.82024 0 13C0 20.1798 5.82024 26 13 26C20.1798 26 26 20.1798 26 13C26 5.82024 20.1798 0 13 0Z" fill="#40B3E0"/>
<path d="M19.3256 7.47804L17.0036 19.1851C17.0036 19.1851 16.6789 19.9969 15.7858 19.6072L10.4276 15.4992L8.47923 14.5576L5.19937 13.4534C5.19937 13.4534 4.69602 13.2748 4.64727 12.8851C4.59852 12.4954 5.21562 12.2844 5.21562 12.2844L18.2538 7.1697C18.2538 7.1697 19.3256 6.69865 19.3256 7.47804Z" fill="white"/>
<path d="M10.0159 19.0534C10.0159 19.0534 9.85948 19.0388 9.66448 18.4217C9.46979 17.8047 8.47925 14.5573 8.47925 14.5573L16.3542 9.5564C16.3542 9.5564 16.8089 9.28036 16.7926 9.5564C16.7926 9.5564 16.8738 9.60515 16.6301 9.83245C16.3867 10.0598 10.444 15.4017 10.444 15.4017" fill="#D2E5F1"/>
<path d="M12.4821 17.0742L10.3628 19.0065C10.3628 19.0065 10.1971 19.1323 10.0159 19.0535L10.4217 15.4642" fill="#B5CFE4"/>
</svg>
