<svg width="135" height="50" viewBox="0 0 135 50" fill="none" xmlns="http://www.w3.org/2000/svg">
<path d="M67.7904 16.1275C66.8149 16.1275 66.0639 15.9729 65.5375 15.6638C65.011 15.3546 64.6394 14.8908 64.4226 14.2724C64.2213 13.6541 64.1207 12.8889 64.1207 11.9768V11.5826H66.3736V11.9768C66.3736 12.827 66.4742 13.4299 66.6755 13.7855C66.8768 14.141 67.2407 14.3188 67.7671 14.3188C68.1852 14.3188 68.4949 14.2261 68.6962 14.0406C68.9129 13.8396 69.0523 13.5227 69.1142 13.0898C69.1917 12.6415 69.2304 12.0464 69.2304 11.3043V9.93622H66.0252V8.54491H69.2304V7.08404C69.2304 6.31109 69.1839 5.72366 69.091 5.32172C69.0136 4.90433 68.8665 4.61834 68.6497 4.46375C68.4329 4.2937 68.1387 4.20868 67.7671 4.20868C67.1478 4.20868 66.7607 4.4251 66.6058 4.85795C66.451 5.27535 66.3736 5.81641 66.3736 6.48114V7.13042H64.1207V6.64346C64.1207 5.74684 64.2291 4.98163 64.4458 4.34781C64.6626 3.71399 65.0342 3.22704 65.5607 2.88694C66.1026 2.54684 66.8536 2.37679 67.8136 2.37679C68.9129 2.37679 69.7413 2.60095 70.2987 3.04926C70.8562 3.48211 71.2278 4.10047 71.4136 4.90433C71.6149 5.69274 71.7155 6.628 71.7155 7.71013V10.7942C71.7155 11.9072 71.6149 12.8657 71.4136 13.6695C71.2123 14.458 70.8252 15.0686 70.2523 15.5014C69.6949 15.9188 68.8742 16.1275 67.7904 16.1275Z" fill="#2E2E2E"/>
<path d="M73.2277 16.058V14.1797C73.6923 14.1797 74.0561 14.0869 74.3194 13.9014C74.5981 13.7159 74.8071 13.4067 74.9464 12.9739C75.1013 12.5256 75.2174 11.9304 75.2948 11.1884C75.3723 10.4309 75.4419 9.48791 75.5039 8.3594L75.8058 2.53911H82.8432V15.942H80.3581V4.41738H77.989L77.78 8.3594C77.7026 9.88984 77.5864 11.1575 77.4316 12.1623C77.2923 13.1671 77.0677 13.9555 76.7581 14.5275C76.4484 15.084 76.0303 15.4782 75.5039 15.7101C74.9929 15.942 74.3271 16.058 73.5064 16.058H73.2277Z" fill="#2E2E2E"/>
<path d="M89.192 16.1275C88.1391 16.1275 87.3262 15.9266 86.7533 15.5246C86.1804 15.1072 85.7778 14.5043 85.5456 13.7159C85.3288 12.9121 85.2204 11.9304 85.2204 10.771V7.71013C85.2204 6.51979 85.3365 5.53042 85.5688 4.74201C85.8011 3.95361 86.2036 3.35844 86.7765 2.95651C87.3649 2.55457 88.1701 2.35361 89.192 2.35361C90.3223 2.35361 91.1507 2.58549 91.6772 3.04926C92.2191 3.51303 92.5753 4.18549 92.7456 5.06665C92.9159 5.93235 93.0011 6.97583 93.0011 8.19708V9.28694H87.7056V11.9768C87.7056 12.5179 87.752 12.9584 87.8449 13.2985C87.9533 13.6386 88.1159 13.8937 88.3327 14.0638C88.5649 14.2183 88.8591 14.2956 89.2152 14.2956C89.5869 14.2956 89.8656 14.2106 90.0514 14.0406C90.2527 13.8551 90.3843 13.6 90.4462 13.2753C90.5236 12.9353 90.5623 12.541 90.5623 12.0927V11.2811H92.9778V11.7913C92.9778 13.1362 92.6914 14.1952 92.1185 14.9681C91.5456 15.741 90.5701 16.1275 89.192 16.1275ZM87.7056 7.94201H90.5623V6.73622C90.5623 6.17969 90.5314 5.71593 90.4694 5.34491C90.4075 4.95844 90.2759 4.67245 90.0746 4.48694C89.8888 4.28597 89.5869 4.18549 89.1688 4.18549C88.7662 4.18549 88.4565 4.27824 88.2398 4.46375C88.0385 4.64926 87.8991 4.96617 87.8217 5.41448C87.7443 5.84733 87.7056 6.45022 87.7056 7.22317V7.94201Z" fill="#2E2E2E"/>
<path d="M95.298 15.942L95.4374 2.53911H97.2722L100.245 10.771L103.241 2.53911H105.076L105.215 15.942H103.125V7.94201L100.64 14.6203H99.8735L97.3884 7.98839V15.942H95.298Z" fill="#2E2E2E"/>
<path d="M111.493 16.1275C110.44 16.1275 109.628 15.9266 109.055 15.5246C108.482 15.1072 108.079 14.5043 107.847 13.7159C107.63 12.9121 107.522 11.9304 107.522 10.771V7.71013C107.522 6.51979 107.638 5.53042 107.87 4.74201C108.102 3.95361 108.505 3.35844 109.078 2.95651C109.666 2.55457 110.471 2.35361 111.493 2.35361C112.624 2.35361 113.452 2.58549 113.978 3.04926C114.52 3.51303 114.877 4.18549 115.047 5.06665C115.217 5.93235 115.302 6.97583 115.302 8.19708V9.28694H110.007V11.9768C110.007 12.5179 110.053 12.9584 110.146 13.2985C110.255 13.6386 110.417 13.8937 110.634 14.0638C110.866 14.2183 111.16 14.2956 111.517 14.2956C111.888 14.2956 112.167 14.2106 112.353 14.0406C112.554 13.8551 112.686 13.6 112.748 13.2753C112.825 12.9353 112.864 12.541 112.864 12.0927V11.2811H115.279V11.7913C115.279 13.1362 114.993 14.1952 114.42 14.9681C113.847 15.741 112.871 16.1275 111.493 16.1275ZM110.007 7.94201H112.864V6.73622C112.864 6.17969 112.833 5.71593 112.771 5.34491C112.709 4.95844 112.577 4.67245 112.376 4.48694C112.19 4.28597 111.888 4.18549 111.47 4.18549C111.068 4.18549 110.758 4.27824 110.541 4.46375C110.34 4.64926 110.2 4.96617 110.123 5.41448C110.046 5.84733 110.007 6.45022 110.007 7.22317V7.94201Z" fill="#2E2E2E"/>
<path d="M117.669 15.942V2.53911H120.154V8.1739H123.336V2.53911H125.821V15.942H123.336V9.98259H120.154V15.942H117.669Z" fill="#2E2E2E"/>
<path d="M129.955 15.942V4.39419H127.447V2.53911H134.972V4.39419H132.44V15.942H129.955Z" fill="#2E2E2E"/>
<path d="M69.1766 48.779C67.7202 48.779 66.5855 48.4746 65.7726 47.8659C64.9766 47.2572 64.4177 46.4372 64.096 45.4058C63.7911 44.3744 63.6387 43.2246 63.6387 41.9565V34.7029C63.6387 33.3164 63.7911 32.1075 64.096 31.0761C64.4177 30.0447 64.9766 29.25 65.7726 28.692C66.5855 28.1171 67.7202 27.8297 69.1766 27.8297C70.4637 27.8297 71.4798 28.0664 72.225 28.5398C72.9871 29.0133 73.529 29.6896 73.8508 30.5688C74.1895 31.4481 74.3589 32.5048 74.3589 33.7391V35.3623H71.6407V33.9166C71.6407 33.1558 71.5984 32.4879 71.5137 31.913C71.446 31.3212 71.2427 30.8647 70.904 30.5435C70.5653 30.2222 69.998 30.0616 69.202 30.0616C68.3891 30.0616 67.7964 30.2391 67.4238 30.5942C67.0512 30.9324 66.8056 31.4227 66.6871 32.0652C66.5855 32.6908 66.5347 33.4263 66.5347 34.2717V42.413C66.5347 43.4444 66.6194 44.2645 66.7887 44.8732C66.9581 45.465 67.2375 45.8877 67.627 46.1413C68.0165 46.3949 68.5415 46.5217 69.202 46.5217C69.981 46.5217 70.5399 46.3526 70.8786 46.0145C71.2173 45.6594 71.429 45.1775 71.5137 44.5688C71.5984 43.9601 71.6407 43.25 71.6407 42.4384V40.9167H74.3589V42.4384C74.3589 43.6896 74.2065 44.7971 73.9016 45.7609C73.5968 46.7077 73.0718 47.4517 72.3266 47.9927C71.5815 48.5169 70.5315 48.779 69.1766 48.779Z" fill="#2E2E2E"/>
<path d="M81.5137 48.5507V30.1377H78.0334V28.0072H87.7629V30.1377H84.3842V48.5507H81.5137Z" fill="#2E2E2E"/>
<path d="M91.9058 48.5507V28.0072H97.0118C98.2481 28.0072 99.2304 28.2355 99.9586 28.692C100.704 29.1316 101.246 29.7741 101.584 30.6195C101.923 31.465 102.092 32.4879 102.092 33.6884C102.092 34.7705 101.898 35.7089 101.508 36.5036C101.136 37.2983 100.577 37.9154 99.8316 38.3551C99.0864 38.7778 98.155 38.9891 97.0372 38.9891H94.7763V48.5507H91.9058ZM94.7763 36.9348H96.0973C96.9271 36.9348 97.5792 36.8418 98.0533 36.6558C98.5275 36.4698 98.8662 36.1485 99.0695 35.692C99.2727 35.2186 99.3743 34.5592 99.3743 33.7138C99.3743 32.7331 99.2981 31.9807 99.1457 31.4565C99.0102 30.9324 98.7138 30.5688 98.2566 30.3659C97.7993 30.163 97.088 30.0616 96.1227 30.0616H94.7763V36.9348Z" fill="#2E2E2E"/>
<path d="M111.529 48.779C110.14 48.779 109.031 48.5084 108.201 47.9674C107.371 47.4263 106.779 46.657 106.423 45.6594C106.067 44.6449 105.889 43.4613 105.889 42.1087V34.3224C105.889 32.9698 106.067 31.8116 106.423 30.8478C106.795 29.8671 107.388 29.1232 108.201 28.6159C109.031 28.0918 110.14 27.8297 111.529 27.8297C112.918 27.8297 114.018 28.0918 114.831 28.6159C115.644 29.1401 116.229 29.884 116.584 30.8478C116.957 31.8116 117.143 32.9698 117.143 34.3224V42.134C117.143 43.4698 116.957 44.6365 116.584 45.634C116.229 46.6316 115.644 47.4094 114.831 47.9674C114.018 48.5084 112.918 48.779 111.529 48.779ZM111.529 46.5217C112.291 46.5217 112.867 46.3696 113.256 46.0652C113.646 45.7439 113.908 45.3043 114.044 44.7464C114.179 44.1715 114.247 43.5036 114.247 42.7427V33.7391C114.247 32.9782 114.179 32.3273 114.044 31.7862C113.908 31.2282 113.646 30.8055 113.256 30.5181C112.867 30.2138 112.291 30.0616 111.529 30.0616C110.767 30.0616 110.183 30.2138 109.776 30.5181C109.387 30.8055 109.124 31.2282 108.989 31.7862C108.853 32.3273 108.785 32.9782 108.785 33.7391V42.7427C108.785 43.5036 108.853 44.1715 108.989 44.7464C109.124 45.3043 109.387 45.7439 109.776 46.0652C110.183 46.3696 110.767 46.5217 111.529 46.5217Z" fill="#2E2E2E"/>
<path d="M122.124 48.5507V28.0072H124.664V42.2355L130.685 28.0072H132.742V48.5507H130.227V34.0942L124.258 48.5507H122.124ZM127.687 26.4094C126.468 26.4094 125.604 26.0797 125.096 25.4203C124.605 24.7609 124.359 23.9408 124.359 22.9601H125.934C125.951 23.5688 126.087 24.0423 126.341 24.3804C126.612 24.7017 127.06 24.8623 127.687 24.8623C128.331 24.8623 128.779 24.6932 129.033 24.3551C129.304 24.0169 129.44 23.5519 129.44 22.9601H131.04C131.04 23.9408 130.786 24.7609 130.278 25.4203C129.787 26.0797 128.923 26.4094 127.687 26.4094Z" fill="#2E2E2E"/>
<path fill-rule="evenodd" clip-rule="evenodd" d="M5.88778 2.31751L5.04939 3.01094C3.82769 4.0214 3.26613 5.29659 3.26613 6.52172C3.26613 7.74686 3.82769 9.02205 5.04939 10.0325C6.73091 11.4233 7.62097 13.2953 7.62097 15.2174C7.62097 17.1394 6.73091 19.0115 5.04939 20.4022L4.211 21.0957L2.82191 19.4216L3.6603 18.7282C4.882 17.7177 5.44355 16.4425 5.44355 15.2174C5.44355 13.9922 4.882 12.7171 3.6603 11.7066C1.97878 10.3158 1.08871 8.44379 1.08871 6.52172C1.08871 4.59966 1.97878 2.72763 3.6603 1.33686L4.49869 0.643433L5.88778 2.31751ZM12.42 2.31751L11.5816 3.01094C10.3599 4.0214 9.79839 5.29659 9.79839 6.52172C9.79839 7.74686 10.3599 9.02205 11.5816 10.0325C13.2632 11.4233 14.1532 13.2953 14.1532 15.2174C14.1532 17.1394 13.2632 19.0115 11.5816 20.4022L10.7433 21.0957L9.35417 19.4216L10.1926 18.7282C11.4143 17.7177 11.9758 16.4425 11.9758 15.2174C11.9758 13.9922 11.4143 12.7171 10.1926 11.7066C8.51104 10.3158 7.62097 8.44379 7.62097 6.52172C7.62097 4.59966 8.51104 2.72763 10.1926 1.33686L11.0309 0.643433L12.42 2.31751ZM18.9523 2.31751L18.1139 3.01094C16.8922 4.0214 16.3307 5.29659 16.3307 6.52172C16.3307 7.74686 16.8922 9.02205 18.1139 10.0325C19.7954 11.4233 20.6855 13.2953 20.6855 15.2174C20.6855 17.1394 19.7954 19.0115 18.1139 20.4022L17.2755 21.0957L15.8864 19.4216L16.7248 18.7282C17.9465 17.7177 18.5081 16.4425 18.5081 15.2174C18.5081 13.9922 17.9465 12.7171 16.7248 11.7066C15.0433 10.3158 14.1532 8.44379 14.1532 6.52172C14.1532 4.59966 15.0433 2.72763 16.7248 1.33686L17.5632 0.643433L18.9523 2.31751ZM29.3952 4.34781C29.3952 2.54688 30.8575 1.08694 32.6613 1.08694H45.7258C47.5297 1.08694 48.992 2.54688 48.992 4.34781V13.0435C48.992 14.8444 47.5297 16.3043 45.7258 16.3043H37.0161C35.2123 16.3043 33.75 14.8444 33.75 13.0435V8.69564C33.75 6.89471 35.2123 5.43477 37.0161 5.43477H41.371C43.1748 5.43477 44.6371 6.89471 44.6371 8.69564C44.6371 10.4966 43.1748 11.9565 41.371 11.9565H38.1049V9.78259H41.371C41.9723 9.78259 42.4597 9.29595 42.4597 8.69564C42.4597 8.09533 41.9723 7.60868 41.371 7.60868H37.0161C36.4149 7.60868 35.9274 8.09533 35.9274 8.69564V13.0435C35.9274 13.6438 36.4149 14.1304 37.0161 14.1304H45.7258C46.3271 14.1304 46.8145 13.6438 46.8145 13.0435V4.34781C46.8145 3.7475 46.3271 3.26085 45.7258 3.26085H32.6613C32.06 3.26085 31.5726 3.7475 31.5726 4.34781V17.3913C31.5726 17.9916 32.06 18.4782 32.6613 18.4782H48.992V20.6522H32.6613C30.8575 20.6522 29.3952 19.1922 29.3952 17.3913V4.34781ZM5.76243 29.6662C6.1876 29.2417 6.87693 29.2417 7.3021 29.6662L10.8871 33.2454L14.4721 29.6662C14.8973 29.2417 15.5866 29.2417 16.0118 29.6662L21.1365 34.7826L19.5968 36.3198L15.2419 31.972L11.6569 35.5512C11.2318 35.9757 10.5424 35.9757 10.1173 35.5512L6.53226 31.972L2.17742 36.3198L0.637756 34.7826L5.76243 29.6662ZM43.5484 31.5217C42.3213 31.5217 41.044 32.0824 40.0319 33.3021C38.6389 34.9809 36.7639 35.8696 34.8387 35.8696C32.9136 35.8696 31.0385 34.9809 29.6455 33.3021L28.9509 32.4651L30.6277 31.0782L31.3223 31.9153C32.3344 33.135 33.6116 33.6956 34.8387 33.6956C36.0658 33.6956 37.3431 33.135 38.3552 31.9153C39.7482 30.2364 41.6232 29.3478 43.5484 29.3478C45.4736 29.3478 47.3486 30.2364 48.7416 31.9153L49.4362 32.7523L47.7594 34.1391L47.0648 33.3021C46.0528 32.0824 44.7755 31.5217 43.5484 31.5217ZM43.5484 38.0435C42.3213 38.0435 41.044 38.6041 40.0319 39.8238C38.6389 41.5027 36.7639 42.3913 34.8387 42.3913C32.9136 42.3913 31.0385 41.5027 29.6455 39.8238L28.9509 38.9868L30.6277 37.6L31.3223 38.437C32.3344 39.6567 33.6116 40.2174 34.8387 40.2174C36.0658 40.2174 37.3431 39.6567 38.3552 38.437C39.7482 36.7582 41.6232 35.8696 43.5484 35.8696C45.4736 35.8696 47.3486 36.7582 48.7416 38.437L49.4362 39.274L47.7594 40.6609L47.0648 39.8238C46.0528 38.6041 44.7755 38.0435 43.5484 38.0435ZM6.53226 38.4937L2.17742 42.8415L0.637756 41.3043L5.76243 36.1879C6.1876 35.7634 6.87693 35.7634 7.3021 36.1879L10.8871 39.7671L14.4721 36.1879C14.8973 35.7634 15.5866 35.7634 16.0118 36.1879L21.1365 41.3043L19.5968 42.8415L15.2419 38.4937L11.6569 42.0729C11.2318 42.4974 10.5424 42.4974 10.1173 42.0729L6.53226 38.4937ZM43.5484 44.5652C42.3213 44.5652 41.044 45.1259 40.0319 46.3456C38.6389 48.0244 36.7639 48.913 34.8387 48.913C32.9136 48.913 31.0385 48.0244 29.6455 46.3456L28.9509 45.5085L30.6277 44.1217L31.3223 44.9587C32.3344 46.1785 33.6116 46.7391 34.8387 46.7391C36.0658 46.7391 37.3431 46.1785 38.3552 44.9587C39.7482 43.2799 41.6232 42.3913 43.5484 42.3913C45.4736 42.3913 47.3486 43.2799 48.7416 44.9587L49.4362 45.7958L47.7594 47.1826L47.0648 46.3456C46.0528 45.1259 44.7755 44.5652 43.5484 44.5652ZM6.53226 45.0154L2.17742 49.3633L0.637756 47.8261L5.76243 42.7097C6.1876 42.2852 6.87693 42.2852 7.3021 42.7097L10.8871 46.2889L14.4721 42.7097C14.8973 42.2852 15.5866 42.2852 16.0118 42.7097L21.1365 47.8261L19.5968 49.3633L15.2419 45.0154L11.6569 48.5947C11.2318 49.0192 10.5424 49.0192 10.1173 48.5947L6.53226 45.0154Z" fill="#2E2E2E"/>
</svg>
