<svg width="26" height="26" viewBox="0 0 26 26" fill="none" xmlns="http://www.w3.org/2000/svg">
<circle cx="13" cy="13" r="11" fill="white"/>
<path d="M25.0797 15.1338C25.0715 15.1795 25.0657 15.2257 25.0571 15.2714L25.0126 15.0095C25.037 15.0503 25.0571 15.0927 25.0797 15.1338C25.2151 14.3997 25.2836 13.6549 25.2844 12.9084C25.2844 11.2511 24.9599 9.64316 24.3188 8.12957C23.7003 6.66748 22.8155 5.35437 21.6874 4.22703C20.5608 3.09969 19.2468 2.21477 17.7855 1.59636C16.2723 0.956109 14.6645 0.631617 13.0072 0.631617C12.2262 0.631617 11.4438 0.704945 10.6824 0.851094C10.6824 0.851094 10.6788 0.8515 10.6767 0.851906C10.7195 0.874555 10.7628 0.894766 10.8047 0.918227L10.5466 0.877805C10.5898 0.86968 10.6335 0.860539 10.6767 0.851906C9.63219 0.296562 8.45731 0 7.26822 0C5.32695 0 3.50157 0.75593 2.12875 2.12916C0.756336 3.50198 0 5.32726 0 7.26863C0.000659022 8.50182 0.315372 9.71454 0.914469 10.7924C0.922289 10.748 0.927672 10.7031 0.936305 10.6586L0.980789 10.9159C0.957734 10.8756 0.937523 10.8336 0.914469 10.7924C0.792276 11.4911 0.730434 12.1991 0.729625 12.9084C0.729625 14.5661 1.05412 16.1736 1.69518 17.6876C2.31278 19.1501 3.1981 20.4623 4.32504 21.5896C5.4532 22.7171 6.76548 23.6032 8.22839 24.22C9.74167 24.8615 11.3499 25.1864 13.0072 25.1864C13.7286 25.1864 14.4516 25.1205 15.1573 24.9953C15.1162 24.9723 15.0742 24.9513 15.0322 24.927L15.2945 24.9731C15.2492 24.9817 15.2034 24.9871 15.1573 24.9953C16.2479 25.6126 17.4798 25.9372 18.733 25.9374C20.674 25.9374 22.4984 25.1826 23.8713 23.8091C25.2444 22.4371 26 20.6114 26 18.67C25.9993 17.4322 25.6826 16.2149 25.0797 15.1338ZM13.0562 20.4274C8.69456 20.4274 6.74324 18.283 6.74324 16.676C6.74324 15.8516 7.3518 15.2739 8.19051 15.2739C10.057 15.2739 9.57359 17.954 13.0562 17.954C14.8391 17.954 15.8235 16.9859 15.8235 15.9953C15.8235 15.3995 15.5296 14.739 14.3557 14.4495L10.4762 13.4811C7.35181 12.6975 6.78478 11.0086 6.78478 9.42084C6.78478 6.12442 9.88853 4.88668 12.8034 4.88668C15.4884 4.88668 18.6536 6.37061 18.6536 8.34823C18.6536 9.19567 17.9198 9.68845 17.0814 9.68845C15.4884 9.68845 15.7816 7.48353 12.5728 7.48353C10.9805 7.48353 10.0986 8.20463 10.0986 9.2364C10.0986 10.2662 11.3561 10.5952 12.448 10.8438L15.3196 11.4812C18.465 12.182 19.2625 14.0185 19.2625 15.7482C19.2625 18.4271 17.2062 20.4274 13.0562 20.4274ZM15.0322 24.927C15.0742 24.9513 15.1162 24.9723 15.1573 24.9953C15.2034 24.9871 15.2492 24.9817 15.2945 24.9731L15.0322 24.927ZM25.0571 15.2714C25.0657 15.2257 25.0715 15.1795 25.0797 15.1338C25.0571 15.0927 25.037 15.0503 25.0126 15.0095L25.0571 15.2714ZM0.936305 10.6586C0.927672 10.7031 0.922289 10.748 0.914469 10.7924C0.937523 10.8336 0.957734 10.8756 0.980789 10.9159L0.936305 10.6586ZM10.8047 0.918227C10.7628 0.894766 10.7195 0.874555 10.6767 0.851906C10.6335 0.860539 10.5898 0.86968 10.5466 0.877805L10.8047 0.918227Z" fill="#00AFF0"/>
</svg>
