<svg width="27" height="27" viewBox="0 0 27 27" fill="none" xmlns="http://www.w3.org/2000/svg">
<path fill-rule="evenodd" clip-rule="evenodd" d="M0.575897 26.4057L2.62319 18.9677C1.62696 17.1066 1.09751 15.0225 1.10311 12.8931C1.10386 5.77624 6.91852 0 14.0544 0C17.5147 0 20.7714 1.34197 23.2116 3.77787C25.6561 6.21237 27.006 9.45633 27 12.9011C26.9995 20.0181 21.1846 25.7947 14.0487 25.7947H14.043C12.0111 25.7947 10.0125 25.3164 8.21036 24.4107L0.575897 26.4057Z" fill="#25D366"/>
<path d="M2 25L3.69582 18.8389C2.65312 17.0362 2.09729 14.9881 2.1031 12.8945C2.1031 6.334 7.46571 1 14.0545 1C17.2513 1 20.2534 2.23787 22.5051 4.48557C24.7624 6.73327 26.0057 9.72259 26 12.9002C26 19.4607 20.6374 24.7947 14.0486 24.7947H14.043C12.0473 24.7939 10.0836 24.2957 8.33083 23.3456L2 25ZM8.62872 21.1892L8.98966 21.406C10.5137 22.3074 12.2611 22.7809 14.043 22.7866H14.0487C19.5201 22.7866 23.9776 18.354 23.9776 12.9002C23.9776 10.2589 22.9463 7.77728 21.0728 5.90613C19.1993 4.03497 16.7013 3.0081 14.0487 3.0081C8.57147 3.0081 4.11412 7.4407 4.11412 12.8945C4.11412 14.76 4.63541 16.5798 5.63236 18.1542L5.86729 18.5308L4.86463 22.1761L8.62872 21.1892Z" fill="white"/>
<path d="M11.0488 7.55577C10.8278 7.02443 10.5954 7.01216 10.3858 7.00608C10.2158 7 10.0175 7 9.8191 7C9.62079 7 9.30339 7.07938 9.03142 7.3969C8.75936 7.71453 8 8.48401 8 10.0536C8 11.6169 9.05974 13.1314 9.20706 13.3451C9.35437 13.5589 11.2528 16.875 14.2505 18.1513C16.7439 19.214 17.254 19.0002 17.7923 18.9453C18.3363 18.8903 19.5377 18.1758 19.787 17.4307C20.0307 16.6857 20.0307 16.0505 19.957 15.9162C19.8833 15.7818 19.685 15.7025 19.3903 15.5436C19.0957 15.3849 17.645 14.6154 17.373 14.5055C17.1009 14.3956 16.9026 14.3467 16.71 14.6643C16.5116 14.9818 15.945 15.6963 15.7749 15.9101C15.6049 16.1238 15.4293 16.1483 15.1345 15.9895C14.8399 15.8307 13.8879 15.4948 12.7602 14.4078C11.8818 13.565 11.2868 12.5207 11.1167 12.2031C10.9468 11.8856 11.0998 11.7145 11.2471 11.5558C11.3774 11.4153 11.5418 11.1833 11.6892 11.0001C11.8365 10.8169 11.8875 10.6825 11.9838 10.4687C12.0802 10.255 12.0348 10.0718 11.9611 9.91307C11.8875 9.7542 11.3095 8.18473 11.0488 7.55577Z" fill="white"/>
</svg>
