<svg width="20" height="20" viewBox="0 0 20 20" fill="none" xmlns="http://www.w3.org/2000/svg">
<path d="M2 5.99442C2 6.66388 2.24547 7.40028 2.55788 8.18131C2.87029 8.96234 3.27197 9.69874 3.58438 10.2566C4.43236 11.7294 5.5258 13.1799 6.77545 14.3849C8.0251 15.59 9.49791 16.5941 11.1492 17.1967C12.1088 17.576 13.0683 18 14.1395 18C14.675 18 15.4338 17.7992 16.1255 17.5091C16.795 17.219 17.3975 16.7727 17.6206 16.2371C17.7099 16.0363 17.8215 15.7685 17.8884 15.4561C17.9554 15.166 18 14.8759 18 14.675C18 14.5635 18 14.4519 17.9777 14.4296C17.9107 14.2957 17.7545 14.1841 17.576 14.0725C17.1743 13.8717 17.1074 13.8047 16.5049 13.4477C15.8801 13.0907 15.2329 12.689 14.675 12.3989C14.4073 12.2427 14.2287 12.1757 14.1618 12.1757C13.8047 12.1757 13.3584 12.6667 12.9791 13.2022C12.5774 13.7378 12.1311 14.2287 11.8187 14.2287C11.6625 14.2287 11.5063 14.1618 11.3278 14.0502C11.1492 13.9386 10.9707 13.8494 10.8591 13.7824C8.8954 12.6667 7.5788 11.3501 6.46304 9.40865C6.32915 9.18549 6.01674 8.71688 6.01674 8.47141C6.01674 8.18131 6.41841 7.84658 6.82008 7.48954C7.19944 7.15481 7.60112 6.75314 7.60112 6.2622C7.60112 6.19526 7.55649 5.99442 7.46722 5.70432C7.26639 5.12413 6.99861 4.45467 6.77545 3.80753C6.66388 3.49512 6.57462 3.27197 6.5523 3.16039C6.50767 3.09344 6.48536 3.00418 6.46304 2.89261C6.44073 2.78103 6.39609 2.69177 6.37378 2.60251C6.30683 2.40167 6.19526 2.24547 6.08368 2.15621C5.97211 2.11158 5.70432 2.04463 5.43654 2.02232C5.16876 2.02232 4.85635 2 4.72245 2C4.65551 2 4.56625 2 4.47699 2.02232H4.18689C3.4728 2.33473 2.95955 2.95955 2.5802 3.69596C2.22315 4.43236 2 5.25802 2 5.99442Z" fill="#2E2E2E"/>
</svg>
