<svg width="30" height="30" viewBox="0 0 30 30" fill="none" xmlns="http://www.w3.org/2000/svg">
<path fill-rule="evenodd" clip-rule="evenodd" d="M25.8363 6.19393C26.9839 6.50302 27.8889 7.4078 28.1978 8.55564C28.7718 10.6522 28.7497 15.0224 28.7497 15.0224C28.7497 15.0224 28.7497 19.3702 28.198 21.467C27.8889 22.6146 26.9841 23.5196 25.8363 23.8285C23.7395 24.3805 15.3527 24.3805 15.3527 24.3805C15.3527 24.3805 6.98765 24.3805 4.86901 23.8066C3.72117 23.4975 2.81639 22.5926 2.5073 21.4449C1.95557 19.3702 1.95557 15.0003 1.95557 15.0003C1.95557 15.0003 1.95557 10.6522 2.5073 8.55564C2.81619 7.408 3.74325 6.48094 4.8688 6.17206C6.96557 5.62012 15.3524 5.62012 15.3524 5.62012C15.3524 5.62012 23.7395 5.62012 25.8363 6.19393ZM19.6562 15.0014L12.6819 19.0184V10.9845L19.6562 15.0014Z" fill="#CD201F"/>
</svg>
