<svg width="29" height="30" viewBox="0 0 29 30" fill="none" xmlns="http://www.w3.org/2000/svg">
<path d="M27.5 7.36631C26.6259 7.76787 25.6879 8.0402 24.7025 8.16178C25.7087 7.5371 26.4789 6.54627 26.844 5.36925C25.9001 5.94774 24.8583 6.3678 23.7482 6.59551C22.8592 5.61237 21.5947 5 20.1922 5C17.5016 5 15.32 7.26171 15.32 10.0496C15.32 10.445 15.363 10.8312 15.4461 11.2005C11.3975 10.9897 7.80749 8.97877 5.40474 5.92312C4.98473 6.66781 4.74579 7.53553 4.74579 8.46179C4.74579 10.2142 5.60658 11.7605 6.9126 12.6652C6.11414 12.6375 5.36318 12.4098 4.70574 12.0313V12.0944C4.70574 14.5407 6.38575 16.5824 8.61336 17.0471C8.20523 17.1609 7.77486 17.224 7.32962 17.224C7.01501 17.224 6.71076 17.1917 6.41245 17.1301C7.03278 19.138 8.83154 20.5981 10.9627 20.6381C9.29606 21.9921 7.19457 22.7967 4.91204 22.7967C4.51877 22.7967 4.1314 22.7721 3.75 22.7275C5.9064 24.163 8.46648 25 11.218 25C20.1804 25 25.0795 17.304 25.0795 10.6297L25.0631 9.97579C26.0204 9.26799 26.8485 8.37871 27.5 7.36631Z" fill="#55ACEE"/>
</svg>
