<svg width="30" height="30" viewBox="0 0 30 30" fill="none" xmlns="http://www.w3.org/2000/svg">
<path d="M11.1831 16.6992L11.1635 27.4999L16.1469 27.5L16.1665 16.6994H20.113C20.4678 16.6994 20.7667 16.4484 20.8085 16.1152L21.245 12.6337C21.2945 12.2399 20.969 11.8937 20.5495 11.8937H16.1469V8.98135C16.1469 7.66061 16.5349 6.76064 18.5385 6.76064L20.3938 6.75983C20.7804 6.75961 21.0938 6.46326 21.0938 6.09772V3.16211C21.0938 2.79642 20.7802 2.5 20.3934 2.5H17.3702C13.6859 2.5 11.1636 4.6257 11.1636 8.52959V11.8936H8.20047C7.81257 11.8936 7.49852 12.1916 7.50001 12.5582L7.51424 16.0397C7.51573 16.4044 7.82884 16.6992 8.21462 16.6992H11.1831Z" fill="#3B5998"/>
</svg>
