<svg width="30" height="30" viewBox="0 0 30 30" fill="none" xmlns="http://www.w3.org/2000/svg">
<path d="M20.0524 2.5H9.94764C5.84099 2.5 2.5 5.84099 2.5 9.94764V20.0524C2.5 24.159 5.84099 27.5 9.94764 27.5H20.0524C24.159 27.5 27.5 24.159 27.5 20.0524V9.94764C27.5 5.84099 24.159 2.5 20.0524 2.5ZM24.985 20.0524C24.985 22.7766 22.7766 24.985 20.0524 24.985H9.94764C7.22344 24.985 5.015 22.7766 5.015 20.0524V9.94764C5.015 7.22339 7.22344 5.015 9.94764 5.015H20.0524C22.7766 5.015 24.985 7.22339 24.985 9.94764V20.0524Z" fill="#E4405F"/>
<path d="M15 8.53411C11.4347 8.53411 8.53411 11.4347 8.53411 15C8.53411 18.5652 11.4347 21.4658 15 21.4658C18.5653 21.4658 21.4659 18.5653 21.4659 15C21.4659 11.4347 18.5653 8.53411 15 8.53411ZM15 18.9509C12.818 18.9509 11.0491 17.182 11.0491 15C11.0491 12.818 12.818 11.0491 15 11.0491C17.182 11.0491 18.9509 12.818 18.9509 15C18.9509 17.182 17.182 18.9509 15 18.9509Z" fill="#E4405F"/>
<path d="M21.4784 10.132C22.3341 10.132 23.0278 9.43834 23.0278 8.58265C23.0278 7.72696 22.3341 7.03329 21.4784 7.03329C20.6227 7.03329 19.9291 7.72696 19.9291 8.58265C19.9291 9.43834 20.6227 10.132 21.4784 10.132Z" fill="#E4405F"/>
</svg>
