<svg width="31" height="30" viewBox="0 0 31 30" fill="none" xmlns="http://www.w3.org/2000/svg">
<path d="M30.5909 23.1833C30.5546 23.0975 30.5207 23.0264 30.4893 22.9694C29.9688 21.9425 28.9741 20.6821 27.5059 19.1877L27.4749 19.1535L27.4593 19.1367L27.4436 19.1195H27.4279C26.7615 18.4236 26.3395 17.9558 26.1628 17.7162C25.8395 17.2599 25.7671 16.798 25.9438 16.33C26.0686 15.9764 26.5376 15.2297 27.3496 14.0888C27.7767 13.4842 28.1149 12.9996 28.3647 12.6345C30.1664 10.0107 30.9474 8.33412 30.7078 7.60398L30.6148 7.43336C30.5522 7.33064 30.3908 7.23667 30.1308 7.15097C29.8702 7.06545 29.537 7.05131 29.1308 7.1083L24.6325 7.14234C24.5596 7.11405 24.4555 7.11669 24.32 7.15097C24.1846 7.18525 24.1168 7.20245 24.1168 7.20245L24.0385 7.2453L23.9764 7.29678C23.9243 7.33082 23.867 7.39069 23.8045 7.47627C23.7423 7.56155 23.6903 7.66164 23.6487 7.77568C23.1589 9.15594 22.6021 10.4392 21.9772 11.6255C21.5919 12.3329 21.238 12.9459 20.9148 13.4649C20.5921 13.9838 20.3214 14.3661 20.1029 14.6112C19.884 14.8565 19.6865 15.053 19.5092 15.2014C19.3321 15.3499 19.1969 15.4127 19.1033 15.3897C19.0095 15.3668 18.9211 15.344 18.8375 15.3212C18.6918 15.2185 18.5746 15.0788 18.4862 14.902C18.3975 14.7252 18.3377 14.5027 18.3065 14.2346C18.2754 13.9664 18.257 13.7356 18.2518 13.5416C18.2469 13.3479 18.2492 13.0738 18.2597 12.7202C18.2706 12.3665 18.2754 12.1271 18.2754 12.0016C18.2754 11.5681 18.2831 11.0976 18.2986 10.59C18.3144 10.0823 18.3271 9.68015 18.3378 9.38386C18.3484 9.08726 18.3533 8.77347 18.3533 8.44265C18.3533 8.11184 18.335 7.8524 18.2986 7.66409C18.2627 7.47603 18.2076 7.29349 18.135 7.11651C18.062 6.93972 17.9551 6.80296 17.8148 6.70587C17.6743 6.6089 17.4996 6.53195 17.2916 6.47478C16.7396 6.33796 16.0368 6.26394 15.1827 6.25243C13.246 6.22966 12.0015 6.36666 11.4496 6.66326C11.231 6.78857 11.0331 6.95979 10.8562 7.17638C10.6687 7.42743 10.6425 7.56443 10.7779 7.58696C11.4028 7.68951 11.8451 7.9348 12.1055 8.32261L12.1993 8.52811C12.2723 8.67638 12.3452 8.93887 12.4181 9.31524C12.4909 9.6916 12.5379 10.1079 12.5586 10.564C12.6106 11.3969 12.6106 12.1098 12.5586 12.7029C12.5065 13.2962 12.4572 13.7581 12.4102 14.0889C12.3632 14.4197 12.293 14.6878 12.1993 14.893C12.1055 15.0983 12.0431 15.2238 12.0118 15.2694C11.9805 15.3149 11.9545 15.3436 11.9338 15.3549C11.7985 15.4117 11.6577 15.4407 11.512 15.4407C11.3661 15.4407 11.1892 15.3607 10.981 15.2009C10.7728 15.0412 10.5567 14.8217 10.3328 14.5422C10.1089 14.2626 9.85637 13.8719 9.57511 13.3701C9.29407 12.8682 9.00247 12.2751 8.70048 11.5907L8.45063 11.0943C8.29444 10.775 8.08107 10.3101 7.81032 9.69993C7.5394 9.08954 7.29994 8.4991 7.09177 7.92875C7.00856 7.68921 6.88355 7.50684 6.71696 7.38134L6.63879 7.32986C6.58681 7.28432 6.50338 7.23595 6.38893 7.18441C6.27432 7.13293 6.15472 7.09601 6.02966 7.0733L1.74986 7.10734C1.31251 7.10734 1.01577 7.21588 0.859527 7.43264L0.796995 7.53518C0.765756 7.5923 0.75 7.68351 0.75 7.80907C0.75 7.93456 0.781239 8.08858 0.843771 8.27095C1.46854 9.87948 2.14797 11.4308 2.88205 12.9251C3.61613 14.4194 4.25404 15.6231 4.79538 16.5351C5.33683 17.4478 5.88873 18.3092 6.45108 19.1188C7.01343 19.9288 7.38567 20.4478 7.56779 20.6759C7.75014 20.9043 7.89337 21.0751 7.99748 21.1892L8.38804 21.5998C8.63795 21.8736 9.00494 22.2015 9.48916 22.5836C9.9735 22.9659 10.5097 23.3422 11.098 23.7133C11.6865 24.0837 12.3711 24.386 13.1521 24.6198C13.9331 24.8538 14.6932 24.9477 15.4326 24.9024H17.2289C17.5932 24.868 17.8692 24.7425 18.0568 24.5259L18.119 24.4401C18.1608 24.372 18.1999 24.2663 18.236 24.1239C18.2725 23.9813 18.2907 23.8243 18.2907 23.6534C18.28 23.163 18.3141 22.721 18.392 22.3275C18.4699 21.9341 18.5586 21.6375 18.6578 21.4378C18.757 21.2382 18.869 21.0698 18.9935 20.9333C19.1184 20.7965 19.2073 20.7136 19.2595 20.6851C19.3114 20.6563 19.3528 20.6369 19.384 20.6252C19.634 20.534 19.9281 20.6223 20.2668 20.8906C20.6053 21.1587 20.9228 21.4897 21.2197 21.8831C21.5165 22.2768 21.8731 22.7185 22.2896 23.209C22.7063 23.6995 23.0706 24.0642 23.3829 24.3041L23.6952 24.5094C23.9037 24.6464 24.1745 24.7719 24.5078 24.886C24.8405 25 25.132 25.0285 25.3822 24.9715L29.3807 24.9032C29.7762 24.9032 30.084 24.8315 30.3023 24.6891C30.521 24.5465 30.6509 24.3895 30.6928 24.2186C30.7346 24.0476 30.7369 23.8535 30.7008 23.6366C30.6637 23.4202 30.6272 23.2688 30.5909 23.1833Z" fill="#45668E"/>
</svg>
