<svg width="29" height="30" viewBox="0 0 29 30" fill="none" xmlns="http://www.w3.org/2000/svg">
<path d="M13.6884 20.3134C11.6227 20.1032 9.76025 19.6068 8.16567 18.3898C7.96781 18.2384 7.76353 18.0925 7.58298 17.9234C6.88503 17.2693 6.81471 16.5202 7.36698 15.7482C7.83944 15.0876 8.63255 14.9109 9.45691 15.2902C9.61654 15.3638 9.76863 15.4555 9.9143 15.5541C12.8861 17.5465 16.9685 17.6015 19.9515 15.6437C20.247 15.4226 20.5629 15.2423 20.929 15.1503C21.6409 14.9719 22.3048 15.2271 22.6869 15.8348C23.1234 16.5289 23.1178 17.2064 22.58 17.7453C21.7551 18.5715 20.763 19.1692 19.6607 19.5863C18.6184 19.9806 17.4767 20.1791 16.3468 20.3109C16.5173 20.492 16.5977 20.581 16.7043 20.6856C18.2386 22.1898 19.7796 23.6877 21.3089 25.1966C21.8299 25.7107 21.9387 26.3481 21.6518 26.9461C21.3382 27.5996 20.636 28.0296 19.9476 27.9836C19.5114 27.9541 19.1712 27.7423 18.869 27.4452C17.7111 26.3084 16.5315 25.1925 15.3971 24.0341C15.067 23.6973 14.9082 23.761 14.6168 24.0534C13.452 25.2235 12.2682 26.3756 11.0774 27.5212C10.5428 28.0356 9.90649 28.1281 9.2864 27.8343C8.62725 27.5225 8.20781 26.866 8.24018 26.2062C8.26251 25.7599 8.48743 25.419 8.80138 25.1132C10.3198 23.6338 11.834 22.1506 13.3488 20.6687C13.449 20.5702 13.5424 20.4656 13.6884 20.3134Z" fill="#F2720C"/>
<path d="M14.9467 15.1601C11.2616 15.1478 8.2399 12.1669 8.26139 8.56548C8.2826 4.92427 11.3063 1.98995 15.0276 2.00003C18.7565 2.00983 21.7495 4.98635 21.7308 8.66542C21.7118 12.2595 18.6692 15.1726 14.9467 15.1601ZM18.2958 8.57419C18.2894 6.78599 16.8298 5.3624 15.0008 5.36077C13.1565 5.35886 11.6839 6.80832 11.6981 8.61286C11.7118 10.3943 13.1838 11.8078 15.0179 11.8012C16.8463 11.795 18.3019 10.3621 18.2958 8.57419Z" fill="#F2720C"/>
</svg>
