<svg width="50" height="50" viewBox="0 0 50 50" fill="none" xmlns="http://www.w3.org/2000/svg">
<path d="M32.5 30.7663C32.0685 30.7663 31.7187 31.1258 31.7187 31.5688C31.7187 32.0117 32.0685 32.3713 32.5 32.3713C32.9312 32.3713 33.2812 32.0117 33.2812 31.5688C33.2812 31.1258 32.9312 30.7663 32.5 30.7663Z" fill="#2E2E2E"/>
<path d="M25.7812 16.6425C25.7812 16.1993 25.4312 15.84 25 15.84C24.5688 15.84 24.2188 16.1993 24.2188 16.6425C24.2188 17.0855 24.5688 17.445 25 17.445C25.4312 17.445 25.7812 17.0855 25.7812 16.6425Z" fill="#2E2E2E"/>
<path d="M17.5 32.3713C17.9312 32.3713 18.2813 32.0117 18.2813 31.5688C18.2813 31.1258 17.9312 30.7663 17.5 30.7663C17.0688 30.7663 16.7188 31.1258 16.7188 31.5688C16.7188 32.0117 17.0688 32.3713 17.5 32.3713Z" fill="#2E2E2E"/>
<path d="M44.5358 36.1847L40.3122 34.2572V16.6425C40.3122 16.3247 40.1269 16.0303 39.8324 15.9018L25.7812 9.694V3.8025C25.7812 3.35925 25.4312 3 25 3C24.5685 3 24.2188 3.35925 24.2188 3.8025V9.694L10.1676 15.9018C9.88834 16.0209 9.68784 16.3115 9.68784 16.6425V34.2572L5.46421 36.1847C5.06992 36.365 4.89231 36.839 5.06748 37.244C5.24143 37.6465 5.70164 37.8327 6.09867 37.6515L10.474 35.6547L24.6915 41.9358C24.8795 42.0189 25.1093 42.0239 25.3088 41.9358L39.526 35.6547L43.9013 37.6515C44.2999 37.8333 44.7592 37.6449 44.9325 37.244C45.1077 36.839 44.9301 36.365 44.5358 36.1847ZM24.2188 11.4413V13.4325C24.2188 13.8755 24.5685 14.235 25 14.235C25.4312 14.235 25.7812 13.8755 25.7812 13.4325V11.4413L37.5537 16.6425L25 22.1889L12.4463 16.6425L24.2188 11.4413ZM15.3586 32.5468C15.1831 32.1418 14.7214 31.9597 14.3274 32.1393L11.25 33.544V17.861L24.2188 23.5908V39.98L12.4192 34.7669L14.9619 33.6064C15.3562 33.4261 15.5338 32.9518 15.3586 32.5468ZM25.7812 39.98V23.5908L38.7497 17.861V33.544L35.6726 32.1396C35.278 31.9597 34.8166 32.1418 34.6414 32.5471C34.4662 32.9522 34.6438 33.4261 35.0381 33.6064L37.5808 34.7669L25.7812 39.98Z" fill="#2E2E2E"/>
</svg>
