<svg width="50" height="50" viewBox="0 0 50 50" fill="none" xmlns="http://www.w3.org/2000/svg">
<path d="M5.68348 45H38.4834C38.8609 45 39.1669 44.6941 39.1669 44.3168V38.1666H43.95C44.3275 38.1666 44.6335 37.8607 44.6335 37.4834V30.6498C44.6335 30.2725 44.3275 29.9666 43.95 29.9666H39.1669V23.8164C39.1669 23.4388 38.8609 23.1329 38.4834 23.1329H37.2293C37.3257 22.6862 37.2237 22.2195 36.95 21.8535L33.8623 17.7375L35.2881 16.668C35.9215 16.1938 36.2753 15.4336 36.2306 14.6435L36.1621 13.4129C36.1433 13.0791 36.2928 12.7582 36.5603 12.5576L37.9857 11.4885L38.5857 12.288C38.6942 12.4328 38.8559 12.5289 39.0355 12.5545C39.0674 12.5589 39.0996 12.5614 39.1321 12.5611C39.2801 12.5614 39.424 12.5132 39.5422 12.4244L45.1803 8.19486C46.0855 7.51575 46.2691 6.23103 45.59 5.32544L45.2103 4.81868C44.5302 3.91434 43.2462 3.73135 42.3403 4.40952L36.7029 8.63874C36.401 8.86522 36.3397 9.29377 36.5662 9.59563L37.1658 10.3952L35.7404 11.4647C35.107 11.9389 34.7529 12.6987 34.7979 13.4889L34.8661 14.7195C34.8852 15.0533 34.7357 15.3745 34.4682 15.5747L33.0428 16.6442L29.9547 12.5282C29.6316 12.0906 29.1067 11.8494 28.564 11.8892C28.0463 11.9267 27.5837 12.227 27.3381 12.6847L21.7232 23.1329H5.68348C5.30592 23.1329 5 23.4388 5 23.8164V30.6498C5 31.0273 5.30592 31.3332 5.68348 31.3332H10.4666V36.7999H5.68348C5.30592 36.7999 5 37.1059 5 37.4834V44.3168C5 44.6941 5.30592 45 5.68348 45ZM43.1605 5.50249C43.462 5.27601 43.8902 5.33701 44.117 5.63887L44.4968 6.14563C44.7229 6.44749 44.6616 6.87542 44.3601 7.1019L39.2685 10.9216L38.0689 9.32192L43.1605 5.50249ZM17.3002 38.1666H26.8667V43.6333H17.3002V38.1666ZM22.7668 31.3332H32.3333V36.7999H22.7668V31.3332ZM37.8002 43.6333H28.2334V38.1666H37.8002V43.6333ZM43.2668 36.7999H33.7V31.3332H43.2668V36.7999ZM37.8002 29.9666H28.2334V25.9873L35.2277 24.4996H37.8002V29.9666ZM28.5424 13.3322C28.5656 13.2843 28.6137 13.2537 28.6669 13.2521L28.6804 13.2515C28.7529 13.2527 28.8202 13.2887 28.8615 13.3481L31.9489 17.4641L29.1299 19.579C28.828 19.8055 28.7667 20.2337 28.9932 20.5359C29.2196 20.8378 29.6479 20.8988 29.95 20.6726L32.769 18.5577L35.8568 22.6737C35.9059 22.7337 35.9203 22.8148 35.8943 22.8876C35.878 22.9383 35.8352 22.9755 35.7826 22.9849L22.2259 25.8678C22.1418 25.8809 22.0573 25.845 22.0088 25.7749C21.9544 25.7092 21.9435 25.6179 21.9807 25.5409L28.5424 13.3322ZM20.9159 26.5951C21.28 27.0959 21.905 27.3346 22.5103 27.2044L26.8667 26.2779V29.9666H17.3002V24.4996H20.9885L20.7767 24.8937C20.4839 25.4389 20.5386 26.1049 20.9159 26.5951ZM6.36665 27.2332H7.7333C8.11086 27.2332 8.41678 26.9273 8.41678 26.5497C8.41678 26.1725 8.11086 25.8665 7.7333 25.8665H6.36665V24.4996H15.9335V29.9666H6.36665V27.2332ZM11.8332 31.3332H21.4001V36.7999H11.8332V31.3332ZM6.36665 38.1666H15.9335V43.6333H6.36665V38.1666Z" fill="#2E2E2E"/>
<path d="M13.8834 26.5497C13.8834 26.1725 13.5775 25.8665 13.1999 25.8665H10.4666C10.0894 25.8665 9.78343 26.1725 9.78343 26.5497C9.78343 26.9273 10.0894 27.2332 10.4666 27.2332H13.1999C13.5775 27.2332 13.8834 26.9273 13.8834 26.5497Z" fill="#2E2E2E"/>
</svg>
