<svg width="50" height="50" viewBox="0 0 50 50" fill="none" xmlns="http://www.w3.org/2000/svg">
<path d="M25.8821 33.4286C25.4864 33.4286 25.1656 33.7484 25.1656 34.1429V35.6665C25.1656 36.061 25.4864 36.3808 25.8821 36.3808C26.2779 36.3808 26.5987 36.061 26.5987 35.6665V34.1429C26.5987 33.7484 26.2779 33.4286 25.8821 33.4286Z" fill="#2E2E2E"/>
<path d="M47.5662 23.1941C47.2865 22.9154 46.9148 22.7619 46.5192 22.7619L44.6795 22.7621C44.6562 22.7621 44.6402 22.736 44.6353 22.7118C44.1297 20.2396 42.9958 17.909 41.3561 15.9717C39.7712 14.0993 37.7414 12.6267 35.478 11.7018C35.1129 10.1654 34.342 8.58143 32.8217 7.39071C31.3499 6.23792 29.8675 6.01608 29.8052 6.00715C29.5999 5.97797 29.3914 6.03895 29.2344 6.17466C29.0774 6.31037 28.9873 6.50715 28.9873 6.71426V10.5714H26.3868C25.7442 8.37327 23.7062 6.76192 21.2963 6.76192C18.8353 6.76192 16.7609 8.44204 16.1656 10.7119C12.6225 11.193 9.36284 12.904 6.94409 15.5643C4.40071 18.362 3 21.9835 3 25.7619C3 34.2428 7.41694 41.1433 8.77081 43.0562C9.18899 43.6471 9.87393 44 10.603 44H13.6529C14.8909 44 15.8981 42.996 15.8981 41.7619V40.7732C16.6699 40.8916 17.454 40.9524 18.2389 40.9524H25.1657V41.7619C25.1657 42.996 26.1729 44 27.4109 44H30.761C31.8127 44 32.736 43.2559 32.9564 42.2309L33.3241 40.5203C38.0336 39.3771 41.8202 36.0836 43.684 31.8097H46.5191C47.3357 31.8097 48 31.1475 48 30.3335V24.2382C48 23.8437 47.846 23.473 47.5662 23.1941ZM21.2962 8.1906C23.4298 8.1906 25.1656 9.92092 25.1656 12.0478C25.1656 12.5917 25.0488 13.1274 24.8287 13.6192H17.7636C17.5436 13.1272 17.4267 12.5917 17.4267 12.0478C17.4267 9.92084 19.1626 8.1906 21.2962 8.1906ZM46.5669 30.3333C46.5669 30.3596 46.5455 30.381 46.519 30.381H44.2226C44.613 29.1628 44.8532 27.8818 44.9219 26.5608C44.9425 26.1669 44.6386 25.8309 44.2434 25.8105C43.8481 25.7905 43.5112 26.0928 43.4907 26.4868C43.1871 32.3211 39.2036 37.3024 33.6617 38.9497L34.6629 34.2927C34.7458 33.907 34.4993 33.5273 34.1123 33.4447C33.7256 33.3618 33.3444 33.6077 33.2615 33.9935L31.555 41.9314C31.4753 42.3022 31.1413 42.5713 30.761 42.5713H27.4107C26.9629 42.5713 26.5986 42.2082 26.5986 41.7618V38.7141C26.5986 38.3196 26.2778 37.9998 25.8821 37.9998C25.4863 37.9998 25.1655 38.3196 25.1655 38.7141V39.5237H18.2387C17.4526 39.5237 16.6678 39.4563 15.8979 39.3255V34.1428C15.8979 33.7483 15.5771 33.4285 15.1814 33.4285C14.7856 33.4285 14.4648 33.7483 14.4648 34.1428V41.7619C14.4648 42.2083 14.1005 42.5714 13.6527 42.5714H10.603C10.3351 42.5714 10.0941 42.448 9.94187 42.2327C8.64961 40.4066 4.43314 33.8223 4.43314 25.7619C4.43314 22.3387 5.70202 19.0578 8.00599 16.5237C10.1145 14.2043 12.9278 12.6816 15.9959 12.1816C16.0083 12.671 16.0888 13.155 16.2333 13.619H15.9458C15.5501 13.619 15.2293 13.9388 15.2293 14.3333C15.2293 14.7278 15.5501 15.0476 15.9458 15.0476H26.6465C27.0423 15.0476 27.3631 14.7278 27.3631 14.3333C27.3631 13.9388 27.0423 13.619 26.6465 13.619H26.359C26.5168 13.1127 26.5987 12.5827 26.5987 12.0476C26.5987 12.0316 26.5977 12.0159 26.5975 11.9999H28.9872V13.5713C28.9872 13.9659 29.308 14.2856 29.7038 14.2856C30.0996 14.2856 30.4204 13.9659 30.4204 13.5713V7.65214C31.78 8.16502 34.3376 9.74036 34.3376 14.3334C34.3376 14.7279 34.6584 15.0477 35.0541 15.0477C35.4499 15.0477 35.7707 14.7279 35.7707 14.3334C35.7707 14.0308 35.7597 13.7113 35.7346 13.381C37.4631 14.2204 39.0139 15.4199 40.2608 16.8931C41.7461 18.6481 42.7732 20.7588 43.2311 22.9973C43.3725 23.689 43.9817 24.1909 44.6798 24.1908L46.5192 24.1906C46.5241 24.1906 46.539 24.1906 46.553 24.2046C46.5669 24.2185 46.5669 24.2332 46.5669 24.2382L46.5669 30.3333Z" fill="#2E2E2E"/>
<path d="M40.3114 23.2267C39.8667 22.0373 38.6894 21.2381 37.3823 21.2381C36.0751 21.2381 34.898 22.0372 34.453 23.2267C34.3147 23.5964 34.5033 24.0077 34.8741 24.1455C35.245 24.2835 35.6576 24.0954 35.7958 23.7258C36.0327 23.0923 36.6703 22.6667 37.3822 22.6667C38.0941 22.6667 38.7318 23.0923 38.9686 23.7258C39.0761 24.0132 39.3495 24.1907 39.6401 24.1907C39.7233 24.1907 39.8079 24.1762 39.8903 24.1455C40.2611 24.0077 40.4497 23.5963 40.3114 23.2267Z" fill="#2E2E2E"/>
<path d="M23.6979 26.7188C26.6347 26.7188 28 24.9668 28 22.8594C28 20.752 26.6347 19 23.6979 19H19.0867V25.3223H17V26.7188H19.0867V27.9375H17V29.334H19.0867V32H20.6838V29.334H23.5948V27.9375H20.6838V26.7188H23.6979ZM20.6838 25.3223V20.3965H23.6979C25.5527 20.3965 26.4286 21.4375 26.4286 22.8594C26.4286 24.2812 25.5527 25.3223 23.6979 25.3223H20.6838Z" fill="#2E2E2E"/>
</svg>
