<svg width="50" height="50" viewBox="0 0 50 50" fill="none" xmlns="http://www.w3.org/2000/svg">
<path fill-rule="evenodd" clip-rule="evenodd" d="M4.46967 4.46967C4.76256 4.17678 5.23744 4.17678 5.53033 4.46967L45.5303 44.4697C45.8232 44.7626 45.8232 45.2374 45.5303 45.5303C45.2374 45.8232 44.7626 45.8232 44.4697 45.5303L4.46967 5.53033C4.17678 5.23744 4.17678 4.76256 4.46967 4.46967Z" fill="#2E2E2E"/>
<path fill-rule="evenodd" clip-rule="evenodd" d="M11.8693 15.0513C10.1041 15.4161 8.2504 15.7367 6.3249 15.9894C5.62695 16.0811 5.02764 16.4593 4.64014 16.9933H2.45303C1.10039 16.9934 0 18.0908 0 19.4397V24.4364C0 25.7853 1.10039 26.8827 2.45303 26.8827H4.64033C5.02773 27.4166 5.62715 27.795 6.325 27.8865C6.42304 27.8995 6.52054 27.9129 6.61811 27.9263L6.69834 27.9373L10.5448 41.7467C10.8387 42.8015 11.8105 43.5383 12.9084 43.5383H17.4815L17.4841 43.5385L17.4871 43.5383H18.3195C18.7519 43.5383 19.1024 43.1887 19.1024 42.7575C19.1024 42.3263 18.752 41.9767 18.3195 41.9767H18.0796L14.5863 29.4363C22.8 31.4322 28.6473 34.2019 30.1154 34.9343C30.3492 36.0419 31.3365 36.876 32.5157 36.876H33.6941L29.9269 33.1089C26.7232 31.6032 17.8308 27.8219 6.5292 26.3385C6.07979 26.2795 5.74102 25.902 5.74102 25.4603V18.4157C5.74102 17.9741 6.07988 17.5966 6.5292 17.5376C8.85979 17.2317 11.0879 16.8281 13.1849 16.3668L11.8693 15.0513ZM2.45303 25.3211H4.17539V18.5547H2.45303C1.96377 18.5547 1.56572 18.9517 1.56572 19.4396V24.4363C1.56572 24.9242 1.96377 25.3211 2.45303 25.3211ZM12.9084 41.9767H16.4544L12.8492 29.0344C11.4229 28.7208 9.93447 28.4342 8.39307 28.188L12.0536 41.3287C12.1599 41.7103 12.5113 41.9767 12.9084 41.9767Z" fill="#2E2E2E"/>
<path d="M30.0625 26.8805L31.6283 28.4463V16.1089C31.6283 15.6778 31.2778 15.3281 30.8454 15.3281C30.413 15.3281 30.0625 15.6777 30.0625 16.1089V26.8805Z" fill="#2E2E2E"/>
<path d="M35.9081 32.7261V9.44629C35.9081 8.95838 35.5101 8.56142 35.0208 8.56142H32.5156C32.0264 8.56142 31.6283 8.95838 31.6283 9.44629V12.7777C31.6283 13.209 31.2778 13.5585 30.8454 13.5585C30.413 13.5585 30.0625 13.2089 30.0625 12.7777V10.7033C28.143 11.6122 23.9342 13.4558 18.263 15.081L16.9976 13.8156C23.935 11.9064 28.7953 9.60032 30.1153 8.94172C30.3492 7.83413 31.3364 7 32.5156 7H35.0209C36.3735 7 37.4739 8.09737 37.4739 9.44629V34.2919L35.9081 32.7261Z" fill="#2E2E2E"/>
<path d="M40.8663 21.1573H49.2171C49.6495 21.1573 50 21.5068 50 21.9381C50 22.3693 49.6494 22.7188 49.2171 22.7188H40.8663C40.4339 22.7188 40.0834 22.3692 40.0834 21.9381C40.0834 21.5068 40.434 21.1573 40.8663 21.1573Z" fill="#2E2E2E"/>
<path d="M47.4314 13.3027C47.2611 12.9063 46.8009 12.7228 46.4035 12.8927L45.5684 13.2496C45.171 13.4194 44.9868 13.8784 45.1572 14.2747C45.2845 14.5708 45.5735 14.748 45.8772 14.748C45.9801 14.748 46.0847 14.7277 46.1852 14.6847L47.0203 14.3278C47.4177 14.1579 47.6018 13.699 47.4314 13.3027Z" fill="#2E2E2E"/>
<path d="M43.0632 14.3203C43.4605 14.1504 43.9208 14.334 44.0911 14.7303C44.2615 15.1266 44.0773 15.5855 43.68 15.7554L41.1748 16.8262C41.0743 16.8691 40.9697 16.8895 40.8668 16.8895C40.5632 16.8895 40.2741 16.7121 40.1469 16.4162C39.9765 16.0199 40.1606 15.5609 40.558 15.3911L43.0632 14.3203Z" fill="#2E2E2E"/>
<path d="M47.0202 29.5482L46.1827 29.1903C45.7854 29.0203 45.3251 29.204 45.1548 29.6003C44.9845 29.9965 45.1686 30.4555 45.5659 30.6254L46.4034 30.9833C46.5039 31.0262 46.6085 31.0466 46.7114 31.0466C47.0152 31.0466 47.3041 30.8692 47.4313 30.5732C47.6018 30.177 47.4178 29.718 47.0202 29.5482Z" fill="#2E2E2E"/>
<path d="M41.1748 27.0499L43.6788 28.1201C44.0762 28.2899 44.2603 28.7489 44.0899 29.1452C43.9627 29.4411 43.6738 29.6185 43.37 29.6185C43.2671 29.6185 43.1625 29.5981 43.062 29.5552L40.558 28.485C40.1606 28.3151 39.9766 27.8562 40.1469 27.4599C40.3171 27.0636 40.7774 26.8801 41.1748 27.0499Z" fill="#2E2E2E"/>
</svg>
