<svg width="50" height="50" viewBox="0 0 50 50" fill="none" xmlns="http://www.w3.org/2000/svg">
<g clip-path="url(#clip0)">
<path d="M34.0154 34.1527C33.609 34.0594 33.2032 34.312 33.1095 34.7167L32.2351 38.4958H26.0345V38.5224C26.5459 38.9039 26.9587 39.4117 27.2255 40H32.8364C33.1884 40 33.4937 39.7581 33.5728 39.4167L34.5822 35.0544C34.6758 34.6496 34.4222 34.2459 34.0154 34.1527Z" fill="#2E2E2E"/>
<path d="M12.3467 9.44874H25.3424C25.7597 9.44874 26.098 9.11202 26.098 8.69668C26.098 8.28134 25.7597 7.94461 25.3424 7.94461H12.3467C11.9294 7.94461 11.5911 8.28134 11.5911 8.69668C11.5911 9.11202 11.9294 9.44874 12.3467 9.44874Z" fill="#2E2E2E"/>
<path d="M23.9824 13.0584H10.9867C10.5694 13.0584 10.2311 12.7217 10.2311 12.3064C10.2311 11.891 10.5694 11.5543 10.9867 11.5543H23.9824C24.3997 11.5543 24.738 11.891 24.738 12.3064C24.738 12.7217 24.3997 13.0584 23.9824 13.0584Z" fill="#2E2E2E"/>
<path d="M27.7748 10.1639C27.8278 10.4276 28.0183 10.6431 28.2743 10.729C28.3533 10.7555 28.4347 10.7685 28.5156 10.7685C28.697 10.7685 28.8755 10.7034 29.0156 10.5803L31.5845 8.32426C31.8975 8.0495 31.9273 7.5742 31.6511 7.26275C31.3751 6.95139 30.8976 6.92161 30.5846 7.19646L28.9994 8.58868L28.9544 8.36487C28.8725 7.95765 28.475 7.69343 28.0653 7.77495C27.656 7.85647 27.3908 8.25266 27.4726 8.65998L27.7748 10.1639Z" fill="#2E2E2E"/>
<path fill-rule="evenodd" clip-rule="evenodd" d="M7.98007 24.893L6.01929 16.4196C5.9936 16.3085 5.9936 16.193 6.01929 16.082L8.68001 4.5833C8.75909 4.24186 9.06435 4 9.41636 4H35.4973C35.7275 4 35.9453 4.10439 36.0885 4.28378C36.2318 4.46317 36.2853 4.69761 36.2336 4.92093L33.6119 16.2507L34.8215 21.4784C34.9152 21.8831 34.6615 22.2868 34.2548 22.3801C33.8482 22.4734 33.4426 22.2209 33.3489 21.816L32.2352 17.0028H7.70498L9.16428 23.3092C8.64162 23.7202 8.22949 24.2656 7.98007 24.893ZM10.0177 5.50432H34.5479L32.2352 15.4987H7.70498L10.0177 5.50432Z" fill="#2E2E2E"/>
<path d="M17.9285 24.557C17.6084 23.9364 17.122 23.4153 16.5285 23.0528H25.3424C25.7597 23.0528 26.098 23.3896 26.098 23.8049C26.098 24.2202 25.7597 24.557 25.3424 24.557H17.9285Z" fill="#2E2E2E"/>
<path d="M21.2921 26.9972C21.849 27.4545 22.3689 27.9577 22.8443 28.5014H28.7056C29.1229 28.5014 29.4612 28.1646 29.4612 27.7493C29.4612 27.334 29.1229 26.9972 28.7056 26.9972H21.2921Z" fill="#2E2E2E"/>
<path d="M25.2122 32.4458C25.018 31.9317 24.7903 31.4296 24.5298 30.9417H25.3424C25.7597 30.9417 26.098 31.2784 26.098 31.6937C26.098 32.1091 25.7597 32.4458 25.3424 32.4458H25.2122Z" fill="#2E2E2E"/>
<path d="M24.7379 20.1952C24.7379 19.7799 24.3996 19.4431 23.9823 19.4431H10.9867C10.5694 19.4431 10.2311 19.7799 10.2311 20.1952C10.2311 20.6105 10.5694 20.9473 10.9867 20.9473H23.9824C24.3996 20.9473 24.7379 20.6105 24.7379 20.1952Z" fill="#2E2E2E"/>
<path d="M28.666 22.4311C28.6285 22.4367 28.5911 22.4395 28.5538 22.4395C28.3255 22.4395 28.1069 22.3364 27.9623 22.1554L27.0034 20.9546C26.7437 20.6294 26.7981 20.1563 27.1247 19.8979C27.4514 19.6394 27.9267 19.6935 28.1864 20.0186L28.3291 20.1973L29.1007 18.2381C29.2531 17.8515 29.6914 17.6607 30.08 17.8125C30.4685 17.9641 30.66 18.4005 30.5077 18.7871L29.2573 21.9618C29.1588 22.2122 28.9332 22.3912 28.666 22.4311Z" fill="#2E2E2E"/>
<path d="M28.6364 26.0341C28.781 26.2151 28.9995 26.3182 29.2278 26.3182C29.265 26.3182 29.3025 26.3155 29.34 26.3099C29.6072 26.27 29.8328 26.091 29.9313 25.8406L31.1817 22.6659C31.334 22.2792 31.1425 21.8428 30.754 21.6912C30.3653 21.5394 29.9271 21.7302 29.7747 22.1169L29.0031 24.076L28.8603 23.8974C28.6007 23.5723 28.1255 23.5181 27.7987 23.7766C27.4721 24.035 27.4177 24.5081 27.6774 24.8333L28.6364 26.0341Z" fill="#2E2E2E"/>
<path fill-rule="evenodd" clip-rule="evenodd" d="M45.9428 13.9344L49.7955 18.0221C50.081 18.3251 50.0657 18.801 49.7614 19.0851L35.3239 32.5653C35.2314 32.6518 35.1184 32.7136 34.9955 32.7451L29.3222 34.1999C29.2597 34.2158 29.1964 34.2237 29.1337 34.2237C28.9276 34.2237 28.7274 34.1396 28.5826 33.9861C28.3937 33.7858 28.3296 33.499 28.4155 33.2379L30.2361 27.6955C30.2755 27.5753 30.3447 27.4671 30.4373 27.3807L44.8748 13.9004C45.021 13.7641 45.2146 13.6917 45.4159 13.6973C45.6162 13.7037 45.8057 13.7889 45.9428 13.9344ZM31.2761 29.3698L30.2803 32.401L33.3831 31.6053L31.2761 29.3698ZM32.0224 27.9631L34.8411 30.9538L48.1765 18.5027L45.3577 15.512L32.0224 27.9631Z" fill="#2E2E2E"/>
<path d="M24.5345 39.4018V36.9799C24.5345 34.4659 23.7239 32.0765 22.1903 30.0698C20.8291 28.2886 18.9469 26.9226 16.8455 26.1788C16.787 24.9675 15.7834 24 14.5578 24H11.5037C10.2782 24 9.2745 24.9675 9.21601 26.1788C7.1146 26.9226 5.23246 28.2886 3.87121 30.0698C2.33765 32.0765 1.52704 34.4659 1.52704 36.9799V39.4018C0.638355 39.7169 0 40.5656 0 41.561C0 42.824 1.02755 43.8516 2.29057 43.8516H23.771C25.034 43.8516 26.0615 42.824 26.0615 41.561C26.0615 40.5656 25.4232 39.7169 24.5345 39.4018ZM3.05409 36.9799C3.05409 34.2266 4.23022 31.6491 6.15907 29.8101V32.3987C6.15907 32.8204 6.50093 33.1623 6.9226 33.1623C7.34426 33.1623 7.68612 32.8204 7.68612 32.3987V28.6125C8.16724 28.3054 8.67753 28.0375 9.21316 27.8145V33.9258C9.21316 34.3475 9.55501 34.6893 9.97668 34.6893C10.3984 34.6893 10.7402 34.3475 10.7402 33.9258V26.7452C10.7403 26.7431 10.7402 26.741 10.7402 26.739V26.2906C10.7402 25.8696 11.0827 25.527 11.5037 25.527H14.5578C14.9788 25.527 15.3213 25.8696 15.3213 26.2906V26.7388C15.3213 26.7409 15.3213 26.7431 15.3213 26.7453V33.9258C15.3213 34.3475 15.6632 34.6893 16.0849 34.6893C16.5065 34.6893 16.8484 34.3475 16.8484 33.9258V27.8145C17.384 28.0375 17.8943 28.3054 18.3754 28.6125V32.3987C18.3754 32.8204 18.7173 33.1623 19.1389 33.1623C19.5606 33.1623 19.9025 32.8204 19.9025 32.3987V29.8101C21.8313 31.6491 23.0075 34.2266 23.0075 36.9799V39.2704H3.05409V36.9799ZM23.771 42.3245H2.29057C1.86956 42.3245 1.52704 41.982 1.52704 41.561C1.52704 41.14 1.86956 40.7975 2.29057 40.7975H23.771C24.192 40.7975 24.5345 41.14 24.5345 41.561C24.5345 41.982 24.192 42.3245 23.771 42.3245Z" fill="#2E2E2E"/>
</g>
<defs>
<clipPath id="clip0">
<path d="M0 0H50V50H0V0Z" fill="white"/>
</clipPath>
</defs>
</svg>
