<svg width="50" height="50" viewBox="0 0 50 50" fill="none" xmlns="http://www.w3.org/2000/svg">
<path d="M29.9219 32.3828C29.4691 32.3828 29.1016 32.7504 29.1016 33.2031C29.1016 33.6559 29.4691 34.0234 29.9219 34.0234C30.3746 34.0234 30.7422 33.6559 30.7422 33.2031C30.7422 32.7504 30.3746 32.3828 29.9219 32.3828Z" fill="#2E2E2E"/>
<path d="M41.8984 4H8.10156C5.83994 4 4 5.83994 4 8.10156V33.2031C4 35.4648 5.83994 37.3047 8.10156 37.3047H20.8984V41.0781H20.0781C18.9829 41.0781 17.9533 41.5049 17.1782 42.2798C16.4034 43.0549 15.9766 44.0844 15.9766 45.1797C15.9766 45.6328 16.3438 46 16.7969 46H33.2031C33.6562 46 34.0234 45.6328 34.0234 45.1797C34.0234 42.9181 32.1835 41.0781 29.9219 41.0781H29.1016V37.3047H41.8984C44.1601 37.3047 46 35.4648 46 33.2031V8.10156C46 5.83994 44.1601 4 41.8984 4ZM8.10156 5.64062H41.8984C43.2555 5.64062 44.3594 6.74452 44.3594 8.10156V29.1016H40.5859V10.2344C40.5859 9.78128 40.2187 9.41406 39.7656 9.41406H33.2031C32.75 9.41406 32.3828 9.78128 32.3828 10.2344V29.1016H28.2768C28.2681 28.2531 28.246 27.4167 28.2108 26.6054C28.0672 23.2645 27.74 21.0266 27.5699 20.0422C29.2624 18.7961 29.7245 16.4864 28.6898 14.6919L25.8466 9.7675C25.6998 9.51372 25.4291 9.35735 25.1362 9.35735C24.843 9.35735 24.5722 9.51372 24.4258 9.7675L21.5813 14.6923C20.6059 16.3842 20.9516 18.5756 22.4839 19.8689C22.3064 20.8504 21.9482 23.1684 21.7924 26.6038C21.7556 27.4238 21.7322 28.2607 21.7232 29.1016H17.6172V16.7969C17.6172 16.6668 17.5864 16.5482 17.5361 16.4428C17.5339 16.4386 17.5326 16.4341 17.5307 16.43L14.2494 9.86748C14.1104 9.58966 13.8264 9.41406 13.5156 9.41406C13.2048 9.41406 12.9209 9.58966 12.7818 9.86748L9.50058 16.43C9.49866 16.4341 9.49738 16.4386 9.49545 16.4428C9.44418 16.5492 9.41406 16.6697 9.41406 16.7969V29.1016H5.64062V8.10156C5.64062 6.74452 6.74452 5.64062 8.10156 5.64062ZM34.0234 29.1016V11.0547H38.9453V12.6953H38.125C37.6719 12.6953 37.3047 13.0625 37.3047 13.5156C37.3047 13.9687 37.6719 14.3359 38.125 14.3359H38.9453V16.7969H38.125C37.6719 16.7969 37.3047 17.1641 37.3047 17.6172C37.3047 18.0703 37.6719 18.4375 38.125 18.4375H38.9453V20.8984H38.125C37.6719 20.8984 37.3047 21.2657 37.3047 21.7188C37.3047 22.1718 37.6719 22.5391 38.125 22.5391H38.9453V25.8203H38.125C37.6719 25.8203 37.3047 26.1875 37.3047 26.6406C37.3047 27.0937 37.6719 27.4609 38.125 27.4609H38.9453V29.1016H34.0234ZM25.1362 20.8417C25.4342 20.8417 25.7309 20.8074 26.0212 20.7433C26.1734 21.7191 26.3971 23.4456 26.5294 25.8203H23.476C23.6148 23.4472 23.849 21.6938 24.0108 20.685C24.3742 20.7885 24.7526 20.8417 25.1362 20.8417ZM25.1362 19.2011C23.2613 19.2011 22.0523 17.1606 23.0024 15.5123L25.1362 11.8183L27.2687 15.5119C28.2152 17.1535 27.0229 19.2011 25.1362 19.2011ZM23.4007 27.4609H26.6015C26.6188 27.9999 26.6307 28.5482 26.6365 29.1016H23.3639C23.3699 28.5517 23.3824 28.0034 23.4007 27.4609ZM14.3359 29.1016V17.6172H15.9766V29.1016H14.3359ZM11.0547 29.1016V17.6172H12.6953V29.1016H11.0547ZM11.5616 15.9766L13.5156 12.0685L15.4696 15.9766H11.5616ZM32.2421 44.3594H17.7569C17.8774 44.0175 18.0741 43.7041 18.3382 43.4397C18.8034 42.9748 19.4212 42.7188 20.0781 42.7188H29.9219C30.9915 42.7188 31.9038 43.4045 32.2421 44.3594ZM27.4609 41.0781H22.5391V37.3047H27.4609V41.0781ZM41.8984 35.6641H8.10156C6.74452 35.6641 5.64062 34.5602 5.64062 33.2031V30.7422H44.3594V33.2031C44.3594 34.5602 43.2555 35.6641 41.8984 35.6641Z" fill="#2E2E2E"/>
<path d="M26.6406 32.3828H21.7188C21.2657 32.3828 20.8984 32.75 20.8984 33.2031C20.8984 33.6562 21.2657 34.0234 21.7188 34.0234H26.6406C27.0937 34.0234 27.4609 33.6562 27.4609 33.2031C27.4609 32.75 27.0937 32.3828 26.6406 32.3828Z" fill="#2E2E2E"/>
</svg>
