<svg width="50" height="50" viewBox="0 0 50 50" fill="none" xmlns="http://www.w3.org/2000/svg">
<path fill-rule="evenodd" clip-rule="evenodd" d="M17.0828 30.5749C17.0828 29.1549 18.2377 28 19.6577 28H21.0996C21.4528 28 21.7391 28.2863 21.7391 28.6395C21.7391 28.9926 21.4528 29.2789 21.0996 29.2789H19.6577C18.9433 29.2789 18.3617 29.8604 18.3617 30.5749V32.59H18.9891C19.1769 32.59 19.3649 32.6209 19.5436 32.6842C20.1131 32.8861 20.541 33.3867 20.6492 33.9785H27.7928C28.4235 33.9785 29.048 34.1827 29.5606 34.5468V30.5749C29.5606 29.8604 28.979 29.2789 28.2646 29.2789H22.8574C22.5043 29.2789 22.218 28.9926 22.218 28.6395C22.218 28.2863 22.5043 28 22.8574 28H28.2646C29.0359 28 29.7282 28.3412 30.2 28.8792C30.6718 28.3412 31.3641 28 32.1354 28H40.7423C42.1623 28 43.3172 29.1549 43.3172 30.5749V32.59H43.7132C44.6435 32.59 45.4 33.3466 45.4 34.2768V38.8654C45.4 40.6609 43.9574 42.1254 42.1703 42.161L42.5518 43.1872C42.9039 44.1342 42.1835 45.1702 41.1734 45.1702H40.4665C40.0082 45.1702 39.5703 44.9524 39.2938 44.5869L37.4594 42.1617H22.9408L21.1064 44.5868C20.8298 44.9524 20.392 45.1702 19.9336 45.1702H19.2266C18.2177 45.1702 17.496 44.1345 17.8482 43.1872L18.2297 42.161C16.4426 42.1254 15 40.6609 15 38.8654V34.2768C15 33.3466 15.7565 32.59 16.6868 32.59H17.0828V30.5749ZM39.0629 42.1617H40.8061L41.3531 43.6329C41.3982 43.7542 41.3027 43.8913 41.1734 43.8913H40.4665C40.4072 43.8913 40.3494 43.8625 40.3136 43.8153L39.0629 42.1617ZM16.6868 33.8689C16.4621 33.8689 16.2789 34.0521 16.2789 34.2768V38.8654C16.2789 39.9776 17.1841 40.8828 18.2963 40.8828H42.1037C43.2159 40.8828 44.121 39.9776 44.121 38.8654V34.2769C44.121 34.0521 43.9379 33.869 43.7131 33.869H41.4108C41.1861 33.869 41.0029 34.0521 41.0029 34.2769V38.0896C41.0029 38.4428 40.7166 38.7291 40.3634 38.7291H37.9356C37.5824 38.7291 37.2961 38.4428 37.2961 38.0896C37.2961 37.7365 37.5824 37.4502 37.9356 37.4502H39.724V35.2575H32.6072C31.6326 35.2575 30.8395 36.0506 30.8395 37.0252V37.4501H36.1777C36.5309 37.4501 36.8172 37.7364 36.8172 38.0896C36.8172 38.4427 36.5309 38.729 36.1777 38.729H20.0365C19.6834 38.729 19.3971 38.4427 19.3971 38.0896V34.2768C19.3971 34.0521 19.2139 33.8689 18.9891 33.8689H16.6868ZM20.676 35.2575V37.4502H29.5606V37.0253C29.5606 36.0507 28.7674 35.2575 27.7928 35.2575H20.676ZM32.1354 29.279C31.421 29.279 30.8395 29.8605 30.8395 30.575V34.5467C31.3522 34.1834 31.9782 33.9786 32.6072 33.9786H39.7505C39.7722 33.8576 39.8073 33.7388 39.855 33.6254C40.1127 33.0139 40.7454 32.5901 41.4108 32.5901H42.0383V30.5749C42.0383 29.8605 41.4567 29.279 40.7423 29.279H32.1354ZM19.0469 43.6329L19.5939 42.1617H21.3371L20.0864 43.8153C20.0506 43.8626 19.9926 43.8913 19.9332 43.8913H19.2265C19.0969 43.8913 19.0017 43.7543 19.0469 43.6329Z" fill="#2E2E2E"/>
<path fill-rule="evenodd" clip-rule="evenodd" d="M5 11.7462C5 9.68298 6.64892 8 8.68177 8H22.6182C24.651 8 26.2999 9.68298 26.3 11.7462V26.5H24.9356V23.574H20.5766C20.1973 23.574 19.8944 23.2616 19.8944 22.882C19.8944 22.5025 20.1973 22.1901 20.5766 22.1901H24.9356V11.7462C24.9356 10.4412 23.8934 9.38398 22.6182 9.38398H8.68177C7.40663 9.38398 6.36434 10.4413 6.36434 11.7462V22.1901H18.448C18.8273 22.1901 19.1302 22.5025 19.1302 22.882C19.1302 23.2616 18.8273 23.574 18.448 23.574H6.36434V38.9735C6.36434 40.2785 7.40656 41.3358 8.68177 41.3358H14.1856C14.5109 41.8753 14.9394 42.3458 15.4436 42.7198H14.3647V43.2547C14.3647 44.38 13.4653 45.3 12.3538 45.3H10.0106C8.89898 45.3 7.9996 44.38 7.9996 43.2547V42.6552C6.29239 42.3284 5 40.8005 5 38.9735V11.7462ZM9.36394 42.7198V43.2547C9.36394 43.6218 9.65675 43.916 10.0106 43.916H12.3538C12.7076 43.916 13.0004 43.6218 13.0004 43.2547V42.7198H9.36394Z" fill="#2E2E2E"/>
<path fill-rule="evenodd" clip-rule="evenodd" d="M10.1144 10.6271C8.9456 10.6271 7.9996 11.5945 7.9996 12.7782V18.7959C7.9996 19.9795 8.9456 20.947 10.1144 20.947C11.2834 20.947 12.2294 19.9795 12.2294 18.7959V12.7782C12.2294 11.5945 11.2834 10.6271 10.1144 10.6271ZM9.36394 12.7782C9.36394 12.3528 9.70332 12.011 10.1144 12.011C10.5256 12.011 10.865 12.3527 10.865 12.7782V18.7958C10.865 19.2213 10.5257 19.5629 10.1144 19.5629C9.70331 19.5629 9.36394 19.2213 9.36394 18.7958V12.7782Z" fill="#2E2E2E"/>
<path fill-rule="evenodd" clip-rule="evenodd" d="M10.1144 24.4041C8.9456 24.4041 7.9996 25.3716 7.9996 26.5552V37.6319C7.9996 38.8156 8.9456 39.783 10.1144 39.783C11.2834 39.783 12.2294 38.8156 12.2294 37.6319V26.5552C12.2294 25.3716 11.2834 24.4041 10.1144 24.4041ZM9.36394 26.5552C9.36394 26.1298 9.70331 25.7881 10.1144 25.7881C10.5257 25.7881 10.865 26.1298 10.865 26.5552V37.6319C10.865 38.0574 10.5256 38.3991 10.1144 38.3991C9.70332 38.3991 9.36394 38.0574 9.36394 37.6319V26.5552Z" fill="#2E2E2E"/>
</svg>
