<svg width="50" height="50" viewBox="0 0 50 50" fill="none" xmlns="http://www.w3.org/2000/svg">
<path d="M39.7785 14.7948C40.1677 14.7948 40.4833 14.4902 40.4833 14.1145V6.85748C40.4833 5.2819 39.1555 4 37.5235 4H8.95968C7.3277 4 6 5.2819 6 6.85748V43.1426C6 44.7181 7.3277 46 8.95968 46H37.5235C39.1555 46 40.4833 44.7181 40.4833 43.1425V35.8854C40.4833 35.5096 40.1678 35.205 39.7785 35.205C39.3894 35.205 39.0738 35.5096 39.0738 35.8854V43.1425C39.0738 43.9678 38.3783 44.6393 37.5235 44.6393H8.95968C8.10482 44.6393 7.40936 43.9678 7.40936 43.1425V6.85748C7.40936 6.03216 8.10482 5.36073 8.95968 5.36073H37.5235C38.3783 5.36073 39.0738 6.03216 39.0738 6.85748V14.1145C39.0738 14.4902 39.3894 14.7948 39.7785 14.7948Z" fill="#2E2E2E"/>
<path d="M24.745 6.90284H21.7382C21.3491 6.90284 21.0335 7.20742 21.0335 7.58321C21.0335 7.95891 21.349 8.26357 21.7382 8.26357H24.745C25.1341 8.26357 25.4497 7.95899 25.4497 7.58321C25.4497 7.20742 25.1341 6.90284 24.745 6.90284Z" fill="#2E2E2E"/>
<path d="M18.7315 6.90645C18.3424 6.90645 18.0268 7.21472 18.0268 7.59043C18.0268 7.96613 18.3423 8.27079 18.7315 8.27079C19.1207 8.27079 19.4363 7.96621 19.4363 7.59043V7.58313C19.4363 7.20742 19.1207 6.90645 18.7315 6.90645Z" fill="#2E2E2E"/>
<path d="M24.745 41.7365H21.7382C21.3491 41.7365 21.0335 42.0411 21.0335 42.4169C21.0335 42.7926 21.349 43.0972 21.7382 43.0972H24.745C25.1341 43.0972 25.4497 42.7927 25.4497 42.4169C25.4497 42.0411 25.1341 41.7365 24.745 41.7365Z" fill="#2E2E2E"/>
<path d="M36.7714 14.7948C37.1606 14.7948 37.4762 14.4902 37.4762 14.1145V10.4859C37.4762 10.1102 37.1607 9.80552 36.7714 9.80552H9.71105C9.32189 9.80552 9.00632 10.1101 9.00632 10.4859V39.514C9.00632 39.8897 9.32181 40.1943 9.71105 40.1943H36.7714C37.1606 40.1943 37.4762 39.8897 37.4762 39.514V35.8855C37.4762 35.5098 37.1607 35.2052 36.7714 35.2052C36.3823 35.2052 36.0667 35.5098 36.0667 35.8855V38.8336H10.4157V11.1663H36.0667V14.1145C36.0667 14.4902 36.3823 14.7948 36.7714 14.7948Z" fill="#2E2E2E"/>
<path d="M28.5033 33.7538H22.4899C22.1008 33.7538 21.7852 34.0584 21.7852 34.4342C21.7852 34.81 22.1007 35.1145 22.4899 35.1145H28.5033C28.8925 35.1145 29.2081 34.81 29.2081 34.4342C29.2081 34.0584 28.8926 33.7538 28.5033 33.7538Z" fill="#2E2E2E"/>
<path d="M19.4832 33.7538H17.9798C17.5907 33.7538 17.2751 34.0584 17.2751 34.4342C17.2751 34.81 17.5906 35.1145 17.9798 35.1145H19.4832C19.8723 35.1145 20.1879 34.81 20.1879 34.4342C20.1879 34.0584 19.8724 33.7538 19.4832 33.7538Z" fill="#2E2E2E"/>
<path d="M23.2416 15.6112C21.1952 15.6112 19.5302 17.2186 19.5302 19.1943C19.5302 21.17 21.1952 22.7774 23.2416 22.7774C25.2881 22.7774 26.953 21.17 26.953 19.1943C26.953 17.2187 25.2881 15.6112 23.2416 15.6112ZM23.2416 21.4169C21.9723 21.4169 20.9396 20.4199 20.9396 19.1944C20.9396 17.9689 21.9723 16.9719 23.2416 16.9719C24.511 16.9719 25.5437 17.9689 25.5437 19.1944C25.5437 20.4198 24.5109 21.4169 23.2416 21.4169Z" fill="#2E2E2E"/>
<path d="M39.0268 16.3369C34.079 16.3369 30.0536 20.2232 30.0536 25C30.0536 27.5064 31.153 29.8384 33.0903 31.4859C32.1182 33.0225 31.0632 33.9079 31.0524 33.9167C30.8201 34.1082 30.7421 34.4223 30.859 34.6946C30.9688 34.9502 31.2267 35.1145 31.5097 35.1145C31.5283 35.1145 31.547 35.1138 31.5657 35.1125C31.6816 35.1036 34.3278 34.8854 36.6752 33.3614C37.4402 33.5618 38.2297 33.6632 39.0268 33.6632C43.9747 33.6632 48 29.7769 48 25.0001C48 20.2232 43.9747 16.3369 39.0268 16.3369ZM39.0268 32.3023C38.255 32.3023 37.492 32.1897 36.7591 31.9676C36.5459 31.903 36.3133 31.9399 36.1326 32.0672C35.265 32.6785 34.3126 33.0733 33.4948 33.3259C33.8606 32.8602 34.2513 32.3001 34.6176 31.6538C34.7843 31.3596 34.7041 30.9921 34.4287 30.7878C32.544 29.3899 31.4631 27.2803 31.4631 25C31.4631 20.9734 34.8562 17.6977 39.0268 17.6977C43.1975 17.6977 46.5906 20.9735 46.5906 25C46.5906 29.0265 43.1975 32.3023 39.0268 32.3023Z" fill="#2E2E2E"/>
<path d="M42.7142 21.4402C42.2972 21.0374 41.7428 20.8157 41.1529 20.8157C40.5631 20.8157 40.0085 21.0375 39.5915 21.44C38.905 22.1027 38.7678 23.0965 39.1762 23.8936L35.3394 27.5978C35.0642 27.8635 35.0642 28.2944 35.3394 28.5599C35.477 28.6927 35.6573 28.7592 35.8376 28.7592C36.0179 28.7592 36.1983 28.6929 36.3359 28.5599L36.9006 28.0147L37.4654 28.5599C37.6029 28.6928 37.7833 28.7592 37.9636 28.7592C38.1439 28.7592 38.3243 28.6929 38.4619 28.5599C38.7371 28.2942 38.7371 27.8634 38.4619 27.5978L37.8971 27.0527L40.1725 24.8559C40.4805 25.003 40.8162 25.0783 41.1526 25.0783C41.7181 25.0783 42.2835 24.8705 42.714 24.4549C43.131 24.0523 43.3607 23.517 43.3607 22.9475C43.3609 22.3781 43.1311 21.8428 42.7142 21.4402ZM41.7177 23.4926C41.4063 23.7932 40.8996 23.7932 40.5882 23.4926C40.2768 23.1919 40.2768 22.7028 40.5882 22.4022C40.739 22.2565 40.9396 22.1762 41.153 22.1762C41.3663 22.1762 41.5668 22.2565 41.7177 22.4022C41.8685 22.5478 41.9517 22.7414 41.9517 22.9473C41.9517 23.1533 41.8685 23.3471 41.7177 23.4926Z" fill="#2E2E2E"/>
<path d="M26.9353 24.11C26.3414 23.6573 25.4617 23.7468 24.9327 24.3136C24.4923 24.7856 23.8915 25.0454 23.2415 25.0454C22.5915 25.0454 21.9908 24.7856 21.5503 24.3136C21.0213 23.7469 20.1416 23.6574 19.5477 24.11C18.1034 25.2104 17.275 26.8574 17.275 28.6286V30.8057C17.275 31.1814 17.5905 31.486 17.9798 31.486H28.5032C28.8924 31.486 29.208 31.1815 29.208 30.8057V28.6286C29.2081 26.8574 28.3797 25.2103 26.9353 24.11ZM27.7987 30.1252H18.6846V28.6285C18.6846 27.2764 19.3175 26.0187 20.417 25.1792C20.4272 25.1775 20.4674 25.186 20.5034 25.2245C21.2044 25.9754 22.2024 26.406 23.2415 26.406C24.2808 26.406 25.2788 25.9754 25.9797 25.2245C26.0157 25.186 26.0562 25.1777 26.0614 25.1775C27.1649 26.0183 27.7986 27.2764 27.7986 28.6286L27.7987 30.1252Z" fill="#2E2E2E"/>
</svg>
