<svg width="50" height="50" viewBox="0 0 50 50" fill="none" xmlns="http://www.w3.org/2000/svg">
<g clip-path="url(#clip0)">
<path d="M22 6.17509C22 7.29636 22.88 8.22673 24.048 8.33873L32.3827 9.14436C32.4693 9.53255 32.6667 9.88891 32.956 10.1651L39.2253 16.5936C40.0693 17.4782 41.2733 17.9911 42.532 18H50V10.3636H46.4853C45.9427 10.3636 45.4147 10.146 45.0227 9.75145L39.916 4.92146C39.2867 4.32709 38.4533 4 37.5693 4L24.2787 4C23.0227 4 22 4.97618 22 6.17509ZM37.5693 5.27273C38.1 5.27273 38.6 5.46873 38.9787 5.82636L44.0693 10.6411C44.696 11.2736 45.576 11.6364 46.4853 11.6364L48.6667 11.6364V16.7273H42.54C41.656 16.7209 40.8093 16.3607 40.2093 15.7307L33.9173 9.28182C33.736 9.10873 33.6467 8.872 33.6733 8.62127C33.6867 8.48255 33.7387 8.28273 33.9173 8.11218C34.0813 7.95564 34.3 7.86909 34.5307 7.86909C34.7613 7.86909 34.98 7.95691 35.1213 8.09055L39.8387 13.0555L40.8253 12.2002L36.0853 7.21236C35.6693 6.81527 35.1173 6.59637 34.5293 6.59637C33.9413 6.59637 33.3893 6.814 32.9747 7.21109C32.7693 7.40455 32.612 7.62982 32.504 7.87673L24.184 7.07364C23.6987 7.02655 23.3333 6.63964 23.3333 6.17509C23.3333 5.67745 23.7573 5.27273 24.2787 5.27273L37.5693 5.27273Z" fill="#2E2E2E"/>
<path d="M28 43.8249C28 42.7036 27.12 41.7733 25.952 41.6613L17.6173 40.8556C17.5307 40.4675 17.3333 40.1111 17.044 39.8349L10.7747 33.4064C9.93067 32.5218 8.72667 32.0089 7.468 32H3.65588e-07L0 39.6364H3.51467C4.05733 39.6364 4.58533 39.854 4.97733 40.2485L10.084 45.0785C10.7133 45.6729 11.5467 46 12.4307 46H25.7213C26.9773 46 28 45.0238 28 43.8249ZM12.4307 44.7273C11.9 44.7273 11.4 44.5313 11.0213 44.1736L5.93067 39.3589C5.304 38.7264 4.424 38.3636 3.51467 38.3636H1.33333L1.33333 33.2727H7.46C8.344 33.2791 9.19067 33.6393 9.79067 34.2693L16.0827 40.7182C16.264 40.8913 16.3533 41.128 16.3267 41.3787C16.3133 41.5175 16.2613 41.7173 16.0827 41.8878C15.9187 42.0444 15.7 42.1309 15.4693 42.1309C15.2387 42.1309 15.02 42.0431 14.8787 41.9095L10.1613 36.9445L9.17467 37.7998L13.9147 42.7876C14.3307 43.1847 14.8827 43.4036 15.4707 43.4036C16.0587 43.4036 16.6107 43.186 17.0253 42.7889C17.2307 42.5955 17.388 42.3702 17.496 42.1233L25.816 42.9264C26.3013 42.9735 26.6667 43.3604 26.6667 43.8249C26.6667 44.3225 26.2427 44.7273 25.7213 44.7273H12.4307Z" fill="#2E2E2E"/>
<path fill-rule="evenodd" clip-rule="evenodd" d="M11.8828 19.1698C11.8828 17.7499 13.0377 16.595 14.4577 16.595H15.8996C16.2528 16.595 16.5391 16.8813 16.5391 17.2344C16.5391 17.5876 16.2528 17.8739 15.8996 17.8739H14.4577C13.7433 17.8739 13.1617 18.4554 13.1617 19.1698V21.185H13.7891C13.9769 21.185 14.1649 21.2159 14.3436 21.2792C14.913 21.4811 15.341 21.9816 15.4492 22.5735H22.5928C23.2234 22.5735 23.848 22.7777 24.3605 23.1418V19.1698C24.3605 18.4554 23.779 17.8739 23.0646 17.8739H17.6574C17.3043 17.8739 17.018 17.5876 17.018 17.2344C17.018 16.8813 17.3043 16.595 17.6574 16.595H23.0646C23.8359 16.595 24.5282 16.9361 25 17.4742C25.4718 16.9362 26.1641 16.595 26.9354 16.595H35.5423C36.9623 16.595 38.1172 17.7499 38.1172 19.1698V21.185H38.5132C39.4435 21.185 40.2 21.9416 40.2 22.8718V27.4603C40.2 29.2558 38.7574 30.7204 36.9703 30.756L37.3518 31.7822C37.7039 32.7291 36.9835 33.7652 35.9734 33.7652H35.2665C34.8081 33.7652 34.3703 33.5474 34.0937 33.1819L32.2594 30.7567H17.7407L15.9064 33.1818C15.6298 33.5474 15.192 33.7652 14.7335 33.7652H14.0266C13.0177 33.7652 12.296 32.7294 12.6482 31.7822L13.0297 30.756C11.2426 30.7204 9.79999 29.2558 9.79999 27.4603V22.8718C9.79999 21.9416 10.5565 21.185 11.4868 21.185H11.8828V19.1698ZM33.8629 30.7567H35.6061L36.1531 32.2278C36.1982 32.3492 36.1027 32.4862 35.9734 32.4862H35.2665C35.2071 32.4862 35.1494 32.4575 35.1136 32.4102L33.8629 30.7567ZM11.4868 22.4639C11.262 22.4639 11.0789 22.647 11.0789 22.8718V27.4603C11.0789 28.5726 11.9841 29.4778 13.0963 29.4777H36.9037C38.0159 29.4777 38.921 28.5726 38.921 27.4603V22.8718C38.921 22.6471 38.7379 22.4639 38.5131 22.4639H36.2108C35.986 22.4639 35.8029 22.6471 35.8029 22.8718V26.6846C35.8029 27.0378 35.5166 27.3241 35.1634 27.3241H32.7355C32.3824 27.3241 32.0961 27.0378 32.0961 26.6846C32.0961 26.3315 32.3824 26.0452 32.7355 26.0452H34.524V23.8524H27.4072C26.4326 23.8524 25.6394 24.6456 25.6394 25.6202V26.0451H30.9777C31.3309 26.0451 31.6172 26.3314 31.6172 26.6845C31.6172 27.0377 31.3309 27.324 30.9777 27.324H14.8365C14.4833 27.324 14.197 27.0377 14.197 26.6845V22.8718C14.197 22.647 14.0139 22.4639 13.7891 22.4639H11.4868ZM15.476 23.8524V26.0452H24.3605V25.6202C24.3605 24.6457 23.5674 23.8525 22.5928 23.8524H15.476ZM26.9354 17.8739C26.221 17.8739 25.6394 18.4555 25.6394 19.17V23.1417C26.1522 22.7784 26.7781 22.5736 27.4072 22.5736H34.5505C34.5722 22.4526 34.6073 22.3338 34.655 22.2204C34.9127 21.6088 35.5454 21.185 36.2108 21.185H36.8383V19.1699C36.8383 18.4555 36.2567 17.8739 35.5423 17.8739H26.9354ZM13.8469 32.2279L14.3939 30.7567H16.1371L14.8864 32.4103C14.8506 32.4576 14.7926 32.4863 14.7332 32.4863H14.0265C13.8968 32.4863 13.8017 32.3493 13.8469 32.2279Z" fill="#2E2E2E"/>
</g>
<defs>
<clipPath id="clip0">
<path d="M0 0H50V50H0V0Z" fill="white"/>
</clipPath>
</defs>
</svg>
