<svg width="50" height="50" viewBox="0 0 50 50" fill="none" xmlns="http://www.w3.org/2000/svg">
<path d="M23.5071 5.80588H23.5C23.1343 5.80588 22.8412 6.10029 22.8412 6.46352C22.8412 6.82668 23.1413 7.12117 23.5071 7.12117C23.8729 7.12117 24.1695 6.82676 24.1695 6.46352C24.1695 6.10029 23.8729 5.80588 23.5071 5.80588Z" fill="#2E2E2E"/>
<path fill-rule="evenodd" clip-rule="evenodd" d="M36.218 5.80588H30.4124C30.1353 4.99131 29.3588 4.40298 28.4459 4.40298H26.2895C25.635 3.52918 24.5983 3 23.5 3C22.4018 3 21.365 3.52918 20.7106 4.4029H18.5542C17.6413 4.4029 16.8648 4.99123 16.5876 5.8058H10.782C9.248 5.8058 8 7.04488 8 8.56779V42.238C8 43.761 9.24808 45 10.782 45H30.4995C30.1929 44.5919 29.927 44.1515 29.7078 43.6848H10.782C9.9785 43.6848 9.32476 43.0358 9.32476 42.238V8.56787C9.32476 7.77012 9.9785 7.12109 10.782 7.12109H16.4787V9.26932C16.4787 9.63247 16.7752 9.92696 17.1411 9.92696H29.859C30.2248 9.92696 30.5214 9.63256 30.5214 9.26932V7.12109H36.218C37.0216 7.12109 37.6753 7.77012 37.6753 8.56787V19.0916C38.1319 19.1634 38.5747 19.2765 39 19.4268V8.56787C39.0001 7.04488 37.752 5.80588 36.218 5.80588ZM17.8034 6.46516L17.8035 6.46352C17.8039 6.05296 18.1405 5.71819 18.5542 5.71819H21.0658C21.3016 5.71819 21.5196 5.59375 21.6383 5.39129C22.0333 4.71757 22.7293 4.31529 23.5 4.31529C24.2708 4.31529 24.9667 4.71757 25.3618 5.39129C25.4804 5.59366 25.6985 5.71819 25.9343 5.71819H28.4459C28.859 5.71819 29.1951 6.05115 29.1966 6.46098L29.1965 6.46352L29.1967 6.46861V8.61176H17.8034V6.46516Z" fill="#2E2E2E"/>
<path d="M29.0094 40.8789C29.0318 41.3289 29.0939 41.7685 29.1922 42.1942H11.4886C11.1227 42.1942 10.8262 41.8997 10.8262 41.5366V9.26932C10.8262 8.90609 11.1228 8.61168 11.4886 8.61168H14.315C14.6809 8.61168 14.9774 8.90609 14.9774 9.26932C14.9774 9.63256 14.6808 9.92696 14.315 9.92696H12.151V40.8789H29.0094Z" fill="#2E2E2E"/>
<path d="M32.5196 34.1422C32.0462 34.4392 31.6083 34.7876 31.2138 35.1796H22.087C21.7211 35.1796 21.4245 34.8851 21.4245 34.522C21.4245 34.1588 21.7212 33.8643 22.087 33.8643H31.9787C32.202 33.8643 32.3996 33.9741 32.5196 34.1422Z" fill="#2E2E2E"/>
<path d="M36.1739 9.26932V19.007C35.7207 19.0263 35.278 19.086 34.8491 19.1823V9.92696H32.6852C32.3193 9.92696 32.0227 9.63256 32.0227 9.26932C32.0227 8.90609 32.3194 8.61168 32.6852 8.61168H35.5115C35.8773 8.61168 36.1738 8.90617 36.1739 9.26932Z" fill="#2E2E2E"/>
<path d="M29 26.5C29 26.3821 29.0027 26.2648 29.0081 26.1482H22.087C21.7212 26.1482 21.4245 26.4426 21.4245 26.8059C21.4245 27.1691 21.7211 27.4635 22.087 27.4635H29.0613C29.0209 27.1481 29 26.8265 29 26.5Z" fill="#2E2E2E"/>
<path d="M29.2291 24.6533C29.3274 24.2648 29.4561 23.8884 29.6124 23.5267C29.4933 23.4126 29.3311 23.3424 29.1525 23.3424H22.087C21.7212 23.3424 21.4245 23.6368 21.4245 24C21.4245 24.3632 21.7211 24.6576 22.087 24.6576H29.1525C29.1784 24.6576 29.2039 24.6562 29.2291 24.6533Z" fill="#2E2E2E"/>
<path d="M19.2607 17.0292C18.8949 17.0292 18.5983 17.3236 18.5983 17.6869C18.5983 18.4846 17.9445 19.1337 17.141 19.1337C16.3375 19.1337 15.6837 18.4846 15.6837 17.6869C15.6837 16.8891 16.3375 16.2401 17.141 16.2401C17.5068 16.2401 17.8034 15.9457 17.8034 15.5824C17.8034 15.2192 17.5069 14.9248 17.141 14.9248C15.607 14.9248 14.359 16.1639 14.359 17.6868C14.359 19.2097 15.607 20.4488 17.141 20.4488C18.675 20.4488 19.923 19.2097 19.923 17.6868C19.9231 17.3236 19.6265 17.0292 19.2607 17.0292Z" fill="#2E2E2E"/>
<path d="M18.5983 25.403C18.5983 25.0397 18.8949 24.7453 19.2607 24.7453C19.6265 24.7453 19.9231 25.0397 19.923 25.4029C19.923 26.9258 18.675 28.1649 17.141 28.1649C15.607 28.1649 14.359 26.9258 14.359 25.4029C14.359 23.88 15.607 22.6409 17.141 22.6409C17.5069 22.6409 17.8034 22.9353 17.8034 23.2986C17.8034 23.6618 17.5068 23.9562 17.141 23.9562C16.3375 23.9562 15.6837 24.6052 15.6837 25.403C15.6837 26.2007 16.3375 26.8498 17.141 26.8498C17.9445 26.8498 18.5983 26.2007 18.5983 25.403Z" fill="#2E2E2E"/>
<path d="M31.9787 18.4321H22.087C21.7212 18.4321 21.4245 18.7265 21.4245 19.0898C21.4245 19.453 21.7211 19.7474 22.087 19.7474H31.9787C32.3445 19.7474 32.6411 19.453 32.6411 19.0898C32.6411 18.7265 32.3445 18.4321 31.9787 18.4321Z" fill="#2E2E2E"/>
<path d="M22.087 15.6263H29.1525C29.5183 15.6263 29.8149 15.9207 29.8149 16.284C29.8149 16.6472 29.5182 16.9416 29.1525 16.9416H22.087C21.7211 16.9416 21.4245 16.6472 21.4245 16.284C21.4245 15.9207 21.7212 15.6263 22.087 15.6263Z" fill="#2E2E2E"/>
<path d="M19.2607 32.4614C18.8949 32.4614 18.5983 32.7558 18.5983 33.119C18.5983 33.9168 17.9445 34.5658 17.141 34.5658C16.3375 34.5658 15.6837 33.9168 15.6837 33.119C15.6837 32.3213 16.3375 31.6722 17.141 31.6722C17.5068 31.6722 17.8034 31.3778 17.8034 31.0146C17.8034 30.6513 17.5069 30.3569 17.141 30.3569C15.607 30.3569 14.359 31.596 14.359 33.1189C14.359 34.6419 15.607 35.8809 17.141 35.8809C18.675 35.8809 19.923 34.6418 19.923 33.1189C19.9231 32.7559 19.6265 32.4614 19.2607 32.4614Z" fill="#2E2E2E"/>
<path d="M29.1525 31.0585H22.087C21.7212 31.0585 21.4245 31.3529 21.4245 31.7161C21.4245 32.0793 21.7211 32.3737 22.087 32.3737H29.1525C29.5182 32.3737 29.8149 32.0793 29.8149 31.7161C29.8149 31.3529 29.5183 31.0585 29.1525 31.0585Z" fill="#2E2E2E"/>
<path fill-rule="evenodd" clip-rule="evenodd" d="M36.5 45.7C39.3719 45.7 41.7 43.3719 41.7 40.5C41.7 37.6281 39.3719 35.3 36.5 35.3C33.6281 35.3 31.3 37.6281 31.3 40.5C31.3 43.3719 33.6281 45.7 36.5 45.7ZM36.5 47C40.0899 47 43 44.0899 43 40.5C43 36.9101 40.0899 34 36.5 34C32.9101 34 30 36.9101 30 40.5C30 44.0899 32.9101 47 36.5 47Z" fill="#2E2E2E"/>
<path fill-rule="evenodd" clip-rule="evenodd" d="M36.5 36C36.7761 36 37 36.2239 37 36.5V40.2929L38.8536 42.1464C39.0488 42.3417 39.0488 42.6583 38.8536 42.8536C38.6583 43.0488 38.3417 43.0488 38.1464 42.8536L36 40.7071V36.5C36 36.2239 36.2239 36 36.5 36Z" fill="#2E2E2E"/>
<path fill-rule="evenodd" clip-rule="evenodd" d="M36.5 31.7C39.3719 31.7 41.7 29.3719 41.7 26.5C41.7 23.6281 39.3719 21.3 36.5 21.3C33.6281 21.3 31.3 23.6281 31.3 26.5C31.3 29.3719 33.6281 31.7 36.5 31.7ZM36.5 33C40.0899 33 43 30.0899 43 26.5C43 22.9101 40.0899 20 36.5 20C32.9101 20 30 22.9101 30 26.5C30 30.0899 32.9101 33 36.5 33Z" fill="#2E2E2E"/>
<path d="M37.6534 27.1562C39.2553 27.1562 40 26.2129 40 25.0781C40 23.9434 39.2553 23 37.6534 23H35.1382V26.4043H34V27.1562H35.1382V27.8125H34V28.5645H35.1382V30H36.0094V28.5645H37.5972V27.8125H36.0094V27.1562H37.6534ZM36.0094 26.4043V23.752H37.6534C38.6651 23.752 39.1429 24.3125 39.1429 25.0781C39.1429 25.8438 38.6651 26.4043 37.6534 26.4043H36.0094Z" fill="#2E2E2E"/>
</svg>
