<svg width="50" height="50" viewBox="0 0 50 50" fill="none" xmlns="http://www.w3.org/2000/svg">
<path d="M22.1789 10.7152C21.988 10.4518 21.622 10.3885 21.3537 10.5725L21.2819 10.6218C21.0037 10.8127 20.9375 11.1954 21.1356 11.4687L24.617 16.2718C24.7458 16.4495 24.7673 16.6833 24.6731 16.8815L21.4021 23.7643C21.3108 23.9563 21.1247 24.0857 20.9129 24.1044L16.1489 24.5251C15.9371 24.5438 15.751 24.6732 15.6598 24.8652L8.42005 40.0981C8.32878 40.2901 8.14269 40.4195 7.93089 40.4382L5.99254 40.6093L11.6344 28.7387C11.7787 28.4349 11.6453 28.0718 11.3385 27.9339L11.2537 27.8957C10.956 27.7618 10.6058 27.8906 10.4657 28.1854L4.81348 40.0791L3.70291 38.5471C3.57411 38.3694 3.55258 38.1356 3.64678 37.9374L4.68755 35.7474C4.74248 35.6319 4.83292 35.5369 4.94566 35.4763L6.369 34.7122C6.60332 34.5864 6.72687 34.3214 6.67255 34.061L6.45558 33.0211C6.40126 32.7608 6.5248 32.4958 6.75912 32.37L7.72991 31.8488C7.9642 31.723 8.08774 31.458 8.03346 31.1977L7.81653 30.1572C7.76226 29.8969 7.88577 29.632 8.12001 29.5061L9.09117 28.9846C9.32544 28.8588 9.44895 28.5937 9.39463 28.3334L9.07476 26.8006C9.048 26.6723 9.06395 26.5389 9.12018 26.4205L10.5978 23.3108L12.3253 24.0878C12.6231 24.2217 12.9733 24.0929 13.1134 23.798L13.1434 23.7349C13.2877 23.4311 13.1542 23.0682 12.8475 22.9302L10.7116 21.9696L8.08452 18.3453C7.95574 18.1676 7.93422 17.9338 8.02841 17.7356L11.2995 10.8529C11.3907 10.6608 11.5768 10.5314 11.7886 10.5127L17.3347 10.023C17.6659 9.99379 17.9102 9.7007 17.8793 9.36959L17.8733 9.30558C17.8426 8.97681 17.5521 8.73463 17.2231 8.76369L10.9244 9.32005C10.7126 9.33875 10.5265 9.46814 10.4352 9.66017L6.53455 17.8678C6.44035 18.066 6.46187 18.2998 6.59066 18.4775L9.32511 22.2499C9.4539 22.4276 9.47542 22.6614 9.38122 22.8596L7.76215 26.2663C7.7059 26.3847 7.68995 26.5182 7.71673 26.6465L7.93154 27.6755C7.98587 27.9358 7.86241 28.2008 7.62818 28.3266L6.65725 28.8483C6.42307 28.9741 6.29961 29.2391 6.35386 29.4993L6.57074 30.5396C6.625 30.7999 6.50149 31.0649 6.26725 31.1907L5.29607 31.7123C5.0618 31.8381 4.9383 32.1031 4.9926 32.3634L5.20948 33.403C5.2638 33.6633 5.14022 33.9284 4.90588 34.0542L3.94521 34.5698C3.83245 34.6303 3.74199 34.7253 3.68705 34.8409L2.15278 38.0692C2.05859 38.2674 2.08011 38.5012 2.20889 38.6789L4.4164 41.7245C4.54026 41.8954 4.74478 41.9886 4.95501 41.9701L8.79548 41.6308C9.00726 41.6121 9.19333 41.4827 9.28459 41.2907L16.524 26.0579C16.6153 25.8659 16.8013 25.7365 17.0131 25.7178L21.7775 25.2969C21.9893 25.2782 22.1753 25.1488 22.2666 24.9568L26.1671 16.7496C26.2613 16.5514 26.2398 16.3176 26.111 16.14L22.1789 10.7152Z" fill="#2E2E2E"/>
<path d="M17.9674 11.366C17.7218 11.3753 17.474 11.4215 17.2314 11.5083C15.9851 11.9541 15.3438 13.3031 15.802 14.5154C16.2604 15.7281 17.6473 16.3516 18.8936 15.9058C20.1399 15.4601 20.781 14.1112 20.3226 12.8985C20.1176 12.3561 19.7268 11.9317 19.2458 11.6679C19.8671 10.2945 21.041 9.16598 22.5848 8.61379C25.6124 7.53087 28.9813 9.04577 30.0946 11.991C30.1983 12.2656 30.2793 12.5455 30.3381 12.8278C30.1638 12.8561 29.9902 12.9003 29.8185 12.9618C28.3331 13.4931 27.5687 15.1013 28.1149 16.5463C28.6612 17.9916 30.3145 18.7351 31.7998 18.2038C33.2855 17.6724 34.0499 16.0641 33.5036 14.6188C33.1853 13.7768 32.4911 13.1731 31.6734 12.921C31.6023 12.4591 31.4827 12.0015 31.3138 11.5548C29.9535 7.95574 25.8365 6.10422 22.1364 7.42768C20.1735 8.12979 18.7 9.59448 17.9674 11.366ZM30.2668 14.1479C30.3586 14.115 30.4488 14.1889 30.443 14.2862C30.3925 15.1235 30.1526 15.9475 29.7315 16.6949C29.5592 16.5378 29.4212 16.3403 29.3342 16.1102C29.0352 15.3191 29.4536 14.4387 30.2668 14.1479ZM32.2841 15.0554C32.5831 15.8464 32.165 16.7267 31.3515 17.0177C31.2286 17.0616 31.1036 17.0895 30.9788 17.1026C31.4275 16.2412 31.6841 15.3037 31.7404 14.3522C31.9807 14.5236 32.1736 14.7632 32.2841 15.0554ZM17.561 12.7446C17.4492 13.3575 17.4214 13.9906 17.4857 14.6282C17.2787 14.5058 17.1115 14.317 17.0217 14.0795C16.8257 13.5609 17.0663 12.9882 17.561 12.7446ZM19.1033 13.3346C19.2679 13.7701 19.1246 14.2436 18.7815 14.5287C18.7247 13.9914 18.7484 13.4581 18.8447 12.9422C18.9561 13.05 19.0457 13.1823 19.1033 13.3346Z" fill="#2E2E2E"/>
<path d="M31.9324 35.1086C32.0481 35.4146 32.3876 35.5716 32.6957 35.4614L42.5897 31.9224C42.9057 31.8094 43.0675 31.4593 42.9489 31.1454L38.0125 18.0854C37.8968 17.7794 37.5573 17.6224 37.2492 17.7326L27.3552 21.2715C27.0392 21.3845 26.8774 21.7347 26.996 22.0486L31.9324 35.1086ZM28.4477 22.2272L37.0332 19.1563L41.4973 30.9667L32.9117 34.0376L28.4477 22.2272Z" fill="#2E2E2E"/>
<path d="M30.5563 23.736C30.4377 23.4221 30.5995 23.0719 30.9155 22.9589L31.0047 22.927C31.3128 22.8168 31.6524 22.9737 31.768 23.2798L34.7328 31.1236C34.8515 31.4375 34.6896 31.7877 34.3737 31.9007L34.2845 31.9326C33.9764 32.0428 33.6368 31.8859 33.5211 31.5798L30.5563 23.736Z" fill="#2E2E2E"/>
<path d="M32.8841 22.9034C32.7655 22.5895 32.9273 22.2393 33.2433 22.1263L33.3325 22.0944C33.6406 21.9842 33.9801 22.1411 34.0958 22.4472L37.0606 30.291C37.1793 30.6049 37.0174 30.9551 36.7014 31.0681L36.6122 31.1C36.3041 31.2102 35.9646 31.0533 35.8489 30.7472L32.8841 22.9034Z" fill="#2E2E2E"/>
<path d="M35.2119 22.0708C35.0932 21.7569 35.2551 21.4067 35.571 21.2937L35.6606 21.2616C35.9686 21.1515 36.3082 21.3084 36.4239 21.6145L39.3887 29.4583C39.5073 29.7722 39.3455 30.1224 39.0295 30.2354L38.94 30.2674C38.6319 30.3776 38.2924 30.2207 38.1767 29.9146L35.2119 22.0708Z" fill="#2E2E2E"/>
<path d="M25.9976 14.1765C25.7121 13.9969 25.6308 13.6173 25.8175 13.3365L27.3322 11.0586C27.5125 10.7875 27.8759 10.7096 28.1514 10.883L28.2261 10.93C28.5116 11.1096 28.5929 11.4892 28.4062 11.77L26.8915 14.0479C26.7113 14.319 26.3478 14.3969 26.0723 14.2235L25.9976 14.1765Z" fill="#2E2E2E"/>
<path d="M33.0944 10.7194C32.7797 10.6274 32.4495 10.805 32.3527 11.1182L32.333 11.1821C32.2341 11.5021 32.4164 11.8411 32.7379 11.9351L38.2107 13.535C38.3915 13.5879 38.537 13.7226 38.6036 13.8988L46.3324 34.3465L31.4786 39.6595L25.2632 23.2154C25.1475 22.9094 24.8079 22.7524 24.4998 22.8626L24.4106 22.8945C24.0947 23.0076 23.9328 23.3577 24.0514 23.6716L30.4993 40.7304C30.615 41.0364 30.9545 41.1934 31.2626 41.0832L47.4249 35.3022C47.7408 35.1892 47.9027 34.839 47.784 34.5251L39.599 12.8702C39.5324 12.694 39.3869 12.5593 39.2061 12.5065L33.0944 10.7194Z" fill="#2E2E2E"/>
<path d="M11.7465 20.9438C11.4783 21.1277 11.1123 21.0644 10.9214 20.801L9.0779 18.2575C8.94912 18.0799 8.92761 17.8461 9.0218 17.6479L9.79472 16.0215C9.93486 15.7266 10.2851 15.5979 10.5828 15.7319L10.6674 15.77C10.9741 15.908 11.1075 16.271 10.9632 16.5747L10.5158 17.516C10.4216 17.7142 10.4431 17.948 10.5719 18.1257L11.9648 20.0476C12.1629 20.3209 12.0966 20.7038 11.8183 20.8946L11.7465 20.9438ZM11.8419 14.7257C11.7018 15.0205 11.3516 15.1492 11.0539 15.0153L10.9695 14.9774C10.6628 14.8394 10.5293 14.4764 10.6737 14.1726L10.7036 14.1097C10.8437 13.8149 11.1939 13.6862 11.4916 13.8201L11.576 13.858C11.8827 13.996 12.0162 14.359 11.8718 14.6628L11.8419 14.7257ZM12.7507 12.8138C12.6106 13.1087 12.2604 13.2375 11.9626 13.1036L11.8779 13.0654C11.5712 12.9275 11.4377 12.5644 11.5821 12.2607L11.612 12.1977C11.7521 11.9029 12.1022 11.7742 12.3999 11.908L12.4846 11.9461C12.7914 12.084 12.9249 12.447 12.7806 12.7508L12.7507 12.8138Z" fill="#2E2E2E"/>
<path d="M44.3978 33.4947C44.5164 33.8086 44.3545 34.1588 44.0386 34.2718L37.2207 36.7104C36.9126 36.8206 36.5731 36.6636 36.4574 36.3576L36.4334 36.2942C36.3148 35.9803 36.4766 35.6301 36.7926 35.5171L43.6105 33.0784C43.9185 32.9682 44.2581 33.1252 44.3738 33.4312L44.3978 33.4947ZM35.637 36.6283C35.7556 36.9422 35.5938 37.2923 35.2778 37.4054L35.1886 37.4373C34.8805 37.5475 34.5409 37.3905 34.4253 37.0845L34.4013 37.021C34.2826 36.7071 34.4445 36.357 34.7604 36.2439L34.8497 36.212C35.1577 36.1018 35.4973 36.2588 35.613 36.5648L35.637 36.6283ZM33.6045 37.3553C33.7231 37.6691 33.5613 38.0193 33.2453 38.1323L33.1561 38.1643C32.848 38.2744 32.5085 38.1175 32.3928 37.8114L32.3688 37.748C32.2502 37.4341 32.412 37.0839 32.728 36.9709L32.8172 36.939C33.1253 36.8288 33.4648 36.9858 33.5805 37.2918L33.6045 37.3553Z" fill="#2E2E2E"/>
</svg>
