<svg width="50" height="50" viewBox="0 0 50 50" fill="none" xmlns="http://www.w3.org/2000/svg">
<path d="M36.7156 22.4279C36.7156 21.035 35.5824 19.9019 34.1895 19.9019H29.5469C30.6749 18.6341 31.412 17.1904 31.5544 15.8952C31.6414 15.1042 31.397 14.319 30.8837 13.7409C30.4146 13.2124 29.773 12.9179 29.0773 12.9115C29.0692 12.9114 29.0611 12.9114 29.0532 12.9114C28.3802 12.9114 27.7485 13.1706 27.2718 13.6429C26.7951 14.1153 26.5312 14.7446 26.5281 15.4162C26.5036 15.5633 26.245 16.0702 25.612 16.6721C25.0938 17.165 24.1987 17.8427 22.8771 18.2717C22.3589 18.44 21.8853 18.7498 21.4695 19.1926C21.2513 19.4248 20.9246 19.7455 20.5201 20.0674C20.3216 19.9622 20.0958 19.9021 19.856 19.9021H15.4468C14.6616 19.9021 14.023 20.5408 14.023 21.3259V33.0837C14.023 33.8688 14.6616 34.5075 15.4468 34.5075H19.856C20.3912 34.5075 20.8579 34.2103 21.1011 33.7726H32.3523C33.5426 33.7726 34.511 32.8043 34.511 31.614C34.511 31.2138 34.4016 30.8387 34.2109 30.517C34.8312 30.1373 35.2458 29.4534 35.2458 28.6745C35.2458 28.2743 35.1364 27.8992 34.9458 27.5775C35.566 27.1978 35.9806 26.5139 35.9806 25.735C35.9806 25.2845 35.8419 24.8658 35.605 24.5193C36.2747 24.0645 36.7156 23.2967 36.7156 22.4279ZM34.1895 23.5762H33.822C33.4415 23.5762 33.133 23.8846 33.133 24.2651C33.133 24.6456 33.4415 24.9541 33.822 24.9541C34.2525 24.9541 34.6028 25.3044 34.6028 25.7349C34.6028 26.1655 34.2525 26.5157 33.822 26.5157H33.0871C32.7067 26.5157 32.3982 26.8242 32.3982 27.2047C32.3982 27.5851 32.7066 27.8937 33.0871 27.8937C33.5177 27.8937 33.868 28.2439 33.868 28.6745C33.868 29.105 33.5177 29.4553 33.0871 29.4553H32.3523C31.9718 29.4553 31.6633 29.7637 31.6633 30.1443C31.6633 30.5247 31.9718 30.8332 32.3523 30.8332C32.7828 30.8332 33.1331 31.1835 33.1331 31.6141C33.1331 32.0446 32.7828 32.3949 32.3523 32.3949H21.2798V25.7352C21.2798 25.3547 20.9713 25.0462 20.5908 25.0462C20.2103 25.0462 19.9018 25.3546 19.9018 25.7352V33.0838C19.9018 33.1091 19.8813 33.1297 19.856 33.1297H15.4468C15.4214 33.1297 15.4009 33.1091 15.4009 33.0838V21.3256C15.4009 21.3003 15.4214 21.2797 15.4468 21.2797H19.856C19.8813 21.2797 19.9018 21.3003 19.9018 21.3256V22.7954C19.9018 23.1759 20.2103 23.4844 20.5908 23.4844C20.9713 23.4844 21.2798 23.1759 21.2798 22.7954V21.3256C21.2798 21.2922 21.277 21.2595 21.2747 21.2266C21.7913 20.8268 22.2044 20.4225 22.4739 20.1356C22.7288 19.864 23.0076 19.6779 23.3025 19.5822C24.9241 19.0558 26.0154 18.2081 26.6453 17.5897C27.4347 16.8146 27.9059 16.0066 27.9059 15.4282C27.9059 15.1226 28.0251 14.8361 28.2416 14.6216C28.4607 14.4045 28.7509 14.2898 29.0645 14.2893C29.4507 14.2929 29.7064 14.4905 29.8531 14.6557C30.1046 14.9388 30.2283 15.346 30.1846 15.7447C30.0341 17.1136 28.9394 18.8057 27.3956 20.0554C27.1688 20.239 27.0823 20.5457 27.1796 20.8207C27.277 21.0958 27.5372 21.2797 27.8291 21.2797H34.1893C34.8225 21.2797 35.3375 21.7948 35.3375 22.4279C35.3375 23.0611 34.8226 23.5762 34.1895 23.5762Z" fill="#2E2E2E"/>
<path d="M17.6514 30.1825C17.271 30.1825 16.9588 30.4946 16.9588 30.8751C16.9588 31.2555 17.271 31.5677 17.6514 31.5677C18.0319 31.5677 18.344 31.2555 18.344 30.8751C18.3441 30.4947 18.0319 30.1825 17.6514 30.1825Z" fill="#2E2E2E"/>
<path d="M45.7719 25L46.9555 21.8681C47.0417 21.6403 47.001 21.384 46.8486 21.1938L44.7553 18.581L44.9131 15.2367C44.9246 14.9935 44.8067 14.7621 44.6032 14.6284L41.8049 12.7903L40.9216 9.56095C40.8573 9.326 40.6738 9.14244 40.4389 9.07824L37.2096 8.19498L35.3714 5.39676C35.2377 5.19318 35.0064 5.07579 34.7632 5.08687L31.4189 5.24466L28.8061 3.1513C28.616 2.99902 28.3596 2.95837 28.1317 3.04448L24.9999 4.22801L21.8683 3.04457C21.6403 2.95837 21.384 2.99902 21.1939 3.15139L18.5811 5.24474L15.2368 5.08696C14.9924 5.07544 14.7622 5.19335 14.6286 5.39685L12.7905 8.19515L9.56117 9.07841C9.32622 9.1427 9.14266 9.32626 9.07846 9.56112L8.1952 12.7905L5.39691 14.6285C5.19332 14.7622 5.0755 14.9936 5.08702 15.2368L5.2448 18.581L3.15145 21.1939C2.99917 21.384 2.95852 21.6403 3.04463 21.8682L4.22807 25L3.04454 28.1317C2.95835 28.3595 2.999 28.6159 3.15136 28.8061L5.24471 31.4189L5.08693 34.7632C5.07541 35.0064 5.19332 35.2378 5.39682 35.3714L8.19511 37.2095L9.07838 40.4389C9.14266 40.6739 9.32622 40.8574 9.56109 40.9216L12.7904 41.8049L14.6285 44.6032C14.7622 44.8068 14.994 44.9238 15.2367 44.9131L18.581 44.7553L21.1938 46.8486C21.3839 47.001 21.6404 47.0417 21.8682 46.9555L25 45.7719L28.1318 46.9555C28.2109 46.9853 28.2933 46.9999 28.3753 46.9999C28.5296 46.9999 28.682 46.9481 28.8061 46.8486L31.4189 44.7553L34.7632 44.9131C35.0072 44.9239 35.2377 44.8067 35.3714 44.6032L37.2096 41.8049L40.4389 40.9216C40.6739 40.8573 40.8574 40.6738 40.9216 40.4389L41.8049 37.2095L44.6032 35.3714C44.8068 35.2377 44.9246 35.0064 44.9131 34.7632L44.7553 31.4189L46.8486 28.8061C47.0009 28.616 47.0416 28.3596 46.9555 28.1317L45.7719 25ZM44.391 25.2435L45.5276 28.2512L43.5172 30.7605C43.4123 30.8914 43.3587 31.0562 43.3666 31.2237L43.5182 34.4355L40.8309 36.2007C40.6907 36.2928 40.5888 36.4329 40.5445 36.5948L39.6962 39.6962L36.5948 40.5445C36.433 40.5888 36.2929 40.6906 36.2007 40.8309L34.4355 43.5182L31.2238 43.3666C31.0561 43.3589 30.8914 43.4123 30.7606 43.5172L28.2513 45.5276L25.2435 44.391C25.1651 44.3613 25.0825 44.3466 25 44.3466C24.9175 44.3466 24.8349 44.3614 24.7565 44.391L21.7487 45.5276L19.2394 43.5172C19.1086 43.4123 18.9436 43.3589 18.7762 43.3666L15.5645 43.5182L13.7993 40.8309C13.7072 40.6907 13.5671 40.5888 13.4052 40.5445L10.3038 39.6962L9.45547 36.5948C9.41121 36.433 9.30938 36.2929 9.16913 36.2007L6.48178 34.4355L6.63337 31.2237C6.64128 31.0561 6.58774 30.8914 6.48281 30.7605L4.47239 28.2512L5.60909 25.2435C5.66838 25.0866 5.66838 24.9133 5.60909 24.7564L4.47239 21.7487L6.48281 19.2394C6.58774 19.1085 6.64128 18.9438 6.63337 18.7762L6.48178 15.5645L9.16913 13.7992C9.30929 13.7072 9.41121 13.567 9.45547 13.4051L10.3038 10.3037L13.4052 9.45542C13.567 9.41116 13.7071 9.30933 13.7993 9.16908L15.5645 6.48173L18.7762 6.63332C18.9436 6.64114 19.1086 6.58769 19.2394 6.48276L21.7487 4.47234L24.7565 5.60903C24.9135 5.66833 25.0866 5.66833 25.2435 5.60903L28.2513 4.47234L30.7606 6.48276C30.8914 6.58777 31.0563 6.64123 31.2238 6.63332L34.4355 6.48173L36.2007 9.16908C36.2928 9.30924 36.4329 9.41116 36.5948 9.45542L39.6962 10.3037L40.5445 13.4051C40.5888 13.5669 40.6906 13.707 40.8309 13.7992L43.5182 15.5645L43.3666 18.7762C43.3587 18.9439 43.4123 19.1085 43.5172 19.2394L45.5276 21.7487L44.3909 24.7564C44.3317 24.9134 44.3317 25.0866 44.391 25.2435Z" fill="#2E2E2E"/>
<path d="M37.9451 13.104C37.7737 12.9173 37.5958 12.7317 37.4163 12.5523C37.2368 12.3728 37.0513 12.1949 36.8646 12.0235C36.5844 11.7662 36.1486 11.7848 35.8912 12.0651C35.6339 12.3453 35.6525 12.7812 35.9328 13.0385C36.1049 13.1966 36.2763 13.3608 36.442 13.5265C36.6076 13.6921 36.7718 13.8635 36.93 14.0357C37.0659 14.1837 37.2515 14.2587 37.4377 14.2587C37.6042 14.2587 37.7712 14.1987 37.9034 14.0773C38.1837 13.8201 38.2024 13.3842 37.9451 13.104Z" fill="#2E2E2E"/>
<path d="M34.4181 10.1435C31.0957 8.02688 27.0957 7.08621 23.1552 7.49416C19.1569 7.90837 15.3869 9.70464 12.5392 12.5522C9.40537 15.6861 7.58075 19.8492 7.40148 24.2747C7.22333 28.6742 8.68049 32.9457 11.5046 36.302C11.6409 36.464 11.8358 36.5474 12.0322 36.5474C12.1888 36.5474 12.3462 36.4943 12.4754 36.3857C12.7665 36.1407 12.8039 35.7061 12.559 35.415C9.95675 32.3222 8.61406 28.3857 8.7782 24.3306C8.94337 20.2518 10.625 16.4149 13.5134 13.5265C16.138 10.9019 19.6126 9.24634 23.2971 8.86469C26.9301 8.48828 30.6164 9.3553 33.6776 11.3056C33.9986 11.51 34.4243 11.4157 34.6288 11.0948C34.8333 10.7738 34.7389 10.348 34.4181 10.1435Z" fill="#2E2E2E"/>
<path d="M39.8251 15.5505C39.6207 15.2296 39.1946 15.1352 38.8739 15.3396C38.5529 15.5441 38.4587 15.97 38.6631 16.2908C40.6134 19.3521 41.4802 23.0386 41.104 26.6714C40.7223 30.3559 39.0667 33.8304 36.4422 36.4551C33.5538 39.3435 29.7168 41.0252 25.6382 41.1903C21.5837 41.3552 17.6465 40.0119 14.5538 37.4097C14.2627 37.1647 13.8281 37.2021 13.5831 37.4933C13.3381 37.7844 13.3756 38.219 13.6667 38.464C16.8396 41.1336 20.8297 42.5818 24.9732 42.5818C25.2129 42.5818 25.4535 42.5769 25.6941 42.5671C30.1196 42.388 34.2827 40.5633 37.4167 37.4295C40.2643 34.5818 42.0606 30.8117 42.4747 26.8134C42.8827 22.8727 41.9418 18.8728 39.8251 15.5505Z" fill="#2E2E2E"/>
</svg>
