<svg width="50" height="50" viewBox="0 0 50 50" fill="none" xmlns="http://www.w3.org/2000/svg">
<path d="M10.2411 26.3076H21.9091C22.2675 26.3076 22.5573 26.0142 22.5573 25.6512V23.0255C22.5573 22.6625 22.2675 22.3691 21.9091 22.3691H10.2411C9.88264 22.3691 9.59288 22.6625 9.59288 23.0255V25.6512C9.59288 26.0142 9.88264 26.3076 10.2411 26.3076ZM10.8893 23.6819H21.2608V24.9947H10.8893V23.6819Z" fill="#2E2E2E"/>
<path d="M20.6126 27.6204C19.5405 27.6204 18.668 28.5039 18.668 29.5896C18.668 30.6754 19.5405 31.5589 20.6126 31.5589C21.6848 31.5589 22.5573 30.6754 22.5573 29.5896C22.5573 28.5039 21.6848 27.6204 20.6126 27.6204ZM20.6126 30.2461C20.2548 30.2461 19.9644 29.952 19.9644 29.5896C19.9644 29.2273 20.2548 28.9332 20.6126 28.9332C20.9704 28.9332 21.2608 29.2273 21.2608 29.5896C21.2608 29.952 20.9704 30.2461 20.6126 30.2461Z" fill="#2E2E2E"/>
<path d="M16.0751 27.6204C15.0029 27.6204 14.1304 28.5039 14.1304 29.5896C14.1304 30.6754 15.0029 31.5589 16.0751 31.5589C17.1472 31.5589 18.0197 30.6754 18.0197 29.5896C18.0197 28.5039 17.1472 27.6204 16.0751 27.6204ZM16.0751 30.2461C15.7173 30.2461 15.4269 29.952 15.4269 29.5896C15.4269 29.2273 15.7173 28.9332 16.0751 28.9332C16.4329 28.9332 16.7233 29.2273 16.7233 29.5896C16.7233 29.952 16.4329 30.2461 16.0751 30.2461Z" fill="#2E2E2E"/>
<path d="M11.5375 31.5589C12.6097 31.5589 13.4822 30.6754 13.4822 29.5896C13.4822 28.5039 12.6097 27.6204 11.5375 27.6204C10.4654 27.6204 9.59288 28.5039 9.59288 29.5896C9.59288 30.6754 10.4654 31.5589 11.5375 31.5589ZM11.5375 28.9332C11.8954 28.9332 12.1858 29.2273 12.1858 29.5896C12.1858 29.952 11.8954 30.2461 11.5375 30.2461C11.1797 30.2461 10.8893 29.952 10.8893 29.5896C10.8893 29.2273 11.1797 28.9332 11.5375 28.9332Z" fill="#2E2E2E"/>
<path d="M20.6126 32.2153C19.5405 32.2153 18.668 33.0988 18.668 34.1845C18.668 35.2703 19.5405 36.1538 20.6126 36.1538C21.6848 36.1538 22.5573 35.2703 22.5573 34.1845C22.5573 33.0988 21.6848 32.2153 20.6126 32.2153ZM20.6126 34.841C20.2548 34.841 19.9644 34.5469 19.9644 34.1845C19.9644 33.8222 20.2548 33.5281 20.6126 33.5281C20.9704 33.5281 21.2608 33.8222 21.2608 34.1845C21.2608 34.5469 20.9704 34.841 20.6126 34.841Z" fill="#2E2E2E"/>
<path d="M16.0751 32.2153C15.0029 32.2153 14.1304 33.0988 14.1304 34.1845C14.1304 35.2703 15.0029 36.1538 16.0751 36.1538C17.1472 36.1538 18.0197 35.2703 18.0197 34.1845C18.0197 33.0988 17.1472 32.2153 16.0751 32.2153ZM16.0751 34.841C15.7173 34.841 15.4269 34.5469 15.4269 34.1845C15.4269 33.8222 15.7173 33.5281 16.0751 33.5281C16.4329 33.5281 16.7233 33.8222 16.7233 34.1845C16.7233 34.5469 16.4329 34.841 16.0751 34.841Z" fill="#2E2E2E"/>
<path d="M11.5375 36.1538C12.6097 36.1538 13.4822 35.2703 13.4822 34.1845C13.4822 33.0988 12.6097 32.2153 11.5375 32.2153C10.4654 32.2153 9.59288 33.0988 9.59288 34.1845C9.59288 35.2703 10.4654 36.1538 11.5375 36.1538ZM11.5375 33.5281C11.8954 33.5281 12.1858 33.8222 12.1858 34.1845C12.1858 34.5469 11.8954 34.841 11.5375 34.841C11.1797 34.841 10.8893 34.5469 10.8893 34.1845C10.8893 33.8222 11.1797 33.5281 11.5375 33.5281Z" fill="#2E2E2E"/>
<path d="M20.6126 36.8102C19.5405 36.8102 18.668 37.6937 18.668 38.7794C18.668 39.8652 19.5405 40.7487 20.6126 40.7487C21.6848 40.7487 22.5573 39.8652 22.5573 38.7794C22.5573 37.6937 21.6848 36.8102 20.6126 36.8102ZM20.6126 39.4359C20.2548 39.4359 19.9644 39.1418 19.9644 38.7794C19.9644 38.4171 20.2548 38.123 20.6126 38.123C20.9704 38.123 21.2608 38.4171 21.2608 38.7794C21.2608 39.1418 20.9704 39.4359 20.6126 39.4359Z" fill="#2E2E2E"/>
<path d="M16.0751 36.8102C15.0029 36.8102 14.1304 37.6937 14.1304 38.7794C14.1304 39.8652 15.0029 40.7487 16.0751 40.7487C17.1472 40.7487 18.0197 39.8652 18.0197 38.7794C18.0197 37.6937 17.1472 36.8102 16.0751 36.8102ZM16.0751 39.4359C15.7173 39.4359 15.4269 39.1418 15.4269 38.7794C15.4269 38.4171 15.7173 38.123 16.0751 38.123C16.4329 38.123 16.7233 38.4171 16.7233 38.7794C16.7233 39.1418 16.4329 39.4359 16.0751 39.4359Z" fill="#2E2E2E"/>
<path d="M11.5375 40.7487C12.6097 40.7487 13.4822 39.8652 13.4822 38.7794C13.4822 37.6937 12.6097 36.8102 11.5375 36.8102C10.4654 36.8102 9.59288 37.6937 9.59288 38.7794C9.59288 39.8652 10.4654 40.7487 11.5375 40.7487ZM11.5375 38.123C11.8954 38.123 12.1858 38.4171 12.1858 38.7794C12.1858 39.1418 11.8954 39.4359 11.5375 39.4359C11.1797 39.4359 10.8893 39.1418 10.8893 38.7794C10.8893 38.4171 11.1797 38.123 11.5375 38.123Z" fill="#2E2E2E"/>
<path d="M30.9744 13.8488H30.9258C30.7223 12.2347 29.7765 10.7952 28.3815 9.97271V9.69636C28.3815 9.45345 28.2111 9.17779 27.9777 9.08918C26.6035 8.43736 24.9816 8.4367 23.599 9.08721C23.2546 9.22669 23.1971 9.64583 23.1971 9.97009C21.7995 10.7926 20.8518 12.2327 20.6476 13.8482H20.6029C20.2444 13.8482 19.9547 14.1416 19.9547 14.5046V16.4738C19.9547 16.8368 20.2444 17.1303 20.6029 17.1303H30.9744C31.3329 17.1303 31.6226 16.8368 31.6226 16.4738V14.5046C31.6226 14.1423 31.3329 13.8488 30.9744 13.8488ZM23.1971 11.5698V11.8783C23.1971 12.2413 23.4868 12.5347 23.8453 12.5347C24.2038 12.5347 24.4935 12.2413 24.4935 11.8783V10.1348C25.3304 9.83683 26.2521 9.83815 27.0851 10.1362V11.8783C27.0851 12.2413 27.3749 12.5347 27.7333 12.5347C28.0918 12.5347 28.3815 12.2413 28.3815 11.8783V11.5737C29.0304 12.1664 29.4667 12.9706 29.6151 13.8488H21.9583C22.1081 12.9686 22.5456 12.1625 23.1971 11.5698ZM30.3262 15.8181H21.2511V15.1617H30.3262V15.8181Z" fill="#2E2E2E"/>
<path d="M34.8702 22.3783H36.8149C37.1734 22.3783 37.4631 22.0849 37.4631 21.7219C37.4631 21.3589 37.1734 21.0655 36.8149 21.0655H34.8702C34.5118 21.0655 34.222 21.3589 34.222 21.7219C34.222 22.0849 34.5118 22.3783 34.8702 22.3783Z" fill="#2E2E2E"/>
<path d="M36.8149 24.3475H34.2214C33.8629 24.3475 33.5731 24.6409 33.5731 25.0039C33.5731 25.3669 33.8629 25.6604 34.2214 25.6604H36.8149C37.1734 25.6604 37.4631 25.3669 37.4631 25.0039C37.4631 24.6409 37.1734 24.3475 36.8149 24.3475Z" fill="#2E2E2E"/>
<path d="M36.8149 27.6296H34.8702C34.5118 27.6296 34.222 27.923 34.222 28.286C34.222 28.649 34.5118 28.9424 34.8702 28.9424H36.8149C37.1734 28.9424 37.4631 28.649 37.4631 28.286C37.4631 27.923 37.1734 27.6296 36.8149 27.6296Z" fill="#2E2E2E"/>
<path d="M36.8149 30.9117H35.5191C35.1606 30.9117 34.8709 31.2051 34.8709 31.5681C34.8709 31.9311 35.1606 32.2245 35.5191 32.2245H36.8149C37.1734 32.2245 37.4631 31.9311 37.4631 31.5681C37.4631 31.2051 37.1734 30.9117 36.8149 30.9117Z" fill="#2E2E2E"/>
<path d="M36.8149 34.1937H34.8702C34.5118 34.1937 34.222 34.4872 34.222 34.8502C34.222 35.2131 34.5118 35.5066 34.8702 35.5066H36.8149C37.1734 35.5066 37.4631 35.2131 37.4631 34.8502C37.4631 34.4872 37.1734 34.1937 36.8149 34.1937Z" fill="#2E2E2E"/>
<path d="M36.8149 37.4758H34.2214C33.8629 37.4758 33.5731 37.7692 33.5731 38.1322C33.5731 38.4952 33.8629 38.7886 34.2214 38.7886H36.8149C37.1734 38.7886 37.4631 38.4952 37.4631 38.1322C37.4631 37.7692 37.1734 37.4758 36.8149 37.4758Z" fill="#2E2E2E"/>
<path d="M41.9987 9.24737C41.9981 9.16401 41.9818 9.0813 41.9501 9.00319C41.917 8.92245 41.8697 8.84959 41.8094 8.7892L37.2738 4.19299C37.2142 4.13194 37.1422 4.08402 37.0625 4.05054C36.9834 4.01707 36.8992 4 36.8149 4H16.0751C15.7166 4 15.4269 4.29342 15.4269 4.65641V19.7434H8.94466C7.8725 19.7434 7 20.627 7 21.7127V44.0308C7 45.1165 7.8725 46 8.94466 46H23.2055C24.2777 46 25.1502 45.1165 25.1502 44.0308V43.3717H41.3518C41.7102 43.3717 42 43.0783 42 42.7153V9.25525V9.25394C42 9.25131 41.9987 9.24737 41.9987 9.24737ZM37.4631 6.24165L39.7876 8.59752H37.4631V6.24165ZM8.29644 21.7127C8.29644 21.3503 8.58684 21.0563 8.94466 21.0563H23.2055C23.5633 21.0563 23.8537 21.3503 23.8537 21.7127V41.4051C23.8537 41.7674 23.5633 42.0615 23.2055 42.0615H8.94466C8.58684 42.0615 8.29644 41.7674 8.29644 41.4051V21.7127ZM23.2055 44.6872H8.94466C8.58684 44.6872 8.29644 44.3931 8.29644 44.0308V43.2529C8.49998 43.3264 8.71584 43.3743 8.94466 43.3743H23.2055C23.4343 43.3743 23.6502 43.3271 23.8537 43.2529V44.0308C23.8537 44.3931 23.5633 44.6872 23.2055 44.6872ZM25.1502 38.7886H30.979C31.3374 38.7886 31.6272 38.4952 31.6272 38.1322C31.6272 37.7692 31.3374 37.4758 30.979 37.4758H25.1502V35.5066H30.979C31.3374 35.5066 31.6272 35.2131 31.6272 34.8502C31.6272 34.4872 31.3374 34.1937 30.979 34.1937H25.1502V32.2245H30.979C31.3374 32.2245 31.6272 31.9311 31.6272 31.5681C31.6272 31.2051 31.3374 30.9117 30.979 30.9117H25.1502V28.9424H30.979C31.3374 28.9424 31.6272 28.649 31.6272 28.286C31.6272 27.923 31.3374 27.6296 30.979 27.6296H25.1502V25.6604H30.979C31.3374 25.6604 31.6272 25.3669 31.6272 25.0039C31.6272 24.6409 31.3374 24.3475 30.979 24.3475H25.1502V22.3783H30.979C31.3374 22.3783 31.6272 22.0849 31.6272 21.7219C31.6272 21.3589 31.3374 21.0655 30.979 21.0655H25.0335C24.7671 20.2981 24.0521 19.7434 23.2055 19.7434H16.7233V5.31283H36.1667V9.25394C36.1667 9.61694 36.4564 9.91035 36.8149 9.91035H40.7036V42.0595H25.1502V38.7886Z" fill="#2E2E2E"/>
</svg>
