<svg width="50" height="50" viewBox="0 0 50 50" fill="none" xmlns="http://www.w3.org/2000/svg">
<path d="M37.218 5.80588H31.4124C31.1353 4.99131 30.3588 4.40298 29.4459 4.40298H27.2895C26.635 3.52918 25.5983 3 24.5 3C23.4018 3 22.365 3.52918 21.7106 4.4029H19.5542C18.6413 4.4029 17.8648 4.99123 17.5876 5.8058H11.782C10.248 5.8058 9 7.04488 9 8.56779V42.238C9 43.761 10.2481 45 11.782 45H37.218C38.752 45 40 43.7609 40 42.238V8.56787C40.0001 7.04488 38.752 5.80588 37.218 5.80588ZM18.8034 6.46516L18.8035 6.46352C18.8039 6.05296 19.1405 5.71819 19.5542 5.71819H22.0658C22.3016 5.71819 22.5196 5.59375 22.6383 5.39129C23.0333 4.71757 23.7293 4.31529 24.5 4.31529C25.2708 4.31529 25.9667 4.71757 26.3618 5.39129C26.4804 5.59366 26.6985 5.71819 26.9343 5.71819H29.4459C29.859 5.71819 30.1951 6.05115 30.1966 6.46098L30.1965 6.46352L30.1967 6.46861V8.61176H18.8034V6.46516ZM38.6752 42.238C38.6752 43.0358 38.0215 43.6848 37.218 43.6848H11.782C10.9785 43.6848 10.3248 43.0358 10.3248 42.238V8.56787C10.3248 7.77012 10.9785 7.12109 11.782 7.12109H17.4787V9.26932C17.4787 9.63247 17.7752 9.92696 18.1411 9.92696H30.859C31.2248 9.92696 31.5214 9.63256 31.5214 9.26932V7.12109H37.218C38.0216 7.12109 38.6753 7.77012 38.6753 8.56787L38.6752 42.238Z" fill="#2E2E2E"/>
<path d="M24.5071 5.80588H24.5C24.1343 5.80588 23.8412 6.10029 23.8412 6.46352C23.8412 6.82668 24.1413 7.12117 24.5071 7.12117C24.8729 7.12117 25.1695 6.82676 25.1695 6.46352C25.1695 6.10029 24.8729 5.80588 24.5071 5.80588Z" fill="#2E2E2E"/>
<path d="M36.5115 8.61168H33.6852C33.3194 8.61168 33.0227 8.90609 33.0227 9.26932C33.0227 9.63256 33.3193 9.92696 33.6852 9.92696H35.8491V40.8789H13.151V9.92696H15.315C15.6808 9.92696 15.9774 9.63256 15.9774 9.26932C15.9774 8.90609 15.6809 8.61168 15.315 8.61168H12.4886C12.1228 8.61168 11.8262 8.90609 11.8262 9.26932V41.5366C11.8262 41.8997 12.1227 42.1942 12.4886 42.1942H36.5115C36.8773 42.1942 37.1739 41.8998 37.1739 41.5366V9.26932C37.1738 8.90617 36.8773 8.61168 36.5115 8.61168Z" fill="#2E2E2E"/>
<path d="M20.2607 17.0292C19.8949 17.0292 19.5983 17.3236 19.5983 17.6869C19.5983 18.4846 18.9445 19.1337 18.141 19.1337C17.3375 19.1337 16.6837 18.4846 16.6837 17.6869C16.6837 16.8891 17.3375 16.2401 18.141 16.2401C18.5068 16.2401 18.8034 15.9457 18.8034 15.5824C18.8034 15.2192 18.5069 14.9248 18.141 14.9248C16.607 14.9248 15.359 16.1639 15.359 17.6868C15.359 19.2097 16.607 20.4488 18.141 20.4488C19.675 20.4488 20.923 19.2097 20.923 17.6868C20.9231 17.3236 20.6265 17.0292 20.2607 17.0292Z" fill="#2E2E2E"/>
<path d="M20.2607 24.7453C19.8949 24.7453 19.5983 25.0397 19.5983 25.403C19.5983 26.2007 18.9445 26.8498 18.141 26.8498C17.3375 26.8498 16.6837 26.2007 16.6837 25.403C16.6837 24.6052 17.3375 23.9562 18.141 23.9562C18.5068 23.9562 18.8034 23.6618 18.8034 23.2986C18.8034 22.9353 18.5069 22.6409 18.141 22.6409C16.607 22.6409 15.359 23.88 15.359 25.4029C15.359 26.9258 16.607 28.1649 18.141 28.1649C19.675 28.1649 20.923 26.9258 20.923 25.4029C20.9231 25.0397 20.6265 24.7453 20.2607 24.7453Z" fill="#2E2E2E"/>
<path d="M32.9787 26.1482H23.087C22.7212 26.1482 22.4245 26.4426 22.4245 26.8059C22.4245 27.1691 22.7211 27.4635 23.087 27.4635H32.9787C33.3445 27.4635 33.6411 27.1691 33.6411 26.8059C33.6411 26.4426 33.3445 26.1482 32.9787 26.1482Z" fill="#2E2E2E"/>
<path d="M30.1525 23.3424H23.087C22.7212 23.3424 22.4245 23.6368 22.4245 24C22.4245 24.3632 22.7211 24.6576 23.087 24.6576H30.1525C30.5182 24.6576 30.8149 24.3632 30.8149 24C30.8149 23.6368 30.5183 23.3424 30.1525 23.3424Z" fill="#2E2E2E"/>
<path d="M32.9787 18.4321H23.087C22.7212 18.4321 22.4245 18.7265 22.4245 19.0898C22.4245 19.453 22.7211 19.7474 23.087 19.7474H32.9787C33.3445 19.7474 33.6411 19.453 33.6411 19.0898C33.6411 18.7265 33.3445 18.4321 32.9787 18.4321Z" fill="#2E2E2E"/>
<path d="M30.1525 15.6263H23.087C22.7212 15.6263 22.4245 15.9207 22.4245 16.284C22.4245 16.6472 22.7211 16.9416 23.087 16.9416H30.1525C30.5182 16.9416 30.8149 16.6472 30.8149 16.284C30.8149 15.9207 30.5183 15.6263 30.1525 15.6263Z" fill="#2E2E2E"/>
<path d="M20.2607 32.4614C19.8949 32.4614 19.5983 32.7558 19.5983 33.119C19.5983 33.9168 18.9445 34.5658 18.141 34.5658C17.3375 34.5658 16.6837 33.9168 16.6837 33.119C16.6837 32.3213 17.3375 31.6722 18.141 31.6722C18.5068 31.6722 18.8034 31.3778 18.8034 31.0146C18.8034 30.6513 18.5069 30.3569 18.141 30.3569C16.607 30.3569 15.359 31.596 15.359 33.1189C15.359 34.6419 16.607 35.8809 18.141 35.8809C19.675 35.8809 20.923 34.6418 20.923 33.1189C20.9231 32.7559 20.6265 32.4614 20.2607 32.4614Z" fill="#2E2E2E"/>
<path d="M32.9787 33.8643H23.087C22.7212 33.8643 22.4245 34.1588 22.4245 34.522C22.4245 34.8851 22.7211 35.1796 23.087 35.1796H32.9787C33.3445 35.1796 33.6411 34.8852 33.6411 34.522C33.641 34.1588 33.3445 33.8643 32.9787 33.8643Z" fill="#2E2E2E"/>
<path d="M30.1525 31.0585H23.087C22.7212 31.0585 22.4245 31.3529 22.4245 31.7161C22.4245 32.0793 22.7211 32.3737 23.087 32.3737H30.1525C30.5182 32.3737 30.8149 32.0793 30.8149 31.7161C30.8149 31.3529 30.5183 31.0585 30.1525 31.0585Z" fill="#2E2E2E"/>
</svg>
