<svg width="50" height="50" viewBox="0 0 50 50" fill="none" xmlns="http://www.w3.org/2000/svg">
<path d="M42.6333 4C42.43 4 42.235 4.08307 42.0912 4.23094C41.9474 4.3788 41.8667 4.57935 41.8667 4.78846V8.73077H8.13333V4.78846C8.13333 4.57935 8.05256 4.3788 7.90878 4.23094C7.765 4.08307 7.57 4 7.36667 4C5.94384 4.00167 4.57975 4.58369 3.57365 5.61839C2.56756 6.65308 2.00162 8.05595 2 9.51923V39.6463C2.00203 41.0656 2.55113 42.4261 3.52694 43.4296C4.50276 44.4332 5.82566 44.9979 7.20567 45H42.7943C44.1749 44.9979 45.4982 44.4328 46.4741 43.4285C47.45 42.4243 47.9988 41.063 48 39.6432V9.51923C47.9984 8.05595 47.4324 6.65308 46.4263 5.61839C45.4203 4.58369 44.0562 4.00167 42.6333 4ZM3.53333 9.51923C3.5343 8.61072 3.83987 7.73035 4.39851 7.02656C4.95715 6.32277 5.73468 5.83863 6.6 5.65577V34.0167C5.43419 34.1902 4.35642 34.7538 3.53333 35.6205V9.51923ZM46.4667 39.6463C46.4646 40.6474 46.0771 41.6068 45.3888 42.3146C44.7006 43.0224 43.7677 43.421 42.7943 43.4231H7.20567C6.2318 43.421 5.29844 43.022 4.61009 42.3135C3.92175 41.605 3.53455 40.6448 3.53333 39.6432V39.4808C3.53455 38.4356 3.93881 37.4336 4.65744 36.6945C5.37606 35.9555 6.35038 35.5397 7.36667 35.5385C7.57 35.5385 7.765 35.4554 7.90878 35.3075C8.05256 35.1597 8.13333 34.9591 8.13333 34.75V10.3077H41.8667V34.75C41.8667 34.9591 41.9474 35.1597 42.0912 35.3075C42.235 35.4554 42.43 35.5385 42.6333 35.5385C43.6496 35.5397 44.6239 35.9555 45.3426 36.6945C46.0612 37.4336 46.4655 38.4356 46.4667 39.4808V39.6463ZM46.4667 35.6213C45.6436 34.7546 44.5658 34.191 43.4 34.0175V5.65577C44.2653 5.83863 45.0428 6.32277 45.6015 7.02656C46.1601 7.73035 46.4657 8.61072 46.4667 9.51923V35.6213Z" fill="#2E2E2E"/>
<path d="M39.5667 15.0385H17.3333C17.13 15.0385 16.935 15.1215 16.7912 15.2694C16.6474 15.4173 16.5667 15.6178 16.5667 15.8269V21.3462H10.4333C10.23 21.3462 10.035 21.4292 9.89122 21.5771C9.74744 21.725 9.66667 21.9255 9.66667 22.1346V37.9038C9.66667 38.113 9.74744 38.3135 9.89122 38.4614C10.035 38.6092 10.23 38.6923 10.4333 38.6923H28.8333C29.0367 38.6923 29.2317 38.6092 29.3754 38.4614C29.5192 38.3135 29.6 38.113 29.6 37.9038V27.6538H34.9667C35.17 27.6538 35.365 27.5708 35.5088 27.4229C35.6526 27.275 35.7333 27.0745 35.7333 26.8654C35.7333 26.6563 35.6526 26.4557 35.5088 26.3079C35.365 26.16 35.17 26.0769 34.9667 26.0769H21.1667C20.9633 26.0769 20.7683 26.16 20.6245 26.3079C20.4808 26.4557 20.4 26.6563 20.4 26.8654V30.8077C20.4 31.0168 20.4808 31.2174 20.6245 31.3652C20.7683 31.5131 20.9633 31.5962 21.1667 31.5962C21.37 31.5962 21.565 31.5131 21.7088 31.3652C21.8526 31.2174 21.9333 31.0168 21.9333 30.8077V27.6538H28.0667V37.1154H21.9333V33.9615C21.9333 33.7524 21.8526 33.5519 21.7088 33.404C21.565 33.2561 21.37 33.1731 21.1667 33.1731C20.9633 33.1731 20.7683 33.2561 20.6245 33.404C20.4808 33.5519 20.4 33.7524 20.4 33.9615V37.1154H11.2V30.8077H17.3333C17.5367 30.8077 17.7317 30.7246 17.8754 30.5768C18.0192 30.4289 18.1 30.2283 18.1 30.0192C18.1 29.8101 18.0192 29.6096 17.8754 29.4617C17.7317 29.3138 17.5367 29.2308 17.3333 29.2308H11.2V22.9231H17.3333C17.5367 22.9231 17.7317 22.84 17.8754 22.6921C18.0192 22.5443 18.1 22.3437 18.1 22.1346V16.6154H28.0667V22.9231C28.0667 23.1322 28.1474 23.3327 28.2912 23.4806C28.435 23.6285 28.63 23.7115 28.8333 23.7115C29.0367 23.7115 29.2317 23.6285 29.3754 23.4806C29.5192 23.3327 29.6 23.1322 29.6 22.9231V16.6154H33.4862C33.6582 18.0029 34.2734 19.2925 35.2351 20.2816C36.1969 21.2707 37.4508 21.9033 38.8 22.0802V37.1154H32.6667C32.4633 37.1154 32.2683 37.1985 32.1245 37.3463C31.9808 37.4942 31.9 37.6947 31.9 37.9038C31.9 38.113 31.9808 38.3135 32.1245 38.4614C32.2683 38.6092 32.4633 38.6923 32.6667 38.6923H39.5667C39.77 38.6923 39.965 38.6092 40.1088 38.4614C40.2526 38.3135 40.3333 38.113 40.3333 37.9038V15.8269C40.3333 15.6178 40.2526 15.4173 40.1088 15.2694C39.965 15.1215 39.77 15.0385 39.5667 15.0385ZM35.0357 16.6154H38.8V20.4867C37.8601 20.3215 36.9932 19.8604 36.3189 19.167C35.6447 18.4736 35.1963 17.582 35.0357 16.6154Z" fill="#2E2E2E"/>
</svg>
