<svg width="0" height="0" fill="#2E2E2E" xmlns="http://www.w3.org/2000/svg">
  <symbol viewBox="0 0 50 50" id="3d_design">
    <path d="M32.5 30.766a.792.792 0 0 0-.781.803c0 .443.35.802.781.802.431 0 .781-.36.781-.802a.792.792 0 0 0-.781-.803zm-6.719-14.124A.792.792 0 0 0 25 15.84a.792.792 0 0 0-.781.802c0 .444.35.803.781.803.431 0 .781-.36.781-.803zM17.5 32.371c.431 0 .781-.36.781-.802a.792.792 0 0 0-.781-.803.792.792 0 0 0-.781.803c0 .443.35.802.781.802z"></path>
    <path d="M44.536 36.185l-4.224-1.928V16.643a.807.807 0 0 0-.48-.741l-14.05-6.208V3.802A.792.792 0 0 0 25 3a.792.792 0 0 0-.781.803v5.891l-14.051 6.208a.807.807 0 0 0-.48.74v17.615l-4.224 1.928a.812.812 0 0 0-.397 1.059.773.773 0 0 0 1.032.407l4.375-1.996 14.218 6.28a.774.774 0 0 0 .617 0l14.217-6.28 4.375 1.996a.773.773 0 0 0 1.031-.407.811.811 0 0 0-.396-1.06zM24.219 11.44v1.991c0 .444.35.803.781.803.431 0 .781-.36.781-.803v-1.99l11.773 5.2L25 22.19l-12.554-5.547 11.773-5.2zm-8.86 21.106a.774.774 0 0 0-1.032-.408l-3.077 1.405V17.861l12.969 5.73V39.98l-11.8-5.213 2.543-1.16a.812.812 0 0 0 .397-1.06zM25.78 39.98V23.59l12.969-5.729v15.683l-3.077-1.404a.773.773 0 0 0-1.032.407.811.811 0 0 0 .397 1.06l2.543 1.16-11.8 5.213z"></path>
  </symbol>
  <symbol viewBox="0 0 50 50" id="before_clean_repairs">
    <path d="M5.683 45h32.8a.683.683 0 0 0 .684-.683v-6.15h4.783a.683.683 0 0 0 .683-.684V30.65a.683.683 0 0 0-.683-.683h-4.783v-6.15a.683.683 0 0 0-.684-.684H37.23a1.58 1.58 0 0 0-.279-1.28l-3.088-4.116 1.426-1.069a2.362 2.362 0 0 0 .943-2.024l-.069-1.231a.999.999 0 0 1 .398-.855l1.426-1.07.6.8a.682.682 0 0 0 .956.136l5.638-4.23a2.05 2.05 0 0 0 .41-2.869l-.38-.506a2.052 2.052 0 0 0-2.87-.41l-5.637 4.23a.684.684 0 0 0-.137.957l.6.8-1.426 1.069a2.361 2.361 0 0 0-.942 2.024l.068 1.23a.997.997 0 0 1-.398.856l-1.425 1.07-3.088-4.117a1.584 1.584 0 0 0-1.391-.639c-.518.038-.98.338-1.226.796l-5.615 10.448H5.683a.683.683 0 0 0-.683.683v6.834c0 .377.306.683.683.683h4.784V36.8H5.683a.683.683 0 0 0-.683.683v6.834c0 .377.306.683.683.683zM43.16 5.502a.683.683 0 0 1 .957.137l.38.507a.684.684 0 0 1-.137.956l-5.091 3.82-1.2-1.6 5.091-3.82zM17.3 38.167h9.567v5.466H17.3v-5.466zm5.467-6.834h9.566V36.8h-9.566v-5.467zm15.033 12.3h-9.567v-5.466H37.8v5.466zm5.467-6.833H33.7v-5.467h9.567V36.8zM37.8 29.967h-9.567v-3.98l6.995-1.487H37.8v5.467zm-9.258-16.635a.143.143 0 0 1 .125-.08h.013c.073 0 .14.037.181.096l3.088 4.116-2.82 2.115a.684.684 0 0 0 .821 1.094l2.819-2.115 3.088 4.116a.22.22 0 0 1 .037.214.143.143 0 0 1-.111.097l-13.557 2.883a.222.222 0 0 1-.217-.093.218.218 0 0 1-.028-.234l6.561-12.209zm-7.626 13.263c.364.5.989.74 1.594.61l4.357-.927v3.689H17.3V24.5h3.688l-.211.394a1.57 1.57 0 0 0 .139 1.701zm-14.55.638h1.367a.683.683 0 1 0 0-1.367H6.367V24.5h9.567v5.467H6.367v-2.734zm5.467 4.1H21.4V36.8h-9.567v-5.467zm-5.466 6.834h9.567v5.466H6.367v-5.466z"></path>
    <path d="M13.883 26.55a.683.683 0 0 0-.683-.684h-2.733a.683.683 0 0 0 0 1.367H13.2a.683.683 0 0 0 .683-.683z"></path>
  </symbol>
  <symbol viewBox="0 0 50 50" id="credit">
    <path d="M25.882 33.429a.715.715 0 0 0-.716.714v1.523a.715.715 0 0 0 1.433 0v-1.523a.715.715 0 0 0-.717-.714z"></path>
    <path d="M47.566 23.194a1.473 1.473 0 0 0-1.047-.432h-1.84c-.023 0-.039-.026-.044-.05a15.171 15.171 0 0 0-3.279-6.74 15.317 15.317 0 0 0-5.878-4.27c-.365-1.537-1.136-3.12-2.656-4.311-1.472-1.153-2.955-1.375-3.017-1.384a.719.719 0 0 0-.818.707v3.857h-2.6a5.308 5.308 0 0 0-5.09-3.81 5.31 5.31 0 0 0-5.131 3.95 15.22 15.22 0 0 0-9.222 4.853A15.13 15.13 0 0 0 3 25.762c0 8.48 4.417 15.381 5.77 17.294a2.248 2.248 0 0 0 1.833.944h3.05a2.244 2.244 0 0 0 2.245-2.238v-.989c.772.119 1.556.18 2.34.18h6.928v.809A2.244 2.244 0 0 0 27.41 44h3.35a2.255 2.255 0 0 0 2.195-1.77l.368-1.71a15.237 15.237 0 0 0 10.36-8.71h2.835A1.48 1.48 0 0 0 48 30.334v-6.096c0-.394-.154-.765-.434-1.044zM21.296 8.191c2.134 0 3.87 1.73 3.87 3.857a3.85 3.85 0 0 1-.337 1.571h-7.065a3.852 3.852 0 0 1-.337-1.571 3.868 3.868 0 0 1 3.87-3.857zm25.27 22.142a.048.048 0 0 1-.047.048h-2.296c.39-1.218.63-2.5.699-3.82a.716.716 0 1 0-1.431-.074c-.304 5.834-4.287 10.815-9.83 12.463l1.002-4.657a.716.716 0 1 0-1.401-.3l-1.707 7.938a.816.816 0 0 1-.794.64h-3.35a.812.812 0 0 1-.812-.81v-3.047a.715.715 0 0 0-1.433 0v.81h-6.927c-.786 0-1.571-.068-2.341-.199v-5.182a.715.715 0 0 0-1.433 0v7.619c0 .446-.364.81-.812.81h-3.05a.799.799 0 0 1-.661-.34c-1.292-1.825-5.509-8.41-5.509-16.47 0-3.423 1.269-6.704 3.573-9.238a13.787 13.787 0 0 1 7.99-4.342c.012.489.093.973.237 1.437h-.287a.715.715 0 1 0 0 1.429h10.7a.715.715 0 1 0 0-1.429h-.287c.158-.506.24-1.036.24-1.571L26.597 12h2.39v1.571a.716.716 0 0 0 1.433 0V7.652c1.36.513 3.918 2.088 3.918 6.681a.715.715 0 0 0 1.433 0c0-.302-.011-.622-.036-.952a13.91 13.91 0 0 1 4.526 3.512 13.742 13.742 0 0 1 2.97 6.104 1.49 1.49 0 0 0 1.449 1.194h1.84c.004 0 .019 0 .033.014.014.014.014.028.014.033v6.095z"></path>
    <path d="M40.311 23.227c-.444-1.19-1.622-1.989-2.929-1.989-1.307 0-2.484.8-2.929 1.989a.717.717 0 0 0 1.343.5c.237-.635.874-1.06 1.586-1.06.712 0 1.35.425 1.587 1.059a.717.717 0 0 0 1.342-.5zm-16.613 3.492c2.937 0 4.302-1.752 4.302-3.86C28 20.752 26.635 19 23.698 19h-4.611v6.322H17v1.397h2.087v1.218H17v1.397h2.087V32h1.597v-2.666h2.91v-1.396h-2.91v-1.22h3.014zm-3.014-1.397v-4.925h3.014c1.855 0 2.73 1.04 2.73 2.462 0 1.422-.875 2.463-2.73 2.463h-3.014z"></path>
  </symbol>
  <symbol viewBox="0 0 50 50" id="empty_promises">
    <path fill-rule="evenodd" clip-rule="evenodd" d="M4.47 4.47a.75.75 0 0 1 1.06 0l40 40a.75.75 0 1 1-1.06 1.06l-40-40a.75.75 0 0 1 0-1.06zm7.4 10.581a76.782 76.782 0 0 1-5.545.938 2.48 2.48 0 0 0-1.685 1.004H2.453A2.453 2.453 0 0 0 0 19.44v4.996c0 1.35 1.1 2.447 2.453 2.447H4.64c.388.534.987.912 1.685 1.004.098.012.196.026.293.04l.08.01 3.847 13.81a2.46 2.46 0 0 0 2.363 1.791h5.412a.782.782 0 1 0 0-1.561h-.24l-3.494-12.54c8.214 1.995 14.061 4.765 15.53 5.497a2.455 2.455 0 0 0 2.4 1.942h1.178l-3.767-3.767c-3.204-1.506-12.096-5.287-23.398-6.77a.897.897 0 0 1-.788-.879v-7.044c0-.442.339-.82.788-.878a78.66 78.66 0 0 0 6.656-1.171l-1.316-1.316zm-9.417 10.27h1.722v-6.766H2.453a.887.887 0 0 0-.887.885v4.996c0 .488.398.885.887.885zm10.455 16.656h3.546L12.85 29.034a78.196 78.196 0 0 0-4.456-.846l3.66 13.14a.89.89 0 0 0 .855.649z"></path>
    <path d="M30.063 26.88l1.565 1.566V16.11a.782.782 0 0 0-1.566 0v10.77z"></path>
    <path d="M35.908 32.726V9.446a.887.887 0 0 0-.887-.885h-2.505a.887.887 0 0 0-.888.885v3.332a.782.782 0 0 1-1.566 0v-2.075c-1.919.91-6.128 2.753-11.799 4.378l-1.265-1.265c6.937-1.91 11.797-4.216 13.117-4.874A2.455 2.455 0 0 1 32.515 7h2.506a2.452 2.452 0 0 1 2.453 2.446v24.846l-1.566-1.566zm4.958-11.569h8.351a.782.782 0 1 1 0 1.562h-8.35a.782.782 0 1 1 0-1.562zm6.565-7.854a.783.783 0 0 0-1.027-.41l-.836.357a.78.78 0 1 0 .617 1.435l.835-.357a.78.78 0 0 0 .411-1.025zm-4.368 1.017a.78.78 0 1 1 .617 1.435l-2.505 1.071a.783.783 0 0 1-1.028-.41.78.78 0 0 1 .411-1.025l2.505-1.07zm3.957 15.228l-.837-.358a.78.78 0 1 0-.617 1.435l.837.358a.783.783 0 0 0 1.028-.41.78.78 0 0 0-.41-1.025zm-5.845-2.498l2.504 1.07a.78.78 0 0 1-.309 1.498.783.783 0 0 1-.308-.063l-2.504-1.07a.78.78 0 1 1 .617-1.435z"></path>
  </symbol>
  <symbol viewBox="0 0 50 50" id="execution_control">
    <g clip-path="url(#clip0)">
      <path d="M34.015 34.153a.756.756 0 0 0-.906.564l-.874 3.779h-6.2v.026c.51.382.924.89 1.19 1.478h5.611a.755.755 0 0 0 .737-.583l1.01-4.363a.752.752 0 0 0-.568-.901zM12.347 9.449h12.995a.754.754 0 0 0 .756-.752.754.754 0 0 0-.756-.752H12.347a.754.754 0 0 0-.756.752c0 .415.338.752.756.752zm11.635 3.609H10.987a.754.754 0 0 1-.756-.752c0-.415.338-.752.756-.752h12.995c.418 0 .756.337.756.752a.754.754 0 0 1-.756.752zm3.793-2.894a.753.753 0 0 0 .74.604c.182 0 .36-.065.5-.188l2.57-2.256a.75.75 0 0 0 .066-1.061.758.758 0 0 0-1.066-.067L28.999 8.59l-.045-.224a.755.755 0 0 0-1.481.295l.302 1.504z"></path>
      <path fill-rule="evenodd" clip-rule="evenodd" d="M7.98 24.893L6.02 16.42a.75.75 0 0 1 0-.338L8.68 4.583A.755.755 0 0 1 9.416 4h26.081c.23 0 .448.104.592.284a.75.75 0 0 1 .145.637l-2.622 11.33 1.21 5.227a.756.756 0 0 1-1.473.338l-1.114-4.813H7.705l1.46 6.306a3.807 3.807 0 0 0-1.185 1.584zm2.038-19.389h24.53L32.235 15.5H7.705l2.313-9.995z"></path>
      <path d="M17.928 24.557a3.814 3.814 0 0 0-1.4-1.504h8.814c.418 0 .756.337.756.752a.754.754 0 0 1-.756.752H17.93zm3.364 2.44c.557.457 1.077.96 1.552 1.504h5.862a.754.754 0 0 0 .755-.752.754.754 0 0 0-.755-.752h-7.414zm3.92 5.449a12.785 12.785 0 0 0-.682-1.504h.812c.418 0 .756.336.756.752a.754.754 0 0 1-.756.752h-.13zm-.474-12.251a.754.754 0 0 0-.756-.752H10.987a.754.754 0 0 0-.756.752c0 .415.338.752.756.752h12.995a.754.754 0 0 0 .756-.752zm3.928 2.236a.759.759 0 0 1-.704-.276l-.959-1.2a.75.75 0 0 1 .122-1.057.758.758 0 0 1 1.061.12l.143.18.772-1.96a.757.757 0 0 1 .979-.425.75.75 0 0 1 .428.974l-1.25 3.175a.755.755 0 0 1-.592.47zm-.03 3.603a.757.757 0 0 0 1.295-.193l1.25-3.175a.751.751 0 0 0-.427-.975.757.757 0 0 0-.98.426l-.77 1.959-.144-.179a.758.758 0 0 0-1.061-.12.75.75 0 0 0-.122 1.056l.96 1.201z"></path>
      <path fill-rule="evenodd" clip-rule="evenodd" d="M45.943 13.934l3.852 4.088a.75.75 0 0 1-.034 1.063l-14.437 13.48a.755.755 0 0 1-.328.18L29.322 34.2a.758.758 0 0 1-.74-.214.749.749 0 0 1-.166-.748l1.82-5.543a.75.75 0 0 1 .201-.314L44.875 13.9a.76.76 0 0 1 1.068.033zM31.276 29.37l-.996 3.03 3.103-.796-2.107-2.235zm.746-1.407l2.82 2.99 13.334-12.45-2.818-2.991-13.336 12.451z"></path>
      <path d="M24.535 39.402V36.98a11.29 11.29 0 0 0-2.345-6.91 11.671 11.671 0 0 0-5.345-3.891A2.293 2.293 0 0 0 14.559 24h-3.054c-1.226 0-2.23.968-2.288 2.179a11.672 11.672 0 0 0-5.345 3.89 11.29 11.29 0 0 0-2.344 6.91v2.423A2.294 2.294 0 0 0 0 41.56a2.293 2.293 0 0 0 2.29 2.29h21.481a2.293 2.293 0 0 0 2.29-2.29c0-.995-.638-1.844-1.526-2.16zM3.055 36.98c0-2.753 1.175-5.33 3.104-7.17v2.59a.764.764 0 1 0 1.527 0v-3.787a9.936 9.936 0 0 1 1.527-.797v6.11a.763.763 0 1 0 1.527 0v-7.634c0-.421.343-.764.764-.764h3.054c.42 0 .763.343.763.764v7.633a.764.764 0 0 0 1.527 0v-6.11c.536.223 1.046.49 1.527.797V32.4a.764.764 0 0 0 1.527 0v-2.59c1.93 1.84 3.105 4.417 3.105 7.17v2.29H3.055v-2.29zm20.716 5.345H2.291a.764.764 0 0 1 0-1.528h21.48a.764.764 0 0 1 0 1.528z"></path>
    </g>
    <defs>
      <clipPath id="clip0">
        <path d="M0 0h50v50H0V0z" fill="#fff"></path>
      </clipPath>
    </defs>
  </symbol>
  <symbol viewBox="0 0 50 50" id="free_design">
    <path d="M29.922 32.383a.82.82 0 1 0 0 1.641.82.82 0 0 0 0-1.641z"></path>
    <path d="M41.898 4H8.102A4.106 4.106 0 0 0 4 8.102v25.101a4.106 4.106 0 0 0 4.102 4.102h12.796v3.773h-.82a4.075 4.075 0 0 0-2.9 1.202 4.075 4.075 0 0 0-1.201 2.9c0 .453.367.82.82.82h16.406a.82.82 0 0 0 .82-.82 4.106 4.106 0 0 0-4.101-4.102h-.82v-3.773h12.796A4.106 4.106 0 0 0 46 33.203V8.102A4.106 4.106 0 0 0 41.898 4zM8.102 5.64h33.796a2.464 2.464 0 0 1 2.461 2.462v21h-3.773V10.234a.82.82 0 0 0-.82-.82h-6.563a.82.82 0 0 0-.82.82v18.868h-4.106a75.648 75.648 0 0 0-.066-2.497c-.144-3.34-.471-5.578-.641-6.563a4.102 4.102 0 0 0 1.12-5.35l-2.843-4.925a.82.82 0 0 0-1.421 0l-2.845 4.925a4.101 4.101 0 0 0 .903 5.177c-.178.981-.536 3.3-.692 6.735-.036.82-.06 1.657-.069 2.498h-4.106V16.797c0-.13-.03-.249-.08-.354-.003-.004-.004-.009-.006-.013l-3.282-6.563a.82.82 0 0 0-1.467 0L9.5 16.43l-.006.013a.816.816 0 0 0-.08.354v12.305H5.64v-21A2.464 2.464 0 0 1 8.1 5.64zm25.921 23.462V11.055h4.922v1.64h-.82a.82.82 0 1 0 0 1.64h.82v2.462h-.82a.82.82 0 1 0 0 1.64h.82v2.461h-.82a.82.82 0 0 0 0 1.641h.82v3.281h-.82a.82.82 0 1 0 0 1.64h.82v1.642h-4.922zm-8.887-8.26c.298 0 .595-.035.885-.099.152.976.376 2.703.508 5.077h-3.053c.139-2.373.373-4.126.535-5.135.363.104.742.157 1.125.157zm0-1.64c-1.875 0-3.084-2.041-2.134-3.69l2.134-3.694 2.133 3.694c.946 1.642-.246 3.69-2.133 3.69zm-1.735 8.259h3.2c.018.539.03 1.087.036 1.64h-3.273c.006-.55.018-1.098.037-1.64zm-9.065 1.64V17.618h1.64v11.485h-1.64zm-3.281 0V17.618h1.64v11.485h-1.64zm.507-13.124l1.954-3.909 1.954 3.909h-3.908zm20.68 28.382H17.757c.12-.342.317-.655.581-.92a2.445 2.445 0 0 1 1.74-.72h9.844c1.07 0 1.982.685 2.32 1.64zm-4.781-3.28h-4.922v-3.774h4.922v3.773zm14.437-5.415H8.102a2.464 2.464 0 0 1-2.461-2.46v-2.462h38.718v2.461a2.464 2.464 0 0 1-2.46 2.461z"></path>
    <path d="M26.64 32.383h-4.92a.82.82 0 1 0 0 1.64h4.922a.82.82 0 1 0 0-1.64z"></path>
  </symbol>
  <symbol viewBox="0 0 50 50" id="interior_equipment">
    <path fill-rule="evenodd" clip-rule="evenodd" d="M17.083 30.575A2.578 2.578 0 0 1 19.658 28H21.1a.64.64 0 1 1 0 1.279h-1.442c-.715 0-1.296.581-1.296 1.296v2.015h.627c.188 0 .376.03.555.094.57.202.997.703 1.105 1.294h7.144c.63 0 1.255.205 1.768.569v-3.972c0-.715-.582-1.296-1.296-1.296h-5.408a.64.64 0 0 1 0-1.279h5.408c.77 0 1.463.341 1.935.88a2.569 2.569 0 0 1 1.935-.88h8.607a2.578 2.578 0 0 1 2.575 2.575v2.015h.396c.93 0 1.687.757 1.687 1.687v4.588a3.3 3.3 0 0 1-3.23 3.296l.382 1.026c.352.947-.368 1.983-1.379 1.983h-.706c-.459 0-.897-.218-1.173-.583l-1.835-2.425H22.941l-1.835 2.425a1.477 1.477 0 0 1-1.172.583h-.707c-1.01 0-1.731-1.035-1.379-1.983l.382-1.026A3.3 3.3 0 0 1 15 38.865v-4.588c0-.93.757-1.687 1.687-1.687h.396v-2.015zm21.98 11.587h1.743l.547 1.47a.195.195 0 0 1-.18.26h-.706a.194.194 0 0 1-.153-.077l-1.251-1.653zm-22.376-8.293a.409.409 0 0 0-.408.408v4.588a2.02 2.02 0 0 0 2.017 2.018h23.808a2.02 2.02 0 0 0 2.017-2.018v-4.588a.409.409 0 0 0-.408-.408h-2.302a.409.409 0 0 0-.408.408v3.813a.64.64 0 0 1-.64.64h-2.427a.64.64 0 1 1 0-1.28h1.788v-2.193h-7.117a1.77 1.77 0 0 0-1.767 1.768v.425h5.338a.64.64 0 1 1 0 1.279H20.037a.64.64 0 0 1-.64-.64v-3.812a.409.409 0 0 0-.408-.408h-2.302zm3.989 1.389v2.192h8.885v-.425a1.77 1.77 0 0 0-1.768-1.767h-7.117zm11.46-5.979c-.715 0-1.297.581-1.297 1.296v3.972a3.084 3.084 0 0 1 1.768-.568h7.144c.021-.121.056-.24.104-.354a1.722 1.722 0 0 1 1.556-1.035h.627v-2.015c0-.715-.581-1.296-1.296-1.296h-8.607zm-13.09 14.354l.548-1.471h1.743l-1.25 1.653a.194.194 0 0 1-.154.076h-.706a.195.195 0 0 1-.18-.258z"></path>
    <path fill-rule="evenodd" clip-rule="evenodd" d="M5 11.746C5 9.683 6.649 8 8.682 8h13.936c2.033 0 3.682 1.683 3.682 3.746V26.5h-1.364v-2.926h-4.36a.687.687 0 0 1-.682-.692c0-.38.303-.692.683-.692h4.359V11.746c0-1.305-1.043-2.362-2.318-2.362H8.682c-1.275 0-2.318 1.057-2.318 2.362V22.19h12.084c.38 0 .682.313.682.692 0 .38-.303.692-.682.692H6.364v15.4c0 1.305 1.043 2.362 2.318 2.362h5.504a4.83 4.83 0 0 0 1.258 1.384h-1.08v.535c0 1.125-.899 2.045-2.01 2.045H10.01C8.899 45.3 8 44.38 8 43.255v-.6c-1.708-.327-3-1.855-3-3.681V11.745zM9.364 42.72v.535c0 .367.293.661.647.661h2.343a.655.655 0 0 0 .646-.661v-.535H9.364z"></path>
    <path fill-rule="evenodd" clip-rule="evenodd" d="M10.114 10.627c-1.168 0-2.114.967-2.114 2.151v6.018c0 1.184.946 2.151 2.114 2.151 1.17 0 2.115-.967 2.115-2.151v-6.018c0-1.184-.946-2.15-2.115-2.15zm-.75 2.151a.76.76 0 0 1 .75-.767.76.76 0 0 1 .751.767v6.018a.76.76 0 0 1-.75.767.76.76 0 0 1-.751-.767v-6.018zm.75 11.626c-1.168 0-2.114.968-2.114 2.151v11.077c0 1.184.946 2.151 2.114 2.151 1.17 0 2.115-.967 2.115-2.151V26.555c0-1.183-.946-2.15-2.115-2.15zm-.75 2.151a.76.76 0 0 1 .75-.767.76.76 0 0 1 .751.767v11.077a.76.76 0 0 1-.75.767.76.76 0 0 1-.751-.767V26.555z"></path>
  </symbol>
  <symbol viewBox="0 0 50 50" id="online_cabinet">
    <path d="M39.779 14.795a.693.693 0 0 0 .704-.68V6.856c0-1.575-1.327-2.857-2.96-2.857H8.96C7.328 4 6 5.282 6 6.857v36.286C6 44.718 7.328 46 8.96 46h28.563c1.633 0 2.96-1.282 2.96-2.858v-7.257a.693.693 0 0 0-.704-.68.693.693 0 0 0-.705.68v7.258c0 .825-.696 1.496-1.55 1.496H8.96c-.855 0-1.55-.671-1.55-1.497V6.858c0-.825.695-1.496 1.55-1.496h28.563c.855 0 1.55.671 1.55 1.496v7.257c0 .376.316.68.706.68z"></path>
    <path d="M24.745 6.903h-3.007a.693.693 0 0 0-.704.68c0 .376.315.68.704.68h3.007c.39 0 .705-.304.705-.68a.693.693 0 0 0-.705-.68zm-6.013.003a.696.696 0 0 0-.705.684c0 .376.315.68.704.68.39 0 .705-.304.705-.68v-.007a.69.69 0 0 0-.704-.677zm6.013 34.83h-3.007a.693.693 0 0 0-.704.68c0 .377.315.681.704.681h3.007c.39 0 .705-.304.705-.68a.693.693 0 0 0-.705-.68zm12.026-26.941c.39 0 .705-.305.705-.68v-3.63a.693.693 0 0 0-.705-.68H9.711a.693.693 0 0 0-.705.68v29.029c0 .376.316.68.705.68h27.06c.39 0 .705-.304.705-.68v-3.629a.693.693 0 0 0-.705-.68.693.693 0 0 0-.704.68v2.949H10.416V11.166h25.65v2.948c0 .376.316.68.705.68z"></path>
    <path d="M28.503 33.754H22.49a.693.693 0 0 0-.705.68c0 .376.316.68.705.68h6.013c.39 0 .705-.304.705-.68a.693.693 0 0 0-.705-.68zm-9.02 0H17.98a.693.693 0 0 0-.705.68c0 .376.316.68.705.68h1.503c.39 0 .705-.304.705-.68a.693.693 0 0 0-.705-.68zm3.759-18.143c-2.047 0-3.712 1.608-3.712 3.583 0 1.976 1.665 3.583 3.712 3.583 2.046 0 3.711-1.607 3.711-3.583 0-1.975-1.665-3.583-3.711-3.583zm0 5.806c-1.27 0-2.302-.997-2.302-2.223 0-1.225 1.032-2.222 2.302-2.222 1.269 0 2.302.997 2.302 2.222 0 1.226-1.033 2.223-2.302 2.223zm15.785-5.08c-4.948 0-8.973 3.886-8.973 8.663 0 2.506 1.099 4.838 3.036 6.486-.972 1.537-2.027 2.422-2.038 2.43a.665.665 0 0 0-.193.779.705.705 0 0 0 .707.417c.116-.008 2.762-.227 5.11-1.75a9.28 9.28 0 0 0 2.35.301C43.976 33.663 48 29.777 48 25s-4.025-8.663-8.973-8.663zm0 15.965a7.813 7.813 0 0 1-2.268-.334.726.726 0 0 0-.626.1c-.868.61-1.82 1.005-2.638 1.258.366-.466.756-1.026 1.123-1.672a.665.665 0 0 0-.19-.866C32.545 29.39 31.464 27.28 31.464 25c0-4.027 3.393-7.302 7.564-7.302 4.17 0 7.564 3.276 7.564 7.302s-3.394 7.302-7.564 7.302z"></path>
    <path d="M42.714 21.44a2.233 2.233 0 0 0-1.561-.624c-.59 0-1.145.222-1.561.624a2.08 2.08 0 0 0-.416 2.454l-3.837 3.704a.664.664 0 0 0 0 .962.717.717 0 0 0 .997 0l.565-.545.564.545a.717.717 0 0 0 .997 0 .664.664 0 0 0 0-.962l-.565-.545 2.276-2.197a2.272 2.272 0 0 0 2.541-.401 2.081 2.081 0 0 0 0-3.015zm-.996 2.053a.82.82 0 0 1-1.13 0 .753.753 0 0 1 0-1.09.808.808 0 0 1 .565-.227c.213 0 .414.08.565.226a.753.753 0 0 1 0 1.09zm-14.783.617c-.594-.453-1.473-.363-2.002.204a2.289 2.289 0 0 1-1.692.731c-.65 0-1.25-.26-1.69-.731-.53-.567-1.41-.657-2.003-.204-1.445 1.1-2.273 2.747-2.273 4.519v2.177c0 .375.316.68.705.68h10.523c.39 0 .705-.305.705-.68v-2.177c0-1.772-.828-3.419-2.273-4.519zm.864 6.015h-9.114v-1.497c0-1.352.633-2.61 1.732-3.449.01-.002.05.007.086.046a3.755 3.755 0 0 0 2.738 1.181c1.04 0 2.038-.43 2.739-1.181a.148.148 0 0 1 .081-.048c1.104.841 1.738 2.1 1.738 3.452v1.496z"></path>
  </symbol>
  <symbol viewBox="0 0 50 50" id="possessions">
    <g clip-path="url(#clip0)">
      <path d="M22 6.175c0 1.121.88 2.052 2.048 2.164l8.335.805c.086.389.284.745.573 1.021l6.27 6.429A4.627 4.627 0 0 0 42.531 18H50v-7.636h-3.515c-.542 0-1.07-.218-1.462-.613l-5.107-4.83A3.4 3.4 0 0 0 37.569 4H24.28C23.023 4 22 4.976 22 6.175zm15.57-.902c.53 0 1.03.196 1.409.553l5.09 4.815a3.416 3.416 0 0 0 2.416.995h2.182v5.091H42.54a3.255 3.255 0 0 1-2.33-.996l-6.293-6.45a.786.786 0 0 1-.244-.66.798.798 0 0 1 .244-.509.885.885 0 0 1 .614-.243c.23 0 .449.088.59.222l4.718 4.965.986-.856-4.74-4.988a2.24 2.24 0 0 0-1.556-.616 2.23 2.23 0 0 0-1.554.615 2.027 2.027 0 0 0-.471.666l-8.32-.803c-.485-.047-.85-.434-.85-.899 0-.498.423-.902.945-.902h13.29zM28 43.825c0-1.121-.88-2.052-2.048-2.164l-8.335-.805a2.017 2.017 0 0 0-.573-1.021l-6.27-6.429A4.627 4.627 0 0 0 7.469 32H0v7.636h3.515c.542 0 1.07.218 1.462.612l5.107 4.83c.63.595 1.463.922 2.347.922h13.29C26.977 46 28 45.024 28 43.825zm-15.57.902a2.04 2.04 0 0 1-1.409-.553l-5.09-4.815a3.416 3.416 0 0 0-2.416-.995H1.333v-5.091H7.46c.884.006 1.73.366 2.33.996l6.293 6.45c.181.172.27.409.244.66a.798.798 0 0 1-.244.509.885.885 0 0 1-.614.243.875.875 0 0 1-.59-.221l-4.718-4.965-.986.855 4.74 4.988a2.24 2.24 0 0 0 1.556.616 2.23 2.23 0 0 0 1.554-.615c.206-.194.363-.419.471-.666l8.32.803c.485.047.85.434.85.899 0 .497-.423.902-.945.902h-13.29z"></path>
      <path fill-rule="evenodd" clip-rule="evenodd" d="M11.883 19.17a2.578 2.578 0 0 1 2.575-2.575H15.9a.64.64 0 1 1 0 1.279h-1.442c-.715 0-1.296.581-1.296 1.296v2.015h.627c.188 0 .376.03.555.094.569.202.997.703 1.105 1.294h7.144c.63 0 1.255.205 1.767.569V19.17c0-.715-.581-1.296-1.295-1.296h-5.408a.64.64 0 0 1 0-1.279h5.408c.77 0 1.463.341 1.935.88a2.569 2.569 0 0 1 1.935-.88h8.607a2.578 2.578 0 0 1 2.575 2.575v2.015h.396c.93 0 1.687.757 1.687 1.687v4.588a3.3 3.3 0 0 1-3.23 3.296l.382 1.026c.352.947-.368 1.983-1.379 1.983h-.706c-.459 0-.897-.218-1.173-.583l-1.835-2.425H17.741l-1.835 2.425a1.477 1.477 0 0 1-1.173.583h-.706c-1.01 0-1.731-1.036-1.379-1.983l.382-1.026A3.3 3.3 0 0 1 9.8 27.46v-4.588c0-.93.756-1.687 1.687-1.687h.396V19.17zm21.98 11.587h1.743l.547 1.47a.195.195 0 0 1-.18.26h-.706a.194.194 0 0 1-.153-.077l-1.251-1.653zm-22.376-8.293a.409.409 0 0 0-.408.408v4.588a2.02 2.02 0 0 0 2.017 2.018h23.808a2.02 2.02 0 0 0 2.017-2.018v-4.588a.409.409 0 0 0-.408-.408h-2.302a.409.409 0 0 0-.408.408v3.813a.64.64 0 0 1-.64.64h-2.427a.64.64 0 0 1 0-1.28h1.788v-2.193h-7.117a1.77 1.77 0 0 0-1.768 1.768v.425h5.339a.64.64 0 1 1 0 1.279H14.836a.64.64 0 0 1-.639-.64v-3.812a.409.409 0 0 0-.408-.408h-2.302zm3.989 1.388v2.193h8.884v-.425a1.77 1.77 0 0 0-1.767-1.768h-7.117zm11.46-5.978c-.715 0-1.297.582-1.297 1.296v3.972a3.084 3.084 0 0 1 1.768-.568h7.143c.022-.121.057-.24.105-.354a1.722 1.722 0 0 1 1.556-1.035h.627V19.17c0-.715-.581-1.296-1.296-1.296h-8.607zm-13.09 14.354l.548-1.471h1.743l-1.25 1.653a.194.194 0 0 1-.154.076h-.707a.195.195 0 0 1-.18-.258z"></path>
    </g>
    <defs>
      <clipPath id="clip0">
        <path d="M0 0h50v50H0V0z" fill="#fff"></path>
      </clipPath>
    </defs>
  </symbol>
  <symbol viewBox="0 0 50 50" id="price_term">
    <path d="M23.507 5.806H23.5a.657.657 0 1 0 .007 1.315.66.66 0 0 0 .662-.657.66.66 0 0 0-.662-.658z"></path>
    <path fill-rule="evenodd" clip-rule="evenodd" d="M36.218 5.806h-5.806a2.077 2.077 0 0 0-1.966-1.403h-2.157A3.5 3.5 0 0 0 23.5 3a3.5 3.5 0 0 0-2.79 1.403h-2.156c-.913 0-1.69.588-1.966 1.403h-5.806C9.248 5.806 8 7.045 8 8.568v33.67C8 43.761 9.248 45 10.782 45H30.5a7.493 7.493 0 0 1-.792-1.315H10.782a1.454 1.454 0 0 1-1.457-1.447V8.568c0-.798.654-1.447 1.457-1.447h5.697V9.27a.66.66 0 0 0 .662.658H29.86a.66.66 0 0 0 .662-.658V7.121h5.697c.804 0 1.457.65 1.457 1.447v10.524c.457.071.9.184 1.325.335V8.567c0-1.522-1.248-2.761-2.782-2.761zm-18.415.66v-.002a.75.75 0 0 1 .751-.746h2.512a.663.663 0 0 0 .572-.327A2.143 2.143 0 0 1 23.5 4.315c.77 0 1.467.403 1.862 1.076a.663.663 0 0 0 .572.327h2.512c.413 0 .75.333.75.743v2.151H17.804V6.465z"></path>
    <path d="M29.01 40.879c.022.45.084.89.182 1.315H11.49a.66.66 0 0 1-.663-.657V9.269a.66.66 0 0 1 .663-.657h2.826a.66.66 0 0 1 .662.657.66.66 0 0 1-.662.658h-2.164v30.952H29.01z"></path>
    <path d="M32.52 34.142a7.532 7.532 0 0 0-1.306 1.038h-9.127a.66.66 0 0 1-.663-.658.66.66 0 0 1 .663-.658h9.892c.223 0 .42.11.54.278zM36.174 9.27v9.737a7.5 7.5 0 0 0-1.325.175V9.927h-2.164a.66.66 0 0 1-.662-.658.66.66 0 0 1 .662-.657h2.826a.66.66 0 0 1 .663.657zM29 26.5c0-.118.003-.235.008-.352h-6.921a.66.66 0 0 0-.663.658.66.66 0 0 0 .663.657h6.974A7.581 7.581 0 0 1 29 26.5zm.23-1.847a7.44 7.44 0 0 1 .382-1.126.663.663 0 0 0-.46-.185h-7.065a.66.66 0 0 0-.663.658.66.66 0 0 0 .663.658h7.066a.67.67 0 0 0 .076-.005zm-9.97-7.623a.66.66 0 0 0-.662.657c0 .798-.653 1.447-1.457 1.447-.803 0-1.457-.65-1.457-1.447 0-.798.653-1.447 1.457-1.447a.66.66 0 0 0 .662-.658.66.66 0 0 0-.662-.657c-1.534 0-2.782 1.239-2.782 2.762s1.248 2.762 2.782 2.762 2.782-1.24 2.782-2.762a.66.66 0 0 0-.662-.658zm-.662 8.373a.66.66 0 0 1 .663-.658.66.66 0 0 1 .662.658c0 1.523-1.248 2.762-2.782 2.762s-2.782-1.24-2.782-2.762c0-1.523 1.248-2.762 2.782-2.762a.66.66 0 0 1 .662.658.66.66 0 0 1-.662.657c-.803 0-1.457.65-1.457 1.447 0 .798.653 1.447 1.457 1.447s1.457-.65 1.457-1.447zm13.381-6.971h-9.892a.66.66 0 0 0-.663.658.66.66 0 0 0 .663.657h9.892a.66.66 0 0 0 .662-.657.66.66 0 0 0-.662-.658zm-9.892-2.806h7.066a.66.66 0 0 1 .662.658.66.66 0 0 1-.663.658h-7.065a.66.66 0 0 1-.663-.658.66.66 0 0 1 .663-.658zM19.26 32.461a.66.66 0 0 0-.662.658c0 .798-.653 1.447-1.457 1.447a1.454 1.454 0 0 1-1.457-1.447c0-.798.653-1.447 1.457-1.447a.66.66 0 0 0 .662-.657.66.66 0 0 0-.662-.658c-1.534 0-2.782 1.239-2.782 2.762s1.248 2.762 2.782 2.762 2.782-1.24 2.782-2.762a.66.66 0 0 0-.662-.658zm9.892-1.403h-7.065a.66.66 0 0 0-.663.658.66.66 0 0 0 .663.658h7.066a.66.66 0 0 0 .662-.658.66.66 0 0 0-.663-.658z"></path>
    <path fill-rule="evenodd" clip-rule="evenodd" d="M36.5 45.7a5.2 5.2 0 1 0 0-10.4 5.2 5.2 0 0 0 0 10.4zm0 1.3a6.5 6.5 0 1 0 0-13 6.5 6.5 0 0 0 0 13z"></path>
    <path fill-rule="evenodd" clip-rule="evenodd" d="M36.5 36a.5.5 0 0 1 .5.5v3.793l1.854 1.853a.5.5 0 0 1-.708.708L36 40.707V36.5a.5.5 0 0 1 .5-.5zm0-4.3a5.2 5.2 0 1 0 0-10.4 5.2 5.2 0 0 0 0 10.4zm0 1.3a6.5 6.5 0 1 0 0-13 6.5 6.5 0 0 0 0 13z"></path>
    <path d="M37.653 27.156c1.602 0 2.347-.943 2.347-2.078C40 23.943 39.255 23 37.653 23h-2.515v3.404H34v.752h1.138v.657H34v.752h1.138V30h.871v-1.436h1.588v-.752H36.01v-.656h1.644zm-1.644-.752v-2.652h1.644c1.012 0 1.49.56 1.49 1.326s-.478 1.326-1.49 1.326H36.01z"></path>
  </symbol>
  <symbol viewBox="0 0 50 50" id="quality">
    <path d="M36.716 22.428a2.529 2.529 0 0 0-2.526-2.526h-4.643c1.128-1.268 1.865-2.712 2.007-4.007a2.785 2.785 0 0 0-.67-2.154 2.421 2.421 0 0 0-1.807-.83h-.024c-.673 0-1.305.26-1.781.732a2.495 2.495 0 0 0-.744 1.773c-.024.147-.283.654-.916 1.256a7.175 7.175 0 0 1-2.735 1.6 3.348 3.348 0 0 0-1.407.92 9.107 9.107 0 0 1-.95.875 1.414 1.414 0 0 0-.664-.165h-4.41c-.784 0-1.423.639-1.423 1.424v11.758c0 .785.639 1.423 1.424 1.423h4.409c.535 0 1.002-.297 1.245-.734h11.251a2.161 2.161 0 0 0 1.859-3.256 2.16 2.16 0 0 0 .735-2.94 2.16 2.16 0 0 0 .659-3.058 2.526 2.526 0 0 0 1.11-2.091zm-2.526 1.148h-.368a.689.689 0 1 0 0 1.378.782.782 0 0 1 0 1.562h-.735a.689.689 0 0 0 0 1.378.782.782 0 0 1 0 1.561h-.735a.689.689 0 1 0 0 1.378.782.782 0 0 1 0 1.562H21.28v-6.66a.689.689 0 0 0-1.378 0v7.349c0 .025-.02.046-.046.046h-4.41a.046.046 0 0 1-.045-.046V21.326c0-.026.02-.046.046-.046h4.409c.025 0 .046.02.046.046v1.47a.689.689 0 0 0 1.378 0v-1.47c0-.034-.003-.067-.005-.1.516-.4.93-.803 1.199-1.09.255-.272.534-.458.828-.554 1.622-.526 2.713-1.374 3.343-1.992.79-.775 1.26-1.583 1.26-2.162 0-.305.12-.592.337-.806.219-.217.509-.332.822-.333.387.004.642.202.79.367.25.283.374.69.33 1.089-.15 1.369-1.245 3.06-2.788 4.31a.69.69 0 0 0 .433 1.225h6.36a1.15 1.15 0 0 1 0 2.296z"></path>
    <path d="M17.651 30.183a.695.695 0 0 0-.692.692c0 .38.312.693.692.693.38 0 .693-.313.693-.693a.695.695 0 0 0-.693-.692z"></path>
    <path d="M45.772 25l1.184-3.132a.689.689 0 0 0-.107-.674l-2.094-2.613.158-3.344a.69.69 0 0 0-.31-.609l-2.798-1.838-.883-3.229a.689.689 0 0 0-.483-.483l-3.23-.883-1.838-2.798a.69.69 0 0 0-.608-.31l-3.344.158-2.613-2.094a.69.69 0 0 0-.674-.107L25 4.228l-3.132-1.183a.689.689 0 0 0-.674.106L18.58 5.245l-3.344-.158a.687.687 0 0 0-.608.31L12.79 8.195l-3.23.883a.689.689 0 0 0-.483.483l-.883 3.23-2.798 1.838a.689.689 0 0 0-.31.608l.158 3.344-2.094 2.613a.689.689 0 0 0-.106.674L4.228 25l-1.183 3.132a.689.689 0 0 0 .106.674l2.094 2.613-.158 3.344a.689.689 0 0 0 .31.608l2.798 1.838.883 3.23a.689.689 0 0 0 .483.483l3.23.883 1.838 2.798a.69.69 0 0 0 .608.31l3.344-.158 2.613 2.094a.69.69 0 0 0 .674.107L25 45.772l3.132 1.184a.69.69 0 0 0 .674-.107l2.613-2.094 3.344.158a.69.69 0 0 0 .608-.31l1.839-2.798 3.229-.883a.689.689 0 0 0 .483-.483l.883-3.23 2.798-1.838a.689.689 0 0 0 .31-.608l-.158-3.344 2.094-2.613a.69.69 0 0 0 .107-.674L45.772 25zm-1.381.244l1.137 3.007-2.01 2.51a.69.69 0 0 0-.151.463l.151 3.211-2.687 1.766a.69.69 0 0 0-.287.394l-.848 3.101-3.101.849a.69.69 0 0 0-.394.286l-1.766 2.687-3.211-.151a.69.69 0 0 0-.463.15l-2.51 2.01-3.008-1.136a.687.687 0 0 0-.486 0l-3.008 1.137-2.51-2.01a.69.69 0 0 0-.463-.151l-3.211.151-1.766-2.687a.69.69 0 0 0-.394-.287l-3.101-.848-.849-3.101a.69.69 0 0 0-.286-.394l-2.687-1.766.151-3.211a.689.689 0 0 0-.15-.463l-2.01-2.51 1.136-3.008a.69.69 0 0 0 0-.487L4.472 21.75l2.01-2.51a.689.689 0 0 0 .151-.463l-.151-3.211L9.169 13.8a.689.689 0 0 0 .286-.394l.849-3.101 3.101-.849a.69.69 0 0 0 .394-.286l1.766-2.687 3.211.151a.69.69 0 0 0 .463-.15l2.51-2.01 3.008 1.136c.156.06.33.06.486 0l3.008-1.137 2.51 2.01c.13.106.295.16.463.151l3.211-.151 1.766 2.687a.69.69 0 0 0 .394.286l3.101.849.849 3.101a.69.69 0 0 0 .286.394l2.687 1.766-.151 3.211a.689.689 0 0 0 .15.463l2.01 2.51-1.136 3.007a.69.69 0 0 0 0 .488z"></path>
    <path d="M37.945 13.104a17.863 17.863 0 0 0-1.08-1.08.689.689 0 0 0-.932 1.015 16.724 16.724 0 0 1 .997.997.687.687 0 0 0 .973.041.689.689 0 0 0 .042-.973zm-3.527-2.961a17.657 17.657 0 0 0-11.263-2.649 17.63 17.63 0 0 0-10.616 5.058 17.539 17.539 0 0 0-5.138 11.723 17.533 17.533 0 0 0 4.104 12.027.687.687 0 0 0 .97.084.689.689 0 0 0 .084-.971 16.159 16.159 0 0 1-3.78-11.084 16.164 16.164 0 0 1 4.734-10.804 16.247 16.247 0 0 1 9.784-4.662 16.27 16.27 0 0 1 10.38 2.44.689.689 0 0 0 .741-1.162zm5.407 5.407a.689.689 0 0 0-1.162.74 16.272 16.272 0 0 1 2.441 10.381 16.248 16.248 0 0 1-4.662 9.784 16.164 16.164 0 0 1-10.804 4.735 16.156 16.156 0 0 1-11.084-3.78.689.689 0 1 0-.887 1.054 17.524 17.524 0 0 0 12.027 4.103 17.538 17.538 0 0 0 11.723-5.138 17.629 17.629 0 0 0 5.058-10.616c.408-3.94-.533-7.94-2.65-11.262z"></path>
  </symbol>
  <symbol viewBox="0 0 50 50" id="quality_control">
    <path d="M22.179 10.715a.6.6 0 0 0-.825-.143l-.072.05a.6.6 0 0 0-.146.847l3.481 4.803a.6.6 0 0 1 .056.61l-3.27 6.882a.6.6 0 0 1-.49.34l-4.764.421a.6.6 0 0 0-.49.34L8.42 40.098a.6.6 0 0 1-.49.34l-1.937.171 5.641-11.87a.6.6 0 0 0-.296-.805l-.084-.038a.6.6 0 0 0-.788.29L4.813 40.078l-1.11-1.532a.6.6 0 0 1-.056-.61l1.04-2.19a.6.6 0 0 1 .259-.27l1.423-.765a.6.6 0 0 0 .304-.651l-.217-1.04a.6.6 0 0 1 .303-.651l.97-.521a.6.6 0 0 0 .304-.651l-.216-1.04a.6.6 0 0 1 .303-.652l.971-.521a.6.6 0 0 0 .304-.652l-.32-1.532a.6.6 0 0 1 .045-.38l1.478-3.11 1.727.777a.6.6 0 0 0 .788-.29l.03-.063a.6.6 0 0 0-.296-.805l-2.135-.96-2.627-3.625a.6.6 0 0 1-.057-.61l3.271-6.882a.6.6 0 0 1 .49-.34l5.546-.49a.6.6 0 0 0 .544-.653l-.006-.064a.6.6 0 0 0-.65-.542l-6.299.556a.6.6 0 0 0-.489.34l-3.9 8.208a.6.6 0 0 0 .056.61l2.734 3.772a.6.6 0 0 1 .056.61l-1.619 3.406a.6.6 0 0 0-.045.38l.215 1.03a.6.6 0 0 1-.304.65l-.97.522a.6.6 0 0 0-.304.651l.217 1.04a.6.6 0 0 1-.304.652l-.97.521a.6.6 0 0 0-.304.651l.216 1.04a.6.6 0 0 1-.303.651l-.96.516a.6.6 0 0 0-.259.27l-1.534 3.23a.6.6 0 0 0 .056.609l2.207 3.045a.6.6 0 0 0 .539.246l3.84-.34a.6.6 0 0 0 .49-.34l7.239-15.232a.6.6 0 0 1 .49-.34l4.764-.421a.6.6 0 0 0 .489-.34l3.9-8.207a.6.6 0 0 0-.056-.61l-3.932-5.425z"></path>
    <path d="M17.967 11.366a2.51 2.51 0 0 0-.736.142c-1.246.446-1.887 1.795-1.429 3.007.458 1.213 1.845 1.837 3.092 1.39 1.246-.445 1.887-1.794 1.429-3.006a2.352 2.352 0 0 0-1.077-1.231 5.784 5.784 0 0 1 3.339-3.054c3.027-1.083 6.396.432 7.51 3.377.103.275.184.555.243.837a2.932 2.932 0 0 0-.52.134c-1.485.531-2.25 2.14-1.703 3.584.546 1.446 2.2 2.19 3.685 1.658 1.485-.532 2.25-2.14 1.704-3.585a2.835 2.835 0 0 0-1.83-1.698 6.776 6.776 0 0 0-.36-1.366c-1.36-3.6-5.477-5.45-9.178-4.127a7.06 7.06 0 0 0-4.169 3.938zm12.3 2.782c.092-.033.182.04.176.138a5.592 5.592 0 0 1-.712 2.409 1.514 1.514 0 0 1-.397-.585c-.299-.79.12-1.671.933-1.962zm2.017.907c.3.791-.119 1.672-.932 1.963a1.605 1.605 0 0 1-.373.085 6.825 6.825 0 0 0 .761-2.75c.24.17.434.41.544.702zm-14.723-2.31a6.727 6.727 0 0 0-.075 1.883 1.081 1.081 0 0 1-.464-.549 1.069 1.069 0 0 1 .539-1.334zm1.542.59a1.06 1.06 0 0 1-.322 1.194 5.491 5.491 0 0 1 .064-1.587c.111.108.2.24.258.393zm12.829 21.774a.6.6 0 0 0 .764.352l9.894-3.539a.6.6 0 0 0 .359-.777l-4.936-13.06a.6.6 0 0 0-.764-.352l-9.894 3.538a.6.6 0 0 0-.359.778l4.936 13.06zm-3.484-12.882l8.585-3.07 4.464 11.81-8.585 3.07-4.464-11.81z"></path>
    <path d="M30.556 23.736a.6.6 0 0 1 .36-.777l.089-.032a.6.6 0 0 1 .763.353l2.965 7.844a.6.6 0 0 1-.36.777l-.088.032a.6.6 0 0 1-.764-.353l-2.965-7.844zm2.328-.833a.6.6 0 0 1 .36-.777l.089-.032a.6.6 0 0 1 .763.353l2.965 7.844a.6.6 0 0 1-.36.777l-.089.032a.6.6 0 0 1-.763-.353l-2.965-7.844zm2.328-.833a.6.6 0 0 1 .359-.776l.09-.032a.6.6 0 0 1 .763.352l2.965 7.844a.6.6 0 0 1-.36.777l-.089.032a.6.6 0 0 1-.763-.352l-2.965-7.844zm-9.214-7.893a.6.6 0 0 1-.18-.84l1.514-2.278a.6.6 0 0 1 .82-.176l.074.047a.6.6 0 0 1 .18.84l-1.514 2.278a.6.6 0 0 1-.82.175l-.074-.046z"></path>
    <path d="M33.094 10.72a.6.6 0 0 0-.741.398l-.02.064a.6.6 0 0 0 .405.753l5.473 1.6a.6.6 0 0 1 .393.364l7.728 20.447L31.48 39.66l-6.216-16.445a.6.6 0 0 0-.763-.352l-.09.032a.6.6 0 0 0-.359.777L30.5 40.73a.6.6 0 0 0 .764.353l16.162-5.78a.6.6 0 0 0 .359-.778L39.599 12.87a.6.6 0 0 0-.393-.363l-6.112-1.788zM11.746 20.944a.6.6 0 0 1-.825-.143l-1.843-2.543a.6.6 0 0 1-.056-.61l.773-1.627a.6.6 0 0 1 .788-.29l.084.039a.6.6 0 0 1 .296.805l-.447.941a.6.6 0 0 0 .056.61l1.393 1.922a.6.6 0 0 1-.147.847l-.072.049zm.096-6.218a.6.6 0 0 1-.788.29l-.085-.039a.6.6 0 0 1-.295-.804l.03-.063a.6.6 0 0 1 .788-.29l.084.038a.6.6 0 0 1 .296.805l-.03.063zm.909-1.912a.6.6 0 0 1-.788.29l-.085-.039a.6.6 0 0 1-.296-.804l.03-.063a.6.6 0 0 1 .788-.29l.085.038a.6.6 0 0 1 .296.805l-.03.063z"></path>
    <path d="M44.398 33.495a.6.6 0 0 1-.36.777l-6.817 2.438a.6.6 0 0 1-.764-.352l-.024-.064a.6.6 0 0 1 .36-.777l6.818-2.439a.6.6 0 0 1 .763.353l.024.064zm-8.761 3.133a.6.6 0 0 1-.36.777l-.088.032a.6.6 0 0 1-.764-.352l-.024-.064a.6.6 0 0 1 .36-.777l.089-.032a.6.6 0 0 1 .763.353l.024.063zm-2.032.727a.6.6 0 0 1-.36.777l-.089.032a.6.6 0 0 1-.763-.353l-.024-.063a.6.6 0 0 1 .359-.777l.09-.032a.6.6 0 0 1 .763.353l.023.063z"></path>
  </symbol>
  <symbol viewBox="0 0 50 50" id="repair_assessment">
    <path d="M10.241 26.308H21.91a.652.652 0 0 0 .648-.657v-2.625a.652.652 0 0 0-.648-.657H10.241a.652.652 0 0 0-.648.657v2.625c0 .363.29.657.648.657zm.648-2.626h10.372v1.313H10.889v-1.313zm9.724 3.938c-1.072 0-1.945.884-1.945 1.97 0 1.085.873 1.969 1.945 1.969s1.944-.884 1.944-1.97c0-1.085-.872-1.969-1.944-1.969zm0 2.626a.653.653 0 0 1-.649-.656c0-.363.29-.657.649-.657.357 0 .648.294.648.657 0 .362-.29.656-.648.656zm-4.538-2.626c-1.072 0-1.945.884-1.945 1.97 0 1.085.873 1.969 1.945 1.969s1.945-.884 1.945-1.97c0-1.085-.873-1.969-1.945-1.969zm0 2.626a.653.653 0 0 1-.648-.656c0-.363.29-.657.648-.657.358 0 .648.294.648.657 0 .362-.29.656-.648.656zm-4.538 1.313c1.073 0 1.945-.884 1.945-1.97 0-1.085-.872-1.969-1.944-1.969-1.073 0-1.945.884-1.945 1.97 0 1.085.872 1.969 1.944 1.969zm0-2.626c.358 0 .649.294.649.657 0 .362-.29.656-.649.656a.653.653 0 0 1-.648-.656c0-.363.29-.657.649-.657zm9.076 3.282c-1.072 0-1.945.884-1.945 1.97 0 1.085.873 1.969 1.945 1.969s1.944-.884 1.944-1.97c0-1.085-.872-1.969-1.944-1.969zm0 2.626a.653.653 0 0 1-.649-.657c0-.362.29-.656.649-.656.357 0 .648.294.648.657 0 .362-.29.656-.648.656zm-4.538-2.626c-1.072 0-1.945.884-1.945 1.97 0 1.085.873 1.969 1.945 1.969s1.945-.884 1.945-1.97c0-1.085-.873-1.969-1.945-1.969zm0 2.626a.653.653 0 0 1-.648-.657c0-.362.29-.656.648-.656.358 0 .648.294.648.657 0 .362-.29.656-.648.656zm-4.538 1.313c1.073 0 1.945-.884 1.945-1.97 0-1.085-.872-1.969-1.944-1.969-1.073 0-1.945.884-1.945 1.97 0 1.085.872 1.969 1.944 1.969zm0-2.626c.358 0 .649.294.649.657 0 .362-.29.656-.649.656a.653.653 0 0 1-.648-.657c0-.362.29-.656.649-.656zm9.076 3.282c-1.072 0-1.945.884-1.945 1.97 0 1.085.873 1.969 1.945 1.969s1.944-.884 1.944-1.97c0-1.085-.872-1.969-1.944-1.969zm0 2.626a.653.653 0 0 1-.649-.657c0-.362.29-.656.649-.656.357 0 .648.294.648.656 0 .363-.29.657-.648.657zm-4.538-2.626c-1.072 0-1.945.884-1.945 1.97 0 1.085.873 1.969 1.945 1.969s1.945-.884 1.945-1.97c0-1.085-.873-1.969-1.945-1.969zm0 2.626a.653.653 0 0 1-.648-.657c0-.362.29-.656.648-.656.358 0 .648.294.648.656 0 .363-.29.657-.648.657zm-4.538 1.313c1.073 0 1.945-.884 1.945-1.97 0-1.085-.872-1.969-1.944-1.969-1.073 0-1.945.884-1.945 1.97 0 1.085.872 1.969 1.944 1.969zm0-2.626c.358 0 .649.294.649.656 0 .363-.29.657-.649.657a.653.653 0 0 1-.648-.657c0-.362.29-.656.649-.656zm19.437-24.274h-.048a5.278 5.278 0 0 0-2.544-3.876v-.277c0-.243-.17-.518-.404-.607a5.152 5.152 0 0 0-4.379-.002c-.344.14-.402.559-.402.883a5.28 5.28 0 0 0-2.55 3.878h-.044a.652.652 0 0 0-.648.657v1.969c0 .363.29.656.648.656h10.371a.652.652 0 0 0 .649-.656v-1.97a.652.652 0 0 0-.649-.655zm-7.777-2.28v.31c0 .362.29.656.648.656a.652.652 0 0 0 .649-.657v-1.743a3.868 3.868 0 0 1 2.591.001v1.742c0 .363.29.657.648.657a.652.652 0 0 0 .648-.657v-.304a3.984 3.984 0 0 1 1.234 2.275h-7.657c.15-.88.588-1.687 1.24-2.28zm7.13 4.25H21.25v-.657h9.075v.656zm4.543 6.559h1.945a.652.652 0 0 0 .648-.656.652.652 0 0 0-.648-.657H34.87a.652.652 0 0 0-.648.657c0 .363.29.656.648.656zm1.945 1.97H34.22a.652.652 0 0 0-.648.656c0 .363.29.656.648.656h2.594a.652.652 0 0 0 .648-.656.652.652 0 0 0-.648-.657zm0 3.282H34.87a.652.652 0 0 0-.648.656c0 .363.29.656.648.656h1.945a.652.652 0 0 0 .648-.656.652.652 0 0 0-.648-.656zm0 3.282h-1.296a.652.652 0 0 0-.648.656c0 .363.29.656.648.656h1.296a.652.652 0 0 0 .648-.656.652.652 0 0 0-.648-.656zm0 3.282H34.87a.652.652 0 0 0-.648.656c0 .363.29.657.648.657h1.945a.652.652 0 0 0 .648-.657.652.652 0 0 0-.648-.656zm0 3.282H34.22a.652.652 0 0 0-.648.656c0 .363.29.657.648.657h2.594a.652.652 0 0 0 .648-.657.652.652 0 0 0-.648-.656z"></path>
    <path d="M41.999 9.247a.661.661 0 0 0-.19-.458l-4.535-4.596a.641.641 0 0 0-.46-.193H16.076a.652.652 0 0 0-.648.656v15.087H8.945c-1.073 0-1.945.884-1.945 1.97V44.03C7 45.117 7.872 46 8.945 46h14.26c1.073 0 1.945-.883 1.945-1.97v-.658h16.202a.652.652 0 0 0 .648-.657V9.254l-.001-.007zm-4.536-3.005l2.325 2.356h-2.325V6.242zM8.296 21.712c0-.362.29-.656.649-.656h14.26c.358 0 .649.294.649.657v19.692c0 .362-.29.657-.648.657H8.945a.653.653 0 0 1-.649-.657V21.713zm14.91 22.975H8.945a.653.653 0 0 1-.649-.656v-.778a1.9 1.9 0 0 0 .649.121h14.26c.23 0 .445-.047.649-.121v.778c0 .362-.29.656-.648.656zm1.944-5.898h5.829a.652.652 0 0 0 .648-.657.652.652 0 0 0-.648-.656H25.15v-1.97h5.829a.652.652 0 0 0 .648-.656.652.652 0 0 0-.648-.656H25.15v-1.97h5.829a.652.652 0 0 0 .648-.656.652.652 0 0 0-.648-.656H25.15v-1.97h5.829a.652.652 0 0 0 .648-.656.652.652 0 0 0-.648-.656H25.15v-1.97h5.829a.652.652 0 0 0 .648-.656.652.652 0 0 0-.648-.657H25.15v-1.969h5.829a.652.652 0 0 0 .648-.656.652.652 0 0 0-.648-.657h-5.945a1.944 1.944 0 0 0-1.828-1.322h-6.483V5.313h19.444v3.94c0 .364.29.657.648.657h3.889v32.15H25.15v-3.271z"></path>
  </symbol>
  <symbol viewBox="0 0 50 50" id="schedule">
    <path d="M37.218 5.806h-5.806a2.077 2.077 0 0 0-1.966-1.403h-2.157A3.5 3.5 0 0 0 24.5 3a3.5 3.5 0 0 0-2.79 1.403h-2.156c-.913 0-1.69.588-1.966 1.403h-5.806C10.248 5.806 9 7.045 9 8.568v33.67C9 43.761 10.248 45 11.782 45h25.436C38.752 45 40 43.76 40 42.238V8.568c0-1.523-1.248-2.762-2.782-2.762zm-18.415.66v-.002a.75.75 0 0 1 .751-.746h2.512a.663.663 0 0 0 .572-.327A2.143 2.143 0 0 1 24.5 4.315c.77 0 1.467.403 1.862 1.076a.663.663 0 0 0 .572.327h2.512c.413 0 .75.333.75.743v2.151H18.804V6.465zm19.872 35.772c0 .798-.653 1.447-1.457 1.447H11.782a1.454 1.454 0 0 1-1.457-1.447V8.568c0-.798.654-1.447 1.457-1.447h5.697V9.27a.66.66 0 0 0 .662.658H30.86a.66.66 0 0 0 .662-.658V7.121h5.697c.804 0 1.457.65 1.457 1.447v33.67z"></path>
    <path d="M24.507 5.806H24.5a.657.657 0 1 0 .007 1.315.66.66 0 0 0 .662-.657.66.66 0 0 0-.662-.658zm12.004 2.806h-2.826a.66.66 0 0 0-.662.657.66.66 0 0 0 .662.658h2.164v30.952H13.151V9.927h2.164a.66.66 0 0 0 .662-.658.66.66 0 0 0-.662-.657h-2.826a.66.66 0 0 0-.663.657v32.268a.66.66 0 0 0 .663.657h24.023a.66.66 0 0 0 .662-.657V9.269a.66.66 0 0 0-.663-.657z"></path>
    <path d="M20.26 17.03a.66.66 0 0 0-.662.657c0 .798-.653 1.447-1.457 1.447-.803 0-1.457-.65-1.457-1.447 0-.798.653-1.447 1.457-1.447a.66.66 0 0 0 .662-.658.66.66 0 0 0-.662-.657c-1.534 0-2.782 1.239-2.782 2.762s1.248 2.762 2.782 2.762 2.782-1.24 2.782-2.762a.66.66 0 0 0-.662-.658zm0 7.715a.66.66 0 0 0-.662.658c0 .798-.653 1.447-1.457 1.447-.803 0-1.457-.65-1.457-1.447 0-.798.653-1.447 1.457-1.447a.66.66 0 0 0 .662-.657.66.66 0 0 0-.662-.658c-1.534 0-2.782 1.239-2.782 2.762s1.248 2.762 2.782 2.762 2.782-1.24 2.782-2.762a.66.66 0 0 0-.662-.658zm12.719 1.403h-9.892a.66.66 0 0 0-.663.658.66.66 0 0 0 .663.657h9.892a.66.66 0 0 0 .662-.657.66.66 0 0 0-.662-.658zm-2.827-2.806h-7.065a.66.66 0 0 0-.663.658.66.66 0 0 0 .663.658h7.066a.66.66 0 0 0 .662-.658.66.66 0 0 0-.663-.658zm2.827-4.91h-9.892a.66.66 0 0 0-.663.658.66.66 0 0 0 .663.657h9.892a.66.66 0 0 0 .662-.657.66.66 0 0 0-.662-.658zm-2.827-2.806h-7.065a.66.66 0 0 0-.663.658.66.66 0 0 0 .663.658h7.066a.66.66 0 0 0 .662-.658.66.66 0 0 0-.663-.658zM20.26 32.461a.66.66 0 0 0-.662.658c0 .798-.653 1.447-1.457 1.447a1.454 1.454 0 0 1-1.457-1.447c0-.798.653-1.447 1.457-1.447a.66.66 0 0 0 .662-.657.66.66 0 0 0-.662-.658c-1.534 0-2.782 1.239-2.782 2.762s1.248 2.762 2.782 2.762 2.782-1.24 2.782-2.762a.66.66 0 0 0-.662-.658zm12.719 1.403h-9.892a.66.66 0 0 0-.663.658.66.66 0 0 0 .663.658h9.892a.66.66 0 0 0 .662-.658.66.66 0 0 0-.662-.658zm-2.827-2.806h-7.065a.66.66 0 0 0-.663.658.66.66 0 0 0 .663.658h7.066a.66.66 0 0 0 .662-.658.66.66 0 0 0-.663-.658z"></path>
  </symbol>
  <symbol viewBox="0 0 50 50" id="technical_project">
    <path d="M42.633 4a.756.756 0 0 0-.542.23.8.8 0 0 0-.224.558v3.943H8.133V4.788a.8.8 0 0 0-.224-.557A.756.756 0 0 0 7.367 4a5.299 5.299 0 0 0-3.793 1.618A5.606 5.606 0 0 0 2 9.52v30.127a5.44 5.44 0 0 0 1.527 3.784A5.141 5.141 0 0 0 7.206 45h35.588a5.141 5.141 0 0 0 3.68-1.572A5.44 5.44 0 0 0 48 39.644V9.52a5.606 5.606 0 0 0-1.574-3.9A5.298 5.298 0 0 0 42.633 4zm-39.1 5.52A4.018 4.018 0 0 1 4.4 7.026a3.823 3.823 0 0 1 2.2-1.37v28.36a5.309 5.309 0 0 0-3.067 1.605V9.518zm42.934 30.126a3.84 3.84 0 0 1-1.078 2.669 3.63 3.63 0 0 1-2.595 1.108H7.206a3.63 3.63 0 0 1-2.596-1.11 3.84 3.84 0 0 1-1.077-2.67v-.162a4.005 4.005 0 0 1 1.124-2.787 3.785 3.785 0 0 1 2.71-1.156.756.756 0 0 0 .542-.23.8.8 0 0 0 .224-.558V10.308h33.734V34.75c0 .21.08.41.224.557a.756.756 0 0 0 .542.231 3.785 3.785 0 0 1 2.71 1.157 4.005 4.005 0 0 1 1.124 2.786v.165zm0-4.025a5.309 5.309 0 0 0-3.067-1.604V5.656a3.823 3.823 0 0 1 2.202 1.37c.558.704.864 1.585.865 2.493v26.102z"></path>
    <path d="M39.567 15.039H17.333a.756.756 0 0 0-.542.23.8.8 0 0 0-.224.558v5.52h-6.134a.756.756 0 0 0-.542.23.8.8 0 0 0-.224.558v15.769c0 .209.08.41.224.557a.756.756 0 0 0 .542.231h18.4a.756.756 0 0 0 .542-.23.8.8 0 0 0 .225-.558v-10.25h5.367a.756.756 0 0 0 .542-.231.8.8 0 0 0 .224-.558.8.8 0 0 0-.224-.557.756.756 0 0 0-.542-.231h-13.8a.756.756 0 0 0-.543.23.8.8 0 0 0-.224.558v3.943c0 .209.08.41.225.557a.756.756 0 0 0 .542.231.756.756 0 0 0 .542-.23.8.8 0 0 0 .224-.558v-3.154h6.134v9.461h-6.134v-3.154a.8.8 0 0 0-.224-.557.756.756 0 0 0-1.084 0 .8.8 0 0 0-.225.557v3.154h-9.2v-6.307h6.133a.756.756 0 0 0 .542-.231.8.8 0 0 0 0-1.115.756.756 0 0 0-.542-.231H11.2v-6.308h6.133a.756.756 0 0 0 .542-.23.8.8 0 0 0 .225-.558v-5.52h9.967v6.308c0 .21.08.41.224.558a.756.756 0 0 0 1.084 0 .8.8 0 0 0 .225-.558v-6.308h3.886a6.385 6.385 0 0 0 1.75 3.667A6.076 6.076 0 0 0 38.8 22.08v15.035h-6.133a.756.756 0 0 0-.543.231.8.8 0 0 0 0 1.115c.144.148.34.231.543.231h6.9a.756.756 0 0 0 .542-.23.8.8 0 0 0 .224-.558V15.827a.8.8 0 0 0-.224-.558.756.756 0 0 0-.542-.23zm-4.531 1.576H38.8v3.872a4.565 4.565 0 0 1-2.481-1.32 4.784 4.784 0 0 1-1.283-2.552z"></path>
  </symbol>
</svg>