<svg fill="#2E2E2E" xmlns="http://www.w3.org/2000/svg">
  <style>.svg_none {display: none;} :target {display: block;}</style>
  <g class="svg_none" viewBox="0 0 25 25" id="calc2">
    <path fill="#fff" stroke="#2E2E2E" d="M13.5 1.5h10v10h-10z"></path>
    <path fill="#2E2E2E" d="M15 7h7V6h-7z"></path>
    <path fill="#fff" stroke="#2E2E2E" d="M1.5 1.5h10v10h-10z"></path>
    <path fill="#2E2E2E" d="M7 7v3H6V7H3V6h3V3h1v3h3v1H7z" ></path>
    <path fill="#fff" stroke="#2E2E2E" d="M1.5 13.5h10v10h-10z"></path>
    <path fill="#2E2E2E" d="M6.5 19.207l-2.121 2.121-.707-.707 2.12-2.121-2.12-2.121.707-.707 2.121 2.12 2.121-2.12.707.707-2.12 2.121 2.12 2.121-.707.707-2.121-2.12z" ></path>
    <path fill="#F7D14C" stroke="#2E2E2E" d="M13.5 13.5h10v10h-10z"></path>
    <path fill="#2E2E2E" d="M15 20h7v-1h-7v1zm7-3h-7v1h7v-1z" ></path>
  </g>
  <g class="svg_none" viewBox="0 0 32 32" id="closed_menu">
    <rect x="3.626" y="26.253" width="32" height="3" rx="1.5" transform="rotate(-45 3.626 26.253)" fill="#404040"></rect>
    <rect x="26.253" y="28.374" width="32" height="3" rx="1.5" transform="rotate(-135 26.253 28.374)" fill="#404040"></rect>
  </g>
  <g class="svg_none" viewBox="0 0 32 32" id="hamburger_menu">
    <rect y="6.5" width="32" height="3" rx="1.5" fill="#404040"></rect>
    <rect y="14.5" width="32" height="3" rx="1.5" fill="#404040"></rect>
    <rect y="22.5" width="32" height="3" rx="1.5" fill="#404040"></rect>
  </g>
  <g class="svg_none" viewBox="0 0 20 20" id="location">
    <path d="M10 2C7.238 2 5 4.23 5 6.993 5 11.77 10 18 10 18s5-6.23 5-11.007A4.994 4.994 0 0 0 10 2zm0 7.756a2.7 2.7 0 0 1-2.7-2.702A2.703 2.703 0 0 1 10 4.352a2.7 2.7 0 0 1 2.7 2.702A2.703 2.703 0 0 1 10 9.756z" ></path>
  </g>
  <g class="svg_none" viewBox="0 0 135 50" id="logo2">
    <path d="M67.79 16.128c-.975 0-1.726-.155-2.253-.464-.526-.31-.898-.773-1.114-1.392-.202-.618-.302-1.383-.302-2.295v-.394h2.253v.394c0 .85.1 1.453.302 1.809.2.355.565.533 1.091.533.418 0 .728-.093.93-.278.216-.201.355-.518.417-.951.078-.448.116-1.044.116-1.786V9.936h-3.205V8.545h3.205V7.084c0-.773-.046-1.36-.139-1.762-.077-.418-.224-.704-.441-.858-.217-.17-.511-.255-.883-.255-.62 0-1.006.216-1.161.649-.155.417-.232.958-.232 1.623v.65H64.12v-.488c0-.896.108-1.661.325-2.295.217-.634.588-1.121 1.115-1.461.542-.34 1.293-.51 2.253-.51 1.099 0 1.927.224 2.485.672.557.433.929 1.051 1.115 1.855.2.789.302 1.724.302 2.806v3.084c0 1.113-.101 2.072-.302 2.875-.202.789-.589 1.4-1.162 1.832-.557.418-1.378.627-2.462.627zm5.438-.07V14.18c.464 0 .828-.093 1.091-.279.28-.185.488-.494.627-.927.155-.448.271-1.044.349-1.786.077-.757.147-1.7.209-2.829l.302-5.82h7.037v13.403h-2.485V4.417H77.99l-.21 3.943c-.077 1.53-.194 2.799-.348 3.803-.14 1.005-.364 1.793-.674 2.365-.31.557-.728.951-1.254 1.183-.511.232-1.177.348-1.998.348h-.278zm15.964.07c-1.053 0-1.866-.201-2.439-.603-.573-.418-.975-1.02-1.207-1.81-.217-.803-.326-1.785-.326-2.944v-3.06c0-1.191.117-2.18.349-2.969.232-.788.635-1.384 1.207-1.785.589-.402 1.394-.603 2.416-.603 1.13 0 1.959.231 2.485.695.542.464.898 1.136 1.069 2.018.17.865.255 1.909.255 3.13v1.09h-5.295v2.69c0 .54.046.981.139 1.322.108.34.27.595.488.765.232.154.526.232.882.232.372 0 .65-.085.836-.255.202-.186.333-.441.395-.766.078-.34.116-.734.116-1.182v-.812h2.416v.51c0 1.345-.287 2.404-.86 3.177-.572.773-1.548 1.16-2.926 1.16zm-1.486-8.186h2.856V6.736c0-.556-.03-1.02-.093-1.391-.061-.387-.193-.673-.394-.858-.186-.201-.488-.302-.906-.302-.403 0-.712.093-.93.279-.2.185-.34.502-.417.95-.078.433-.116 1.036-.116 1.81v.718zm7.592 8l.14-13.403h1.834l2.973 8.232 2.996-8.232h1.835l.139 13.403h-2.09v-8l-2.485 6.678h-.766l-2.486-6.632v7.954h-2.09zm16.195.186c-1.053 0-1.865-.201-2.438-.603-.573-.418-.976-1.02-1.208-1.81-.217-.803-.325-1.785-.325-2.944v-3.06c0-1.191.116-2.18.348-2.969.232-.788.635-1.384 1.208-1.785.588-.402 1.393-.603 2.415-.603 1.131 0 1.959.231 2.485.695.542.464.899 1.136 1.069 2.018.17.865.255 1.909.255 3.13v1.09h-5.295v2.69c0 .54.046.981.139 1.322.109.34.271.595.488.765.232.154.526.232.883.232.371 0 .65-.085.836-.255.201-.186.333-.441.395-.766.077-.34.116-.734.116-1.182v-.812h2.415v.51c0 1.345-.286 2.404-.859 3.177-.573.773-1.549 1.16-2.927 1.16zm-1.486-8.186h2.857V6.736c0-.556-.031-1.02-.093-1.391-.062-.387-.194-.673-.395-.858-.186-.201-.488-.302-.906-.302-.402 0-.712.093-.929.279-.201.185-.341.502-.418.95-.077.433-.116 1.036-.116 1.81v.718zm7.662 8V2.539h2.485v5.635h3.182V2.539h2.485v13.403h-2.485v-5.96h-3.182v5.96h-2.485zm12.286 0V4.394h-2.508V2.54h7.525v1.855h-2.532v11.548h-2.485zM69.177 48.779c-1.457 0-2.592-.304-3.404-.913-.796-.609-1.355-1.429-1.677-2.46-.305-1.032-.457-2.181-.457-3.45v-7.253c0-1.387.152-2.596.457-3.627.322-1.031.88-1.826 1.677-2.384.813-.575 1.947-.862 3.404-.862 1.287 0 2.303.236 3.048.71.762.473 1.304 1.15 1.626 2.029.338.88.508 1.936.508 3.17v1.623H71.64v-1.445c0-.761-.043-1.43-.127-2.004-.068-.592-.271-1.048-.61-1.37-.339-.32-.906-.481-1.702-.481-.813 0-1.406.177-1.778.532-.373.338-.618.829-.737 1.471a13.946 13.946 0 0 0-.152 2.207v8.141c0 1.031.084 1.852.254 2.46.17.592.448 1.015.838 1.268.39.254.915.38 1.575.38.779 0 1.338-.168 1.677-.507.338-.355.55-.837.635-1.445.084-.609.127-1.319.127-2.13v-1.522h2.718v1.521c0 1.252-.152 2.36-.457 3.323-.305.947-.83 1.69-1.575 2.232-.745.524-1.796.786-3.15.786zm12.337-.229V30.139h-3.48v-2.13h9.729v2.13h-3.379V48.55h-2.87zm10.392 0V28.008h5.106c1.236 0 2.218.228 2.947.685.745.44 1.287 1.082 1.625 1.927.339.846.508 1.869.508 3.07 0 1.081-.194 2.02-.584 2.815a4.134 4.134 0 0 1-1.676 1.851c-.746.423-1.677.634-2.795.634h-2.26v9.562h-2.871zm2.87-11.615h1.321c.83 0 1.482-.093 1.956-.28a1.78 1.78 0 0 0 1.017-.963c.203-.473.304-1.133.304-1.978 0-.98-.076-1.733-.228-2.258-.136-.524-.432-.887-.89-1.09-.457-.203-1.168-.304-2.133-.304h-1.347v6.873zm16.753 11.844c-1.389 0-2.498-.27-3.328-.812-.83-.54-1.422-1.31-1.778-2.308-.356-1.014-.534-2.198-.534-3.55v-7.787c0-1.352.178-2.51.534-3.474.372-.98.965-1.725 1.778-2.232.83-.524 1.939-.786 3.328-.786 1.389 0 2.489.262 3.302.786.813.524 1.398 1.268 1.753 2.232.373.964.559 2.122.559 3.474v7.812c0 1.336-.186 2.502-.559 3.5-.355.998-.94 1.775-1.753 2.333-.813.541-1.913.812-3.302.812zm0-2.257c.762 0 1.338-.152 1.727-.457.39-.321.652-.76.788-1.319.135-.575.203-1.242.203-2.003v-9.004c0-.76-.068-1.412-.203-1.953-.136-.558-.398-.98-.788-1.268-.389-.304-.965-.456-1.727-.456-.762 0-1.346.152-1.753.456-.389.287-.652.71-.787 1.268-.136.541-.204 1.192-.204 1.953v9.004c0 .76.068 1.428.204 2.003.135.558.398.998.787 1.32.407.304.991.456 1.753.456zm10.595 2.028V28.008h2.54v14.229l6.021-14.229h2.057v20.544h-2.515V34.094l-5.969 14.457h-2.134zm5.563-22.14c-1.219 0-2.083-.33-2.591-.99-.491-.66-.737-1.48-.737-2.46h1.575c.017.609.153 1.082.407 1.42.271.322.719.482 1.346.482.644 0 1.092-.169 1.346-.507.271-.338.407-.803.407-1.395h1.6c0 .98-.254 1.8-.762 2.46-.491.66-1.355.99-2.591.99z"></path>
    <path fill-rule="evenodd" clip-rule="evenodd" d="M5.888 2.318l-.839.693C3.828 4.02 3.266 5.297 3.266 6.52c0 1.226.562 2.501 1.783 3.512 1.682 1.39 2.572 3.262 2.572 5.184 0 1.922-.89 3.795-2.572 5.185l-.838.694-1.39-1.674.84-.694c1.221-1.01 1.783-2.286 1.783-3.51 0-1.226-.562-2.5-1.784-3.511-1.68-1.39-2.57-3.262-2.57-5.184 0-1.922.89-3.794 2.571-5.185L4.5.643l1.389 1.675zm6.532 0l-.838.693C10.36 4.02 9.798 5.297 9.798 6.52c0 1.226.562 2.501 1.784 3.512 1.681 1.39 2.571 3.262 2.571 5.184 0 1.922-.89 3.795-2.571 5.185l-.839.694-1.389-1.674.839-.694c1.221-1.01 1.783-2.286 1.783-3.51 0-1.226-.562-2.5-1.783-3.511C8.51 10.316 7.62 8.444 7.62 6.522c0-1.922.89-3.794 2.572-5.185l.838-.694 1.389 1.675zm6.532 0l-.838.693c-1.222 1.01-1.783 2.286-1.783 3.51 0 1.226.561 2.501 1.783 3.512 1.681 1.39 2.572 3.262 2.572 5.184 0 1.922-.89 3.795-2.572 5.185l-.838.694-1.39-1.674.839-.694c1.221-1.01 1.783-2.286 1.783-3.51 0-1.226-.561-2.5-1.783-3.511-1.682-1.391-2.572-3.263-2.572-5.185 0-1.922.89-3.794 2.572-5.185l.838-.694 1.39 1.675zm10.443 2.03a3.264 3.264 0 0 1 3.266-3.261h13.065a3.264 3.264 0 0 1 3.266 3.26v8.696a3.263 3.263 0 0 1-3.266 3.261h-8.71a3.263 3.263 0 0 1-3.266-3.26V8.695a3.263 3.263 0 0 1 3.266-3.261h4.355a3.263 3.263 0 0 1 3.266 3.26 3.263 3.263 0 0 1-3.266 3.261h-3.266V9.784h3.266a1.088 1.088 0 1 0 0-2.174h-4.355c-.601 0-1.089.486-1.089 1.087v4.348c0 .6.488 1.086 1.09 1.086h8.709c.601 0 1.089-.486 1.089-1.087V4.348c0-.6-.488-1.087-1.09-1.087H32.662c-.601 0-1.088.486-1.088 1.087V17.39c0 .6.487 1.087 1.088 1.087h16.331v2.174h-16.33a3.264 3.264 0 0 1-3.267-3.26V4.347zM5.762 29.666a1.09 1.09 0 0 1 1.54 0l3.585 3.58 3.585-3.58a1.09 1.09 0 0 1 1.54 0l5.125 5.117-1.54 1.537-4.355-4.348-3.585 3.58a1.09 1.09 0 0 1-1.54 0l-3.585-3.58-4.355 4.348-1.54-1.537 5.125-5.117zm37.786 1.856c-1.227 0-2.504.56-3.516 1.78-1.393 1.679-3.268 2.568-5.193 2.568-1.925 0-3.8-.89-5.194-2.568l-.694-.837 1.677-1.387.694.837c1.012 1.22 2.29 1.78 3.517 1.78 1.227 0 2.504-.56 3.516-1.78 1.393-1.679 3.268-2.567 5.193-2.567 1.926 0 3.8.888 5.194 2.567l.694.837-1.677 1.387-.694-.837c-1.012-1.22-2.29-1.78-3.517-1.78zm0 6.522c-1.227 0-2.504.56-3.516 1.78-1.393 1.679-3.268 2.567-5.193 2.567-1.925 0-3.8-.888-5.194-2.567l-.694-.837 1.677-1.387.694.837c1.012 1.22 2.29 1.78 3.517 1.78 1.227 0 2.504-.56 3.516-1.78 1.393-1.679 3.268-2.567 5.193-2.567 1.926 0 3.8.888 5.194 2.567l.694.837-1.677 1.387-.694-.837c-1.012-1.22-2.29-1.78-3.517-1.78zm-37.016.45l-4.355 4.348-1.54-1.538 5.125-5.116a1.09 1.09 0 0 1 1.54 0l3.585 3.58 3.585-3.58a1.09 1.09 0 0 1 1.54 0l5.125 5.116-1.54 1.538-4.355-4.348-3.585 3.579a1.09 1.09 0 0 1-1.54 0l-3.585-3.58zm37.016 6.071c-1.227 0-2.504.56-3.516 1.78-1.393 1.68-3.268 2.568-5.193 2.568-1.925 0-3.8-.889-5.194-2.567l-.694-.837 1.677-1.387.694.837c1.012 1.22 2.29 1.78 3.517 1.78 1.227 0 2.504-.56 3.516-1.78 1.393-1.68 3.268-2.568 5.193-2.568 1.926 0 3.8.889 5.194 2.568l.694.837-1.677 1.387-.694-.837c-1.012-1.22-2.29-1.78-3.517-1.78zm-37.016.45l-4.355 4.348-1.54-1.537 5.125-5.116a1.09 1.09 0 0 1 1.54 0l3.585 3.579 3.585-3.58a1.09 1.09 0 0 1 1.54 0l5.125 5.117-1.54 1.537-4.355-4.348-3.585 3.58a1.09 1.09 0 0 1-1.54 0l-3.585-3.58z"></path>
  </g>
  <g class="svg_none" viewBox="0 0 26 26" id="logos-skype">
    <circle cx="13" cy="13" r="11" fill="#fff"></circle>
    <path d="M25.08 15.134c-.008.046-.014.092-.023.137l-.044-.262c.024.041.044.084.067.125.135-.734.204-1.48.204-2.226a12.227 12.227 0 0 0-3.597-8.681 12.234 12.234 0 0 0-8.68-3.595c-.78 0-1.563.073-2.325.22h-.005c.043.023.086.043.128.066l-.258-.04.13-.026A7.278 7.278 0 0 0 7.268 0a7.22 7.22 0 0 0-5.14 2.13A7.222 7.222 0 0 0 0 7.268a7.25 7.25 0 0 0 .914 3.523l.022-.133.045.257c-.023-.04-.043-.082-.067-.124a12.365 12.365 0 0 0-.184 2.116c0 1.658.324 3.266.965 4.78a12.22 12.22 0 0 0 2.63 3.902 12.21 12.21 0 0 0 3.903 2.63c1.514.642 3.122.966 4.78.966.72 0 1.444-.066 2.15-.19l-.126-.069.262.046c-.045.009-.09.014-.137.022a7.262 7.262 0 0 0 3.576.942 7.216 7.216 0 0 0 5.138-2.128A7.217 7.217 0 0 0 26 18.67a7.269 7.269 0 0 0-.92-3.536zm-12.024 5.293c-4.361 0-6.313-2.144-6.313-3.751 0-.824.609-1.402 1.448-1.402 1.866 0 1.383 2.68 4.865 2.68 1.783 0 2.768-.968 2.768-1.959 0-.595-.294-1.256-1.468-1.545l-3.88-.969c-3.124-.784-3.691-2.472-3.691-4.06 0-3.297 3.104-4.534 6.018-4.534 2.685 0 5.85 1.484 5.85 3.461 0 .848-.733 1.34-1.572 1.34-1.593 0-1.3-2.204-4.508-2.204-1.593 0-2.474.72-2.474 1.752 0 1.03 1.257 1.36 2.349 1.608l2.872.637c3.145.701 3.942 2.537 3.942 4.267 0 2.68-2.056 4.68-6.206 4.68zm1.976 4.5c.042.024.084.045.125.068.046-.008.092-.013.137-.022l-.262-.046zm10.025-9.656c.009-.045.015-.091.023-.137-.023-.041-.043-.084-.067-.125l.044.262zM.937 10.66c-.01.044-.015.089-.023.133.024.042.044.084.067.124l-.045-.257zM10.805.92c-.042-.024-.085-.044-.128-.067l-.13.026.258.04z"
      fill="#00AFF0"></path>
  </g>
  <g class="svg_none" viewBox="0 0 26 26" id="logos-telegram">
    <path d="M13 0C5.82 0 0 5.82 0 13s5.82 13 13 13 13-5.82 13-13S20.18 0 13 0z" fill="#40B3E0"></path>
    <path d="M19.326 7.478l-2.322 11.707s-.325.812-1.218.422L10.428 15.5l-1.949-.941-3.28-1.105s-.503-.178-.552-.568c-.048-.39.569-.6.569-.6L18.254 7.17s1.072-.471 1.072.308z" fill="#fff"></path>
    <path d="M10.016 19.053s-.157-.014-.352-.631c-.194-.617-1.185-3.865-1.185-3.865l7.875-5s.455-.277.439 0c0 0 .08.048-.163.275-.243.228-6.186 5.57-6.186 5.57" fill="#D2E5F1"></path>
    <path d="M12.482 17.074l-2.12 1.932s-.165.126-.346.047l.406-3.589" fill="#B5CFE4"></path>
  </g>
  <g class="svg_none" viewBox="0 0 27 27" id="logos-whatsapp">
    <path fill-rule="evenodd" clip-rule="evenodd" d="M.576 26.406l2.047-7.438a12.799 12.799 0 0 1-1.52-6.075C1.103 5.776 6.92 0 14.054 0a12.88 12.88 0 0 1 9.158 3.778A12.77 12.77 0 0 1 27 12.9c0 7.117-5.815 12.894-12.951 12.894h-.006A13.01 13.01 0 0 1 8.21 24.41L.576 26.406z"
      fill="#25D366"></path>
    <path d="M2 25l1.696-6.161a11.806 11.806 0 0 1-1.593-5.944C2.103 6.334 7.466 1 14.055 1a11.88 11.88 0 0 1 8.45 3.486A11.77 11.77 0 0 1 26 12.9c0 6.56-5.363 11.895-11.951 11.895h-.006c-1.996-.001-3.96-.5-5.712-1.45L2 25zm6.629-3.81l.36.216a9.99 9.99 0 0 0 5.054 1.38h.006c5.471 0 9.929-4.432 9.929-9.886a9.818 9.818 0 0 0-2.905-6.994 9.875 9.875 0 0 0-7.024-2.898c-5.478 0-9.935 4.433-9.935 9.886 0 1.866.521 3.686 1.518 5.26l.235.377-1.002 3.645 3.764-.987z"
      fill="#fff"></path>
    <path d="M11.049 7.556c-.221-.532-.454-.544-.663-.55C10.216 7 10.018 7 9.819 7c-.198 0-.516.08-.788.397C8.76 7.715 8 8.484 8 10.054c0 1.563 1.06 3.077 1.207 3.291.147.214 2.046 3.53 5.043 4.806 2.494 1.063 3.004.85 3.542.794.544-.055 1.746-.77 1.995-1.514.244-.745.244-1.38.17-1.515-.074-.134-.272-.213-.567-.372-.294-.16-1.745-.929-2.017-1.039-.272-.11-.47-.158-.663.16-.198.317-.765 1.031-.935 1.245-.17.214-.346.238-.64.08-.295-.16-1.247-.495-2.375-1.582-.878-.843-1.473-1.887-1.643-2.205-.17-.317-.017-.489.13-.647.13-.14.295-.373.442-.556.147-.183.198-.318.295-.531.096-.214.05-.397-.023-.556-.074-.159-.652-1.728-.912-2.357z"
      fill="#fff"></path>
  </g>
  <g class="svg_none" viewBox="0 0 20 20" id="phone">
    <path d="M2 5.994c0 .67.245 1.406.558 2.187.312.781.714 1.518 1.026 2.076.848 1.472 1.942 2.923 3.191 4.128 1.25 1.205 2.723 2.21 4.374 2.812.96.379 1.92.803 2.99.803.536 0 1.295-.2 1.986-.49.67-.291 1.273-.737 1.496-1.273.089-.2.2-.468.267-.78a3.86 3.86 0 0 0 .112-.782c0-.112 0-.223-.022-.245-.067-.134-.224-.246-.402-.357-.402-.201-.469-.268-1.071-.625-.625-.357-1.272-.759-1.83-1.05-.268-.155-.446-.222-.513-.222-.357 0-.804.49-1.183 1.026-.402.536-.848 1.027-1.16 1.027-.157 0-.313-.067-.491-.179-.179-.111-.357-.2-.469-.268-1.964-1.115-3.28-2.432-4.396-4.373-.134-.224-.446-.692-.446-.938 0-.29.401-.624.803-.981.38-.335.781-.737.781-1.228 0-.067-.045-.268-.134-.558-.2-.58-.468-1.25-.692-1.896-.111-.313-.2-.536-.223-.648a.753.753 0 0 1-.089-.267c-.022-.112-.067-.201-.09-.29a.971.971 0 0 0-.29-.447 2.654 2.654 0 0 0-.646-.134c-.268 0-.58-.022-.715-.022-.066 0-.156 0-.245.022h-.29c-.714.313-1.227.938-1.607 1.674C2.223 4.432 2 5.258 2 5.994z"></path>
  </g>
  <g class="svg_none" viewBox="0 0 30 30" id="social_facebook">
    <path d="M11.183 16.7l-.02 10.8h4.984l.02-10.8h3.946c.355 0 .654-.252.695-.585l.437-3.481c.05-.394-.276-.74-.696-.74h-4.402V8.98c0-1.32.388-2.22 2.392-2.22l1.855-.001c.386 0 .7-.297.7-.662V3.162c0-.366-.314-.662-.7-.662H17.37c-3.684 0-6.206 2.126-6.206 6.03v3.364H8.2c-.387 0-.701.298-.7.664l.014 3.482c.002.364.315.66.7.66h2.97z"></path>
  </g>
  <g class="svg_none" viewBox="0 0 30 30" id="social_instagram">
    <path d="M20.052 2.5H9.948C5.84 2.5 2.5 5.841 2.5 9.948v10.104c0 4.107 3.341 7.448 7.448 7.448h10.104c4.107 0 7.448-3.341 7.448-7.448V9.948c0-4.107-3.341-7.448-7.448-7.448zm4.933 17.552a4.933 4.933 0 0 1-4.933 4.933H9.948a4.933 4.933 0 0 1-4.933-4.933V9.948a4.933 4.933 0 0 1 4.933-4.933h10.104a4.933 4.933 0 0 1 4.933 4.933v10.104z"
      fill="#E4405F"></path>
    <path d="M15 8.534A6.473 6.473 0 0 0 8.534 15c0 3.565 2.9 6.466 6.466 6.466 3.565 0 6.466-2.9 6.466-6.466 0-3.565-2.9-6.466-6.466-6.466zm0 10.417a3.95 3.95 0 1 1 0-7.902 3.95 3.95 0 0 1 0 7.902zm6.478-8.819a1.55 1.55 0 1 0 0-3.099 1.55 1.55 0 0 0 0 3.099z"></path>
  </g>
  <g class="svg_none" viewBox="0 0 29 30" id="social_ok">
    <path d="M13.688 20.313c-2.065-.21-3.928-.706-5.522-1.923-.198-.152-.402-.297-.583-.467-.698-.654-.768-1.403-.216-2.175.472-.66 1.266-.837 2.09-.458.16.074.312.166.457.264 2.972 1.993 7.054 2.048 10.037.09.296-.221.612-.402.978-.494.712-.178 1.376.077 1.758.685.436.694.43 1.371-.107 1.91-.825.826-1.817 1.424-2.92 1.841-1.042.395-2.183.593-3.313.725.17.181.25.27.357.375 1.535 1.504 3.076 3.002 4.605 4.51.52.515.63 1.152.343 1.75-.314.654-1.016 1.084-1.704 1.038-.437-.03-.777-.242-1.079-.539-1.158-1.137-2.337-2.253-3.472-3.41-.33-.338-.489-.274-.78.018a229.284 229.284 0 0 1-3.54 3.468c-.534.515-1.17.607-1.79.313-.66-.311-1.08-.968-1.047-1.628.023-.446.247-.787.561-1.093 1.519-1.48 3.033-2.962 4.548-4.444.1-.099.193-.203.34-.356z"
      fill="#F2720C"></path>
    <path d="M14.947 15.16c-3.685-.012-6.707-2.993-6.686-6.595.022-3.64 3.045-6.575 6.767-6.565 3.728.01 6.722 2.986 6.703 6.665-.02 3.595-3.062 6.508-6.784 6.495zm3.349-6.586C18.289 6.786 16.83 5.362 15 5.361c-1.845-.002-3.317 1.447-3.303 3.252.014 1.781 1.486 3.195 3.32 3.188 1.828-.006 3.284-1.439 3.278-3.227z"></path>
  </g>
  <g class="svg_none" viewBox="0 0 29 30" id="social_twitter">
    <path d="M27.5 7.366a9.462 9.462 0 0 1-2.797.796 5.044 5.044 0 0 0 2.141-2.793 9.614 9.614 0 0 1-3.096 1.227A4.78 4.78 0 0 0 20.192 5c-2.69 0-4.872 2.262-4.872 5.05 0 .395.043.781.126 1.15-4.048-.21-7.639-2.221-10.041-5.277a5.154 5.154 0 0 0-.66 2.539c0 1.752.862 3.299 2.168 4.203a4.742 4.742 0 0 1-2.207-.634v.063c0 2.447 1.68 4.488 3.907 4.953a4.773 4.773 0 0 1-1.283.177c-.315 0-.62-.032-.918-.094.62 2.008 2.42 3.468 4.55 3.508a9.557 9.557 0 0 1-7.212 2.09A13.42 13.42 0 0 0 11.218 25c8.962 0 13.861-7.696 13.861-14.37l-.016-.654a9.93 9.93 0 0 0 2.437-2.61z"></path>
  </g>
  <g class="svg_none" viewBox="0 0 31 30" id="social_vk">
    <path d="M30.59 23.183a2.34 2.34 0 0 0-.1-.214c-.521-1.027-1.516-2.287-2.984-3.781l-.031-.034-.016-.017-.015-.018h-.016c-.666-.695-1.088-1.163-1.265-1.403-.323-.456-.396-.918-.22-1.386.126-.354.595-1.1 1.407-2.241.427-.605.765-1.09 1.015-1.455 1.801-2.623 2.582-4.3 2.343-5.03l-.093-.17c-.063-.103-.224-.197-.484-.283-.26-.086-.594-.1-1-.043l-4.498.034c-.073-.028-.177-.025-.313.009l-.203.051-.079.043-.062.052a.724.724 0 0 0-.171.18 1.208 1.208 0 0 0-.156.299 29.211 29.211 0 0 1-1.672 3.85 37.11 37.11 0 0 1-1.062 1.839c-.323.519-.594.901-.812 1.146a5.892 5.892 0 0 1-.594.59c-.177.149-.312.212-.406.189a10.25 10.25 0 0 1-.266-.069 1.106 1.106 0 0 1-.35-.419 2.011 2.011 0 0 1-.18-.667 8.011 8.011 0 0 1-.055-.693c-.005-.194-.003-.468.008-.822.01-.354.015-.593.015-.718 0-.434.008-.904.024-1.412.015-.508.028-.91.039-1.206.01-.297.015-.61.015-.941 0-.331-.018-.59-.054-.779a2.847 2.847 0 0 0-.164-.547.904.904 0 0 0-.32-.411 1.718 1.718 0 0 0-.523-.231c-.552-.137-1.255-.211-2.11-.223-1.936-.022-3.18.115-3.732.411a2.146 2.146 0 0 0-.594.513c-.187.251-.213.388-.078.411.625.103 1.067.348 1.327.736l.094.205c.073.148.146.41.22.787.072.377.119.793.14 1.249.052.833.052 1.546 0 2.139a27.757 27.757 0 0 1-.149 1.386 3.01 3.01 0 0 1-.21.804c-.095.205-.157.33-.188.376a.284.284 0 0 1-.078.086 1.08 1.08 0 0 1-.422.086c-.146 0-.323-.08-.531-.24a3.898 3.898 0 0 1-.648-.659 8.852 8.852 0 0 1-.758-1.172 21.158 21.158 0 0 1-.875-1.78l-.25-.496A44.37 44.37 0 0 1 7.81 9.7c-.27-.61-.51-1.2-.718-1.771a1.123 1.123 0 0 0-.375-.548l-.078-.051a1.044 1.044 0 0 0-.25-.146 1.548 1.548 0 0 0-.36-.11l-4.28.033c-.436 0-.733.109-.89.326l-.062.102a.599.599 0 0 0-.047.274c0 .126.031.28.094.462a58.98 58.98 0 0 0 2.038 4.654c.734 1.494 1.372 2.698 1.913 3.61a42.867 42.867 0 0 0 1.656 2.584c.562.81.935 1.329 1.117 1.557.182.228.325.4.43.513l.39.41c.25.275.617.602 1.101.985.484.382 1.02.758 1.609 1.13.588.37 1.273.672 2.054.906a6.517 6.517 0 0 0 2.28.282h1.797c.364-.034.64-.16.828-.376l.062-.086c.042-.068.08-.174.117-.316.037-.143.055-.3.055-.47a6.16 6.16 0 0 1 .101-1.326c.078-.394.167-.69.266-.89.099-.2.211-.368.335-.505.125-.136.214-.22.267-.248a.97.97 0 0 1 .124-.06c.25-.091.544-.003.883.266.338.268.656.599.953.992.297.394.653.835 1.07 1.326.416.49.78.855 1.093 1.095l.312.205c.209.137.48.263.813.377.332.114.624.143.874.085l3.999-.068c.395 0 .703-.072.921-.214.219-.142.349-.3.39-.47.043-.171.045-.366.009-.582a2.317 2.317 0 0 0-.11-.454z"></path>
  </g>
  <g class="svg_none" viewBox="0 0 30 30" id="social_youtube">
    <path fill-rule="evenodd" clip-rule="evenodd" d="M25.836 6.194a3.357 3.357 0 0 1 2.362 2.362c.574 2.096.552 6.466.552 6.466s0 4.348-.552 6.445a3.357 3.357 0 0 1-2.362 2.361c-2.096.553-10.483.553-10.483.553s-8.365 0-10.484-.574a3.357 3.357 0 0 1-2.362-2.362C1.956 19.37 1.956 15 1.956 15s0-4.348.551-6.444A3.426 3.426 0 0 1 4.87 6.172c2.097-.552 10.483-.552 10.483-.552s8.387 0 10.484.574zM19.656 15l-6.974 4.017v-8.034L19.656 15z"></path>
  </g>
  <g fill="none" class="svg_none" viewBox="0 0 34 34" id="large-arrow">
    <path d="M25 1L9 17l16 16" stroke="#2E2E2E"></path>
  </g>
  <g fill="none" class="svg_none" viewBox="0 0 10 10" id="small-arrow">
    <path d="M1 3.5l4 4 4-4" stroke="#2E2E2E"></path>
  </g>
  <g fill="none" class="svg_none" viewBox="0 0 18 20" id="han">
    <path d="M9.003.086c-.204.042-.654.138-.986.212-.343.064-.621.159-.621.212 0 .053.568.424 1.264.837.707.403 1.424.912 1.607 1.123l.342.382v10.46l-1.339.858c-1.917 1.25-1.938 1.367-.107.805.686-.212 1.307-.36 1.382-.34.075.033.171.202.204.372a1.5 1.5 0 0 0 .332.614c.235.276.332.308.9.308 1.092-.01 1.542-.477 1.585-1.643.01-.392.053-.773.085-.837.054-.074.536-.117 1.36-.117 1.554 0 2.132-.127 2.625-.582.289-.276.364-.424.364-.742 0-.742-1.082-1.441-1.982-1.282-.182.042-.739.254-1.231.498-.493.233-.964.413-1.06.392-.14-.032-.15-.35-.108-2.628.022-1.43.043-3.625.043-4.886V1.813l-.3-.381C12.57.404 10.46-.242 9.002.086z"
      fill="#fff"></path>
    <path d="M3.98 3.477c-.611.17-1.115.318-1.136.34-.118.126.246.56.739.89.675.434.803.678.546 1.06-.568.858-1.992 1.356-4.038 1.42-.182 0-.075.497.182.868.332.488 1.103.858 1.885.911.546.043.729-.01 2.25-.667 1.52-.668 2.238-.933 2.238-.859 0 .085-1.296.997-2.142 1.526-2.442 1.527-3.513 2.83-3.224 3.921.268.954 1.028 1.728 2.164 2.162.824.318 2.27.308 3.127-.021.9-.34 1.864-1.261 2.357-2.257.546-1.081 1.317-4.186 1.092-4.398-.032-.042-.289.18-.557.488-.257.296-.535.55-.6.55-.197 0-1.574-.488-1.574-.72 0-.053.525-.413 1.167-.805 1.275-.774 1.596-1.156 1.457-1.76-.107-.498-.407-.635-1.414-.635-.9 0-1.114-.085-.825-.329.236-.19.472-.678.472-.975 0-.297-.418-.773-.804-.922-.567-.212-2.174-.106-3.363.212zm2.452 7.471c.278.255.268.456-.075 1.176-.418.89-.696 1.018-2.014.975-1.66-.063-2.013-.35-1.564-1.24.247-.455.782-.921 1.264-1.07.161-.053.718-.085 1.232-.074.728.032.986.074 1.157.233zm-.707 5.585c-.59.54-.793.9-.793 1.43 0 .87.707 1.484 2.078 1.834.964.243 1.714.254 4.167.106 1.746-.117 2.27-.233 2.72-.657.633-.594.504-1.484-.278-1.876-.589-.297-1.542-.286-3.706.042-2.185.329-3.031.34-3.417.043-.321-.255-.343-.445-.118-.986.15-.339.15-.381 0-.381-.096 0-.385.201-.653.445z"
      fill="#fff"></path>  
  </g>
</svg>